<svg xmlns="http://www.w3.org/2000/svg" width="185" height="108" fill="none" viewBox="0 0 185 108"><g filter="url(#filter0_i)"><path fill="url(#paint0_linear)" d="M34 67V41h26.977v26H34zm21.082-6.3H41.494c-1.1 0-1.4-.3-1.4-1.4V44.8c-.1-.8-.599-1.3-1.398-1.4-1.154-.143-1.699.913-1.699 1.9v15c0 2.2 1.2 3.4 3.398 3.4h18.783c-1.498-3.862-2.921-7.704-4.396-11.5-.3-.8-.3-1.4.2-2.1.9-1.4 1.799-2.9 2.698-4.3.5-.8.4-1.8-.4-2.2-.8-.5-1.698-.2-2.198.6l-3.297 5.4c-.6.9-.6 1.9-.2 2.9.6 1.3 1.698 4 1.698 4l1.799 4.2zm-12.989-4.9c.1 2.3 1.798 3.9 3.997 3.9 2.198 0 4.096-1.5 4.096-3.8.1-3.7 0-7.4 0-11 0-.7-.4-1.2-.999-1.4-1.099-.4-1.998.4-1.998 1.6v10c0 .656-.017 1.5-.9 1.5-.837 0-1.099-.669-1.099-1.4V44.9c0-.7-.4-1.2-1.099-1.3-.999-.3-1.898.4-1.998 1.5v10.7z"/><path fill="url(#paint1_linear)" d="M111.534 57.4c-2.459-8.275 4.187-16.655 12.989-13.3 8.961 3.51 6.551 20.1-3.397 20.1-3.697 0-8.033-1.516-9.592-6.8zm5.895.5c1.877 2.256 5.446 2.187 6.594-.8.848-2.262 1.077-5.191-.5-7.2-1.798-2.3-4.496-2.3-6.294 0-1.453 2-1.376 6.108.2 8z"/><path fill="url(#paint2_linear)" d="M82.459 44v11.2c0 1.625.442 4.552 2.697 4.3 2.375 0 2.598-2.82 2.598-4.6V44h5.096v12c0 3.997-2.398 8.2-7.694 8.2-5.626 0-7.893-3.116-7.893-9.1V44h5.196z"/><path fill="url(#paint3_linear)" d="M112.433 63.5h-6.494l-4.796-7.8v7.8h-5.096V44h5.096v7.5h.1l5.195-7.5h5.495l-6.494 9.5 6.994 10z"/><path fill="url(#paint4_linear)" d="M140.609 44h5.195v15H151v4.5h-10.291l-.1-19.5z"/><path fill="url(#paint5_linear)" d="M65.273 44h5.096v15h5.295v4.5h-10.39V44z"/><path fill="url(#paint6_linear)" d="M137.412 63.5h-5.096V44h5.096v19.5z"/></g><defs><linearGradient id="paint0_linear" x1="33.433" x2="147.184" y1="41.476" y2="77.683" gradientUnits="userSpaceOnUse"><stop stop-color="#C47E5C"/><stop offset="1" stop-color="#E89E75"/></linearGradient><linearGradient id="paint1_linear" x1="33.433" x2="147.184" y1="41.476" y2="77.683" gradientUnits="userSpaceOnUse"><stop stop-color="#C47E5C"/><stop offset="1" stop-color="#E89E75"/></linearGradient><linearGradient id="paint2_linear" x1="33.433" x2="147.184" y1="41.476" y2="77.683" gradientUnits="userSpaceOnUse"><stop stop-color="#C47E5C"/><stop offset="1" stop-color="#E89E75"/></linearGradient><linearGradient id="paint3_linear" x1="33.433" x2="147.184" y1="41.476" y2="77.683" gradientUnits="userSpaceOnUse"><stop stop-color="#C47E5C"/><stop offset="1" stop-color="#E89E75"/></linearGradient><linearGradient id="paint4_linear" x1="33.433" x2="147.184" y1="41.476" y2="77.683" gradientUnits="userSpaceOnUse"><stop stop-color="#C47E5C"/><stop offset="1" stop-color="#E89E75"/></linearGradient><linearGradient id="paint5_linear" x1="33.433" x2="147.184" y1="41.476" y2="77.683" gradientUnits="userSpaceOnUse"><stop stop-color="#C47E5C"/><stop offset="1" stop-color="#E89E75"/></linearGradient><linearGradient id="paint6_linear" x1="33.433" x2="147.184" y1="41.476" y2="77.683" gradientUnits="userSpaceOnUse"><stop stop-color="#C47E5C"/><stop offset="1" stop-color="#E89E75"/></linearGradient><filter id="filter0_i" width="117" height="26" x="34" y="41" color-interpolation-filters="sRGB" filterUnits="userSpaceOnUse"><feFlood flood-opacity="0" result="BackgroundImageFix"/><feBlend in="SourceGraphic" in2="BackgroundImageFix" result="shape"/><feColorMatrix in="SourceAlpha" result="hardAlpha" values="0 0 0 0 0 0 0 0 0 0 0 0 0 0 0 0 0 0 127 0"/><feOffset dy="1"/><feComposite in2="hardAlpha" k2="-1" k3="1" operator="arithmetic"/><feColorMatrix values="0 0 0 0 1 0 0 0 0 1 0 0 0 0 1 0 0 0 1 0"/><feBlend in2="shape" mode="soft-light" result="effect1_innerShadow"/></filter></defs></svg>