<svg xmlns="http://www.w3.org/2000/svg" width="185" height="108" fill="none" viewBox="0 0 185 108"><g filter="url(#filter0_i)"><path fill="url(#paint0_linear)" d="M101.374 40.199c3.399.695 6.698 1.489 10.097 2.184 1.499.298 2.699-.199 3.599-1.49 0 0 .1-.099.3-.198-.1 1.49-.5 2.88-1.5 3.972-1 1.191-2.499 1.29-3.999 1.191v15.787c1.7-.198 3.199-.794 4.699-1.489-.1.199-.1.298-.2.497-3.699 4.368-10.297 5.858-15.196 2.581-4.199-2.78-5.199-8.638-2.4-13.106 1.2-1.887 2.8-3.277 4.799-4.27.2-.1.5-.198.8-.198-2.099 2.085-3.099 4.567-3.199 7.347-.1 2.979.8 5.362 3.199 7.248.7-.198 1-.695.9-1.39-.1-2.68 0-5.361-.1-8.042 0-.894-.2-1.688-1.1-2.185 1.7-.893 3.399-1.688 5.099-2.581V56.68c0 .496-.2.794-.6.993-1.3.794-2.599 1.688-4.099 2.581 2.2 1.291 4.399 1.49 6.798 1.192V45.56c-3.199-.596-6.398-1.191-9.597-1.688-.8-.099-1.6.1-2.4.298-.8.199-1.4.795-1.5 1.589-.199.894.2 1.49 1 1.886 0 .1-.1.1-.1.199-.2-.1-.5-.1-.7-.199-1.299-.893-1.799-2.68-1.199-4.468.6-1.688 1.9-2.581 3.6-2.978.2 0 .4-.1.5-.199.899.199 1.699.199 2.499.199z"/><path fill="url(#paint1_linear)" d="M0 52.213c.1-.596.2-1.092.4-1.688.9-3.376 3.2-5.759 6.198-7.546a11.1 11.1 0 012.7-1.192c-3.1 2.185-4.9 5.064-5 8.837-.1 3.674.7 6.95 3.6 9.532.7-.198.8-.596.8-1.191V48.936c0-1.092-.2-2.184-.8-3.078 2.5-1.688 5.099-3.376 7.598-5.064 1.3 1.192 2.8 1.093 4.399.199.4.794-.2 2.383-1.1 3.276-1 .894-2.2.894-3.499.795v16.581c1.8-.198 3.3-.992 4.799-1.886 0 .298 0 .397-.1.496-4.2 5.064-10.098 5.958-14.996 3.078-2.9-1.688-4.3-4.468-4.799-7.645 0-.199-.1-.497-.1-.695C0 54 0 53.106 0 52.213zm14.896 9.432V45.064c-.7-.497-1.4-.894-2.2-1.39V56.78c0 .497-.2.794-.6 1.092-1.299.795-2.498 1.589-3.898 2.582 2.2 1.29 4.399 1.191 6.698 1.191z"/><path fill="url(#paint2_linear)" d="M21.294 40.993c.3.496.7.993 1 1.49.8-1.291 1.9-2.086 3.7-2.185-1.3 1.39-.9 3.078-1 4.567v5.66c1.1-1.092 1.999-2.085 2.999-3.078 1.4.993 2.799 1.986 4.299 2.978-.7.993-.6 2.185-.6 3.277v5.66c0 1.191 0 1.191 1.1 1.787.1-.1.3-.298.5-.397.2-.1.3-.298.5-.397l.2.198c-1 .993-2 2.085-3 3.078a96.81 96.81 0 00-2.5-1.588c-.2-.1-.3-.497-.3-.696v-9.432c0-.397-.1-.695-.5-.894-.5-.298-.999-.596-1.499-.993-.7.497-1.2 1.093-1.1 2.086.1 2.482.1 4.964 0 7.446 0 .695.2 1.192.9 1.39.2.1.4.199.6.397-.8.695-1.6 1.49-2.4 2.185-1-.596-2.099-1.39-3.099-1.986.2-.893.4-1.688.4-2.581V43.078c-.1-.596-.2-1.29-.2-2.085-.1.1-.1 0 0 0z"/><path fill="url(#paint3_linear)" d="M63.683 67.9c1.1-1.886 2.5-2.879 4.5-3.276 1.599-.298 3.098 0 4.498.794.7.398.9-.099 1.2-.496.3-.298.3-.794-.1-1.092-.2-.199-.4-.397-.6-.497-.9-.496-1.5-1.092-1.8-2.184-.9.894-1.7 1.787-2.499 2.581-1.7-1.092-3.2-2.085-4.799-3.077.8-.695.7-1.59.7-2.483v-6.255c0-.397.1-.695.5-.894 2-1.092 3.899-2.184 5.898-3.376 1.4.894 2.9 1.887 4.2 2.78-.2.795-.4 1.59-.5 2.384-.1 2.184-.1 4.269 0 6.453 0 .596.3 1.291.7 1.887.899 1.29.999 1.986-.2 3.078-1.5 1.29-3 2.482-4.5 3.674-.1.099-.4.099-.6.099-1.999-.894-3.998-.596-5.898-.1-.1-.198-.3-.099-.7 0zm4.6-13.205c0 1.092.1 2.184 0 3.277-.1 1.191.2 2.085 1.399 2.581.2.1.5.298.6.497.4.397.7.198.9-.199.1-.198.2-.496.2-.794v-7.944c0-.595-.2-.893-.7-1.191-.6-.298-1.1-.794-1.7-1.092-.2-.1-.4-.199-.5-.199-.1.1-.2.298-.2.497v4.567z"/><path fill="url(#paint4_linear)" d="M133.865 41.092c.3.497.7.993 1 1.49.8-1.291 1.999-2.086 3.699-2.284-1.4 1.588-.9 3.376-.9 5.064-.1 1.688 0 3.276 0 5.163 1.1-1.092 1.999-2.085 2.999-3.078 1.5.993 2.899 1.986 4.199 2.78-.2.695-.4 1.39-.5 1.986-.1 2.383 0 4.666-.1 7.05 0 .297-.2.595-.3.694-2.199.894-4.199 2.086-6.098 3.575-1.5-.993-2.999-1.986-4.299-2.78.2-.695.5-1.291.5-1.986V42.582c0-.596-.2-1.093-.3-1.688 0 .198 0 .198.1.198zm4.699 8.837c-.4.596-.9 1.092-1 1.688-.1 2.582-.1 5.163 0 7.745 0 .198.1.496.3.695.6.496 1.3.993 1.999 1.49.1.098.4.198.5.098.1-.099.3-.298.3-.496v-9.333c0-.199-.1-.497-.3-.596-.5-.497-1.099-.794-1.799-1.29z"/><path fill="url(#paint5_linear)" d="M160.058 49.93l-.9.893-.2-.199c1-1.092 2-2.085 3-3.078.999.794 2.099 1.49 2.999 2.284.2.198.3.596.4.893.999-1.092 2.099-2.184 3.099-3.276 1.4.893 2.699 1.787 3.899 2.581-.2.695-.5 1.39-.5 1.986-.1 2.681 0 5.263-.1 7.943 0 .795.8.795 1.2 1.291.3-.298.7-.595.9-.794-.9.893-2 1.886-3.1 2.979-.5-.298-1.399-.894-2.199-1.39-.2-.1-.2-.497-.2-.696v-9.134c0-.695-.1-1.092-.7-1.49-.3-.198-.6-.397-.9-.695-.899.695-1.599 1.49-1.499 2.78.1 2.185.1 4.469 0 6.752 0 .596.1 1.093.8 1.291.299.1.499.298.799.496-.799.695-1.599 1.39-2.399 2.185-1-.596-2.199-1.39-3.199-1.986.2-.695.5-1.39.5-2.085.1-2.582 0-5.163 0-7.745 0-.198-.1-.496-.3-.695-.4-.397-.9-.695-1.4-1.092z"/><path fill="url(#paint6_linear)" d="M146.462 49.93c-.4.297-.7.595-1 .893l-.2-.199c1-1.092 1.999-2.085 2.999-3.078.9.596 1.7 1.092 2.5 1.589.199.1.299.496.299.794v9.234c0 .695.1 1.29.8 1.589.3.1.5.397.8.595.9-.595 1.6-1.29 1.5-2.581-.1-2.383-.1-4.766 0-7.149 0-.794-.2-1.191-.9-1.49-.2-.099-.4-.198-.5-.297.8-.695 1.6-1.49 2.399-2.185 1 .596 2.1 1.39 3.1 1.986-.2.695-.5 1.39-.5 2.085-.1 2.78 0 5.461 0 8.241 0 .199.2.596.4.696.3.297.699.397 1.099.694.3-.297.6-.595.9-.794l.2.199c-1 1.092-1.999 2.085-2.999 3.177-1-.596-1.9-1.191-2.799-1.886-.3-.199-.3-.696-.5-1.093l-3.299 2.98c-1.3-.795-2.5-1.689-3.799-2.483.699-.596.699-1.49.699-2.483v-6.85c-.1-1.49-.1-1.49-1.199-2.185z"/><path fill="url(#paint7_linear)" d="M77.38 60.653c.7-.695.8-1.49.8-2.383v-6.454c0-.497.1-.695.5-.894 1.799-.993 3.498-2.085 5.298-3.177.2-.1.6-.199.7-.1 1.4.894 2.8 1.887 4.299 2.78-.7.596-.7 1.49-.7 2.384v6.453c0 .497-.1.696-.6.894-2 1.092-3.899 2.184-5.998 3.376-1.2-.894-2.7-1.787-4.3-2.88zm4.299-5.859v4.468c0 .199.1.596.3.696.6.496 1.3.992 1.999 1.489.1.1.4.198.5.198.1-.099.2-.298.2-.496v-9.234c0-.199-.1-.496-.3-.596-.6-.496-1.3-.993-2-1.49-.2-.099-.5-.297-.5-.198-.1.1-.3.397-.3.596.1 1.49.1 2.979.1 4.567z"/><path fill="url(#paint8_linear)" d="M54.986 54.894c-1.5-.795-2.6-1.887-3.2-3.476-.2-.496-.1-.794.4-.992 1.5-.894 2.9-1.788 4.4-2.681.2-.1.5-.199.6-.1 1.499.993 2.998 2.085 4.398 2.98-.2.694-.5 1.39-.6 2.084-.1 2.383 0 4.766 0 7.248 0 .199.2.497.4.696.3.198.6.397 1 .595.3-.298.6-.595 1-.893l.2.198c-1 1.092-2.1 2.085-3.1 3.078l-2.7-1.787c-.399-.298-.599-.199-.999.1l-2.1 1.489c-.2.099-.7.198-.899.099-1.6-.695-2.6-1.887-2.8-3.574-.2-1.788.7-3.079 2.2-4.072.6-.397 1.2-.695 1.8-.992zm2.499-.199c-1.7.1-3 1.29-3.2 2.88-.3 1.687.7 3.375 2.1 3.872.5.198 1.1-.1 1.1-.596v-6.156zm0-1.787v-1.092c0-.199-.1-.398-.3-.497-.8-.596-1.7-1.092-2.5-1.688-.3-.198-.6-.1-.6.199.1 1.589.2 3.177 1.2 4.567.1.1.3.199.5.199 1.5 0 1.7-.199 1.7-1.688z"/><path fill="url(#paint9_linear)" d="M181.952 61.347c.5-.595 1-1.092 1.6-1.687l.1.099c-1.3 1.29-2.499 2.581-3.799 3.872a178.587 178.587 0 00-4.999-3.078c.2-.695.5-1.29.5-1.986.1-2.283 0-4.567.1-6.751 0-.298.2-.695.4-.795 1.8-1.191 3.699-2.283 5.499-3.475.1 0 .1-.1.2-.1l3.299 4.171c.3.397.1.596-.2.894-1.7 1.092-3.399 2.283-5.199 3.375-.4.298-.5.497-.5.993 0 .894-.3 1.887.1 2.582.4.695 1.4.993 2.1 1.39l.599.298c0 .1.1.1.2.198zm-2.799-11.716h-.2v5.958c1-.695 2-1.291 2.899-1.986-.899-1.29-1.799-2.582-2.699-3.972z"/><path fill="url(#paint10_linear)" d="M121.868 61.149c.3-.298.6-.596.9-.794l.2.198c-1 1.092-2.1 2.085-3.099 3.178-1.6-.993-3-1.986-4.399-2.78.1-.596.4-1.192.4-1.788v-6.85c0-.696-.1-1.192-.8-1.59-.3-.198-.5-.397-.8-.695l-.9.894-.2-.199c1-.992 2-2.085 2.9-3.078 1.099.894 2.099 1.688 2.999 2.483l2.699-2.383c.6.893 1.6 1.191 2.699.794.1.993-.599 2.284-1.599 2.68-1.3.597-2.4.1-3.399-.992-.1.298-.2.596-.2.794v8.54c0 .198.1.496.3.595.8.298 1.499.596 2.299.993z"/><path fill="url(#paint11_linear)" d="M48.387 47.447c.9 1.191 2 1.191 3.2.695.2.993-.6 2.283-1.6 2.78-1.3.596-2.7.199-4.099-1.39 0 .298-.1.496-.1.695v8.539c0 .397.1.695.5.894.8.397 1.5.893 2.5 1.489.4-.496.899-1.092 1.399-1.688l.3.298c-1.2 1.29-2.4 2.482-3.7 3.773-1.799-1.092-3.498-2.184-5.298-3.177.7-.596.8-1.49.8-2.383v-6.355c0-.199.2-.596.4-.695 2.1-.794 3.999-1.986 5.698-3.475z"/><path fill="url(#paint12_linear)" d="M129.566 63.631c-1.2-.794-2.299-1.49-3.499-2.284.7-.694.7-1.588.7-2.482 0-2.383-.1-4.666 0-7.05 0-.992-.3-1.489-1.2-1.886-.3.298-.6.496-.9.794l-.2-.198c1-.993 2-2.085 3-3.078 1.199.695 2.299 1.49 3.299 2.085-.2.695-.4 1.39-.4 2.085-.1 2.582 0 5.064 0 7.645 0 .993.2 1.59 1.3 1.887.299-.298.599-.496.899-.794l.2.198c-1.099.993-2.099 2.085-3.199 3.078z"/><path fill="url(#paint13_linear)" d="M34.091 49.93c-.3.297-.6.495-.9.793l-.2-.198c1-.993 2-2.085 3-3.078 1.2.794 2.299 1.49 3.399 2.184-.7.894-.7 1.986-.7 2.979v6.652c0 1.291 0 1.291 1.2 1.887.3-.298.6-.496 1-.794l.2.099c-1 1.092-2.1 2.184-3.1 3.177-1.2-.794-2.3-1.49-3.499-2.284.8-.694.7-1.687.7-2.68 0-2.284-.1-4.667 0-6.95.2-.994-.2-1.49-1.1-1.788z"/><path fill="url(#paint14_linear)" d="M128.266 40.695c.7.695 1.4 1.39 2 2.085-.7.695-1.4 1.29-2.199 1.986a40.63 40.63 0 00-2-1.886c.8-.696 1.5-1.49 2.199-2.185z"/><path fill="url(#paint15_linear)" d="M36.59 44.667c-.5-.497-1.2-1.093-1.999-1.788.7-.695 1.5-1.39 2.2-1.985.5.595 1.2 1.29 1.799 1.886-.6.596-1.3 1.192-2 1.887z"/></g><defs><linearGradient id="paint0_linear" x1="-.897" x2="161.68" y1="40.513" y2="116.493" gradientUnits="userSpaceOnUse"><stop stop-color="#C47E5C"/><stop offset="1" stop-color="#E89E75"/></linearGradient><linearGradient id="paint1_linear" x1="-.897" x2="161.68" y1="40.513" y2="116.493" gradientUnits="userSpaceOnUse"><stop stop-color="#C47E5C"/><stop offset="1" stop-color="#E89E75"/></linearGradient><linearGradient id="paint2_linear" x1="-.897" x2="161.68" y1="40.513" y2="116.493" gradientUnits="userSpaceOnUse"><stop stop-color="#C47E5C"/><stop offset="1" stop-color="#E89E75"/></linearGradient><linearGradient id="paint3_linear" x1="-.897" x2="161.68" y1="40.513" y2="116.493" gradientUnits="userSpaceOnUse"><stop stop-color="#C47E5C"/><stop offset="1" stop-color="#E89E75"/></linearGradient><linearGradient id="paint4_linear" x1="-.897" x2="161.68" y1="40.513" y2="116.493" gradientUnits="userSpaceOnUse"><stop stop-color="#C47E5C"/><stop offset="1" stop-color="#E89E75"/></linearGradient><linearGradient id="paint5_linear" x1="-.897" x2="161.68" y1="40.513" y2="116.493" gradientUnits="userSpaceOnUse"><stop stop-color="#C47E5C"/><stop offset="1" stop-color="#E89E75"/></linearGradient><linearGradient id="paint6_linear" x1="-.897" x2="161.68" y1="40.513" y2="116.493" gradientUnits="userSpaceOnUse"><stop stop-color="#C47E5C"/><stop offset="1" stop-color="#E89E75"/></linearGradient><linearGradient id="paint7_linear" x1="-.897" x2="161.68" y1="40.513" y2="116.493" gradientUnits="userSpaceOnUse"><stop stop-color="#C47E5C"/><stop offset="1" stop-color="#E89E75"/></linearGradient><linearGradient id="paint8_linear" x1="-.897" x2="161.68" y1="40.513" y2="116.493" gradientUnits="userSpaceOnUse"><stop stop-color="#C47E5C"/><stop offset="1" stop-color="#E89E75"/></linearGradient><linearGradient id="paint9_linear" x1="-.897" x2="161.68" y1="40.513" y2="116.493" gradientUnits="userSpaceOnUse"><stop stop-color="#C47E5C"/><stop offset="1" stop-color="#E89E75"/></linearGradient><linearGradient id="paint10_linear" x1="-.897" x2="161.68" y1="40.513" y2="116.493" gradientUnits="userSpaceOnUse"><stop stop-color="#C47E5C"/><stop offset="1" stop-color="#E89E75"/></linearGradient><linearGradient id="paint11_linear" x1="-.897" x2="161.68" y1="40.513" y2="116.493" gradientUnits="userSpaceOnUse"><stop stop-color="#C47E5C"/><stop offset="1" stop-color="#E89E75"/></linearGradient><linearGradient id="paint12_linear" x1="-.897" x2="161.68" y1="40.513" y2="116.493" gradientUnits="userSpaceOnUse"><stop stop-color="#C47E5C"/><stop offset="1" stop-color="#E89E75"/></linearGradient><linearGradient id="paint13_linear" x1="-.897" x2="161.68" y1="40.513" y2="116.493" gradientUnits="userSpaceOnUse"><stop stop-color="#C47E5C"/><stop offset="1" stop-color="#E89E75"/></linearGradient><linearGradient id="paint14_linear" x1="-.897" x2="161.68" y1="40.513" y2="116.493" gradientUnits="userSpaceOnUse"><stop stop-color="#C47E5C"/><stop offset="1" stop-color="#E89E75"/></linearGradient><linearGradient id="paint15_linear" x1="-.897" x2="161.68" y1="40.513" y2="116.493" gradientUnits="userSpaceOnUse"><stop stop-color="#C47E5C"/><stop offset="1" stop-color="#E89E75"/></linearGradient><filter id="filter0_i" width="185" height="28" x="0" y="40" color-interpolation-filters="sRGB" filterUnits="userSpaceOnUse"><feFlood flood-opacity="0" result="BackgroundImageFix"/><feBlend in="SourceGraphic" in2="BackgroundImageFix" result="shape"/><feColorMatrix in="SourceAlpha" result="hardAlpha" values="0 0 0 0 0 0 0 0 0 0 0 0 0 0 0 0 0 0 127 0"/><feOffset dy="1"/><feComposite in2="hardAlpha" k2="-1" k3="1" operator="arithmetic"/><feColorMatrix values="0 0 0 0 1 0 0 0 0 1 0 0 0 0 1 0 0 0 1 0"/><feBlend in2="shape" mode="soft-light" result="effect1_innerShadow"/></filter></defs></svg>