<svg xmlns="http://www.w3.org/2000/svg" width="185" height="108" fill="none" viewBox="0 0 185 108"><g filter="url(#filter0_i)"><path fill="url(#paint0_linear)" d="M111.42 47.565h2.399c1.2.099 1.6.495 1.6 1.683v8.02c-.4-.297-.5-.396-.7-.594-3.998-3.763-8.096-7.525-12.095-11.189a1.85 1.85 0 00-1.199-.495h-9.396c-.2 0-.5 0-.8.1v2.475h2.6c1.199.099 1.699.495 1.699 1.683v12.377c0 .99-.4 1.386-1.4 1.485-.9.1-1.899.1-2.799.1v2.376h12.495V63.11c-.9 0-1.699.1-2.599 0-1.4-.099-1.7-.495-1.7-1.782v-9.209c0-.297 0-.495.1-.89.401.296.6.494.8.692 4.698 4.357 9.396 8.813 14.094 13.17.2.198.5.495.7.495h4.498v-1.09-15.05c0-1.584.399-1.98 1.999-1.98h1.699V44.99H111.32c.1.891.1 1.683.1 2.575z"/><path fill="url(#paint1_linear)" d="M51.748 54.892c-1.8-.792-3.699-1.287-5.598-1.683-2.899-.595-5.797-.892-8.696-1.387-.9-.099-1.7-.495-2.499-.89-1.3-.694-1.3-1.981-.1-2.773.7-.396 1.4-.792 2.2-.99 3.298-.793 6.496-.595 9.595.99 1.6.792 3.198 1.881 3.798 3.663 0 .1.2.297.3.297h2.699v-7.327h-3.199c0 .198-.1.297-.1.495-.2.99-.4 1.09-1.4.693l-1.198-.594c-3.499-1.485-7.097-1.485-10.796-.99-2.398.297-4.597.891-6.597 2.377-2.898 2.178-3.198 7.129 1.1 8.812.5.198 1 .495 1.6.594 3.298.594 6.696 1.188 9.995 1.782 1.499.297 2.998.595 4.398.99.7.199 1.299.595 1.399 1.387.1.792-.3 1.386-1 1.782-.6.297-1.199.594-1.799.693-3.198.594-6.297.495-9.395-.495-2.2-.792-4.099-1.98-5.198-4.258-.1-.099-.3-.297-.4-.297h-2.699v7.625h3.299c.1-.297.1-.595.2-.892.2-.693.6-.89 1.3-.594 3.897 1.783 8.095 2.377 12.294 1.98 2.598-.197 4.997-.791 7.196-2.376 2.599-1.683 3.698-6.634-.7-8.614z"/><path fill="url(#paint2_linear)" d="M84.832 46.376C81.635 44.594 78.036 44.1 74.438 44c-3.698.099-7.296.495-10.595 2.475-3.298 1.882-5.098 4.753-5.098 8.516 0 3.861 1.8 6.634 4.998 8.515 2.599 1.585 5.498 2.179 8.496 2.278 4.098.198 8.197-.1 11.895-1.882 3.598-1.782 5.697-4.554 5.897-8.614.3-4.06-1.7-6.931-5.198-8.912zm-2.898 13.07c-.6 1.387-1.7 2.377-3.099 2.971-2.698 1.188-5.497 1.287-8.296.297-3.798-1.386-5.198-5.05-4.698-9.01.6-4.654 3.698-7.03 9.196-7.03 2.499.099 5.297.89 6.797 3.861 1.5 2.872 1.5 5.941.1 8.912z"/><path fill="url(#paint3_linear)" d="M145.305 44.891v2.575h1.099c.3 0 .6.198.9.297-.1.297-.2.693-.4.99a2215.34 2215.34 0 01-3.998 4.258c-.5.495-1 .495-1.499 0-1.3-1.387-2.699-2.872-3.999-4.357-.499-.594-.299-.99.5-1.09.5-.098 1-.098 1.6-.098V44.99h-13.694v2.575c.4 0 .799.099 1.099 0 1.3-.1 2.299.495 3.199 1.485 1.899 2.178 3.798 4.357 5.897 6.436 1.3 1.287 1.999 2.574 1.699 4.357-.1.396 0 .693 0 1.089 0 1.683-.299 1.98-2.099 2.08h-2.299v2.475h15.193v-.396-2.08c-1.099 0-2.099.1-3.098 0-1-.099-1.3-.495-1.4-1.485V58.06c0-.297.2-.693.4-.99 2.499-2.772 5.098-5.545 7.597-8.416.699-.792 1.499-1.188 2.599-1.188H156V44.89h-10.695z"/></g><defs><linearGradient id="paint0_linear" x1="27.38" x2="144.583" y1="44.403" y2="92.637" gradientUnits="userSpaceOnUse"><stop stop-color="#C47E5C"/><stop offset="1" stop-color="#E89E75"/></linearGradient><linearGradient id="paint1_linear" x1="27.38" x2="144.583" y1="44.403" y2="92.637" gradientUnits="userSpaceOnUse"><stop stop-color="#C47E5C"/><stop offset="1" stop-color="#E89E75"/></linearGradient><linearGradient id="paint2_linear" x1="27.38" x2="144.583" y1="44.403" y2="92.637" gradientUnits="userSpaceOnUse"><stop stop-color="#C47E5C"/><stop offset="1" stop-color="#E89E75"/></linearGradient><linearGradient id="paint3_linear" x1="27.38" x2="144.583" y1="44.403" y2="92.637" gradientUnits="userSpaceOnUse"><stop stop-color="#C47E5C"/><stop offset="1" stop-color="#E89E75"/></linearGradient><filter id="filter0_i" width="128" height="22" x="28" y="44" color-interpolation-filters="sRGB" filterUnits="userSpaceOnUse"><feFlood flood-opacity="0" result="BackgroundImageFix"/><feBlend in="SourceGraphic" in2="BackgroundImageFix" result="shape"/><feColorMatrix in="SourceAlpha" result="hardAlpha" values="0 0 0 0 0 0 0 0 0 0 0 0 0 0 0 0 0 0 127 0"/><feOffset dy="1"/><feComposite in2="hardAlpha" k2="-1" k3="1" operator="arithmetic"/><feColorMatrix values="0 0 0 0 1 0 0 0 0 1 0 0 0 0 1 0 0 0 1 0"/><feBlend in2="shape" mode="soft-light" result="effect1_innerShadow"/></filter></defs></svg>