<svg xmlns="http://www.w3.org/2000/svg" width="185" height="108" fill="none" viewBox="0 0 185 108"><g filter="url(#filter0_i)"><path fill="url(#paint0_linear)" d="M102.161 74.71c-14.316 0-26.73-4.778-32.237-11.647h17.32c4.906 3.484 12.815 5.675 21.825 5.675C123.986 68.738 136 62.566 136 55s-12.014-13.738-26.931-13.738c-9.01 0-16.92 2.29-21.825 5.675h-17.32c5.506-6.87 17.82-11.647 32.237-11.647 14.617 0 27.131 4.977 32.437 12.045C128.391 38.873 112.173 33 93.251 33 68.823 33 49 42.855 49 55s19.823 22 44.25 22c18.923 0 35.141-5.973 41.449-14.335-5.407 7.068-17.921 12.045-32.538 12.045zm12.915-23.891c.901-.896 1.902-1.493 3.204-1.692 2.202-.399 4.104.298 5.606 1.891.801.896 1.302 1.991 1.402 3.186.4 2.986-1.602 5.773-4.505 6.47-.201.1-.501.1-.701.1 0 0-.1 0-.1.1h-1.202c-.1-.1-.2-.1-.3-.1-2.403-.498-4.005-1.792-4.806-4.082-.7-2.19-.2-4.18 1.402-5.873zm-8.71-1.593c2.202-.498 4.205.1 5.807 1.693.1.1.2.298.4.398 0 .1.1.1.1.199-.801.597-1.502 1.194-2.302 1.792-.701-.896-1.502-1.294-2.603-1.294-.801 0-1.602.398-2.103.995-1.101 1.195-1.001 3.086.1 4.181 1.202 1.195 3.404 1.294 4.706-.498.801.598 1.601 1.095 2.402 1.693-.2.298-.5.597-.801.896-.8.796-1.802 1.294-3.003 1.592-.2 0-.4.1-.501.1 0 0-.1 0-.1.1h-1.201c-.1-.1-.2-.1-.3-.1-2.303-.398-4.305-2.09-4.906-4.48-.901-3.285 1.001-6.57 4.305-7.267zm-15.318.1h9.812c-.201.896-.401 1.792-.501 2.688h-6.107v1.692h4.906v2.489h-4.906v1.791h6.207c.2.896.401 1.792.501 2.688h-9.912V49.326zm-11.713 0h10.112v2.787h-3.404v8.561h-3.204v-8.56h-3.404c-.1-.996-.1-1.892-.1-2.788zM65.119 60.674h-3.204V49.326h3.103c.1.199.1 10.95.1 11.348zm4.805-6.172v6.172H66.82V49.326h3.004c1.602 1.99 3.103 3.982 4.705 5.973v-5.973h3.104v11.348H74.83a264.671 264.671 0 00-4.906-6.172z"/><path fill="url(#paint1_linear)" d="M119.381 57.986A3.153 3.153 0 00122.484 55c0-1.692-1.401-2.986-3.003-2.986-1.702 0-3.104 1.294-3.104 2.986-.1 1.792 1.402 2.986 3.004 2.986z"/></g><defs><linearGradient id="paint0_linear" x1="48.578" x2="139.945" y1="33.806" y2="46.584" gradientUnits="userSpaceOnUse"><stop stop-color="#C47E5C"/><stop offset="1" stop-color="#A96540"/></linearGradient><linearGradient id="paint1_linear" x1="48.578" x2="139.945" y1="33.806" y2="46.584" gradientUnits="userSpaceOnUse"><stop stop-color="#C47E5C"/><stop offset="1" stop-color="#A96540"/></linearGradient><filter id="filter0_i" width="87" height="44" x="49" y="33" color-interpolation-filters="sRGB" filterUnits="userSpaceOnUse"><feFlood flood-opacity="0" result="BackgroundImageFix"/><feBlend in="SourceGraphic" in2="BackgroundImageFix" result="shape"/><feColorMatrix in="SourceAlpha" result="hardAlpha" values="0 0 0 0 0 0 0 0 0 0 0 0 0 0 0 0 0 0 127 0"/><feOffset dy="1"/><feComposite in2="hardAlpha" k2="-1" k3="1" operator="arithmetic"/><feColorMatrix values="0 0 0 0 1 0 0 0 0 1 0 0 0 0 1 0 0 0 1 0"/><feBlend in2="shape" mode="soft-light" result="effect1_innerShadow"/></filter></defs></svg>