<svg xmlns="http://www.w3.org/2000/svg" width="185" height="108" fill="none" viewBox="0 0 185 108"><g filter="url(#filter0_i)"><path fill="url(#paint0_linear)" d="M105.543 63.664c0-.201 0-.302-.1-.403 0-.402-.1-.906-.1-1.308-.1-.806-.1-1.611-.2-2.316-.1-.805-.1-1.61-.2-2.416v-.202c-.1-.805-.1-1.61-.2-2.416-.1-.705-.1-1.41-.2-2.114v-.201c-.1-.806-.1-1.712-.2-2.517-.1-.705-.1-1.41-.2-2.114 0-.504-.1-1.108-.1-1.611 0-.101.1-.202.2-.202h13.707c1.2 0 2.201.403 3.101 1.108.7.604 1.201 1.41 1.201 2.416 0 1.913-.901 3.222-2.402 4.228a4.4 4.4 0 01-1.6.605c0 .1-.1.301-.1.402.2.1.4.202.5.202.6.2 1.1.503 1.601.906.9.805 1.5 1.711 1.6 2.92.1.704-.1 1.308-.4 1.912-.6 1.208-1.501 2.114-2.701 2.618-.7.302-1.401.402-2.201.402h-10.305c-.2.101-.4.101-.701.101zm6.203-10.37c.501.101 1.001 0 1.501-.1.4-.101.801-.202 1.101-.403.5-.201.9-.604 1.2-1.107.601-1.007.401-2.215-.6-3.02-.9-.706-1.901-.806-2.901-.806-.1 0-.201.1-.301.1v5.336zm-.2 2.517c0 .101-.1.202-.1.302v4.934c0 .1.1.2.1.302.301 0 .601-.101.801-.101.7-.1 1.4-.403 1.901-.805.6-.504 1-1.31.9-2.115-.1-.805-.5-1.51-1.2-1.913-.701-.402-1.501-.503-2.202-.604 0-.1-.1 0-.2 0z"/><path fill="url(#paint1_linear)" d="M156.669 45.24c2.401.1 4.602.906 6.403 2.618 1.301 1.208 2.201 2.718 2.601 4.43.2.906.4 1.812.3 2.718-.2 3.12-1.5 5.537-4.102 7.35a8.13 8.13 0 01-3.601 1.51c-3.002.503-5.703-.303-7.904-2.417-1.301-1.208-2.101-2.718-2.602-4.329-.2-.906-.4-1.913-.3-2.819.2-2.416 1.001-4.43 2.701-6.141 1.201-1.208 2.502-2.014 4.103-2.517.8-.302 1.6-.503 2.401-.403zm-2.301 15.303c.9 0 1.4-.201 1.7-.805.101-.101.2-.302.301-.403.8-1.41 1.6-2.718 2.401-4.128.7-1.107 1.3-2.315 2.001-3.423.4-.704.4-1.41-.1-2.013-.501-.604-1.201-1.007-2.001-1.007-.601 0-1.001.302-1.301.705-.1.1-.2.201-.2.402-1.401 2.517-2.902 4.934-4.302 7.45-.1.101-.2.303-.3.403-.3.504-.3 1.007 0 1.51.3.806 1 1.209 1.801 1.31z"/><path fill="url(#paint2_linear)" d="M89.235 45.744c.5-.101 7.704-.101 8.505 0 .1 0 .2 0 .3.1.1.202.1.403.2.705 1.5 5.638 3.001 11.377 4.602 17.014v.202h-.3c-1.401.1-4.502 0-5.003-.1-.4-.706-.6-1.612-1.1-2.316-.6-.101-4.802-.101-8.804 0h-.5c-.4.805-.601 1.61-.901 2.315-.4.1-2.501.1-3.302.1-.1 0-.2 0-.2-.1v-.201c2.101-5.94 4.302-11.88 6.503-17.72zm5.503 11.779c-.3-.705-.6-1.309-.8-1.913-.3-.604-.5-1.208-.8-1.913-.3-.604-.501-1.208-.801-1.913-.3-.604-.5-1.208-.8-1.913-.1.202-.1.302-.2.403-.901 2.316-1.802 4.53-2.702 6.846v.202c.4.301 5.403.301 6.103.2z"/><path fill="url(#paint3_linear)" d="M55.218 60.543c.4-.503.8-1.007 1.201-1.41.1.101.2.101.3.202.4.403.8.705 1.3 1.007.601.403 1.201.604 1.902.705.4.1.8 0 1.1-.202.6-.201.7-.705.5-1.41-.1-.301-.3-.603-.5-.905-.3-.403-.7-.806-1.2-1.108l-1.801-1.208c-.6-.403-1.3-.805-1.801-1.41-1.1-1.107-1.6-2.516-1.4-4.127.1-1.007.5-1.812 1-2.618 1.1-1.61 2.5-2.617 4.402-3.02.9-.202 1.7-.202 2.601-.1 1.901.301 3.602 1.006 5.303 2.113.1 0 .1.101.2.101-.1.302-.2.504-.4.604-.1.202-.2.403-.4.504-.1.2-.2.402-.5.604-.1 0-.2-.101-.3-.101-.401-.302-.901-.503-1.301-.806-.4-.301-.9-.402-1.401-.603-.5-.101-1-.101-1.5.1-.701.302-.901.906-.601 1.712.1.201.2.402.4.503.4.403.8.805 1.2 1.108.7.402 1.401.906 2.202 1.308.3.202.6.403 1 .604.8.504 1.4 1.209 1.901 2.014.8 1.309 1 2.617.5 4.128-.5 1.41-1.2 2.517-2.3 3.423-.901.704-2.002 1.208-3.102 1.51-.5.1-1.1.201-1.601.201-1.6.1-3.102-.302-4.502-1.208-.5-.302-.9-.705-1.401-1.007-.5-.302-.8-.704-1-1.208z"/><path fill="url(#paint4_linear)" d="M85.233 45.643c.1.302.2.503.3.805.2.907.5 1.813.7 2.719-.4.1-.8 0-1.2 0H81.532c0 .1-.1.302-.1.402-.1 1.007-.2 2.115-.3 3.121-.1.906-.2 1.813-.2 2.82l-.301 3.02c-.1.906-.2 1.913-.3 2.819-.1.704-.1 1.409-.2 2.114 0 .1 0 .1-.1.201h-.3c-2.201.1-4.603 0-5.103-.1-.1-.202-.1-.403-.1-.605-.1-1.006-.2-1.913-.2-2.92-.1-.704-.1-1.409-.2-2.114-.1-.805-.1-1.61-.2-2.315v-.201c-.1-.806-.1-1.51-.2-2.316-.1-.705-.1-1.41-.2-2.114 0-.302 0-.705-.1-1.007 0-.201-.1-.403-.1-.604h-4.202c-.1-.201-.1-.302 0-.503l.6-2.719c.1-.402.2-.402.6-.402h14.207c.1-.101.4-.101.7-.101z"/><path fill="url(#paint5_linear)" d="M137.659 63.664c-.1-.503-.1-.906-.1-1.309-.1-.805-.2-1.711-.2-2.517v-.201l-.3-3.02c-.1-.806-.1-1.51-.2-2.316-.1-.705-.1-1.309-.2-2.013v-.302c-.1-.806-.1-1.51-.2-2.316-.1-1.007-.2-2.114-.3-3.121 0-.302-.1-.503-.1-.805.1-.202.3-.101.4-.101H144.263c0 .1.1.302.1.403 0 .402-.1.805-.1 1.107v.202c-.101.704-.1 1.409-.201 2.114-.1.704-.1 1.309-.2 2.013 0 .504-.1 1.007-.1 1.51-.1.705-.1 1.41-.2 2.115-.1.704-.1 1.308-.2 2.013v.1c0 .504-.1 1.108-.1 1.612v.704H147.364c0 .101.1.202.1.302v3.524c-.1.1-.3.1-.4.1h-8.604c-.3.202-.501.202-.801.202z"/><path fill="url(#paint6_linear)" d="M18 54.402c.1-4.027 1.5-7.55 4.402-10.37 2.801-2.718 6.203-4.128 10.005-4.027 4.002 0 7.504 1.51 10.305 4.43 2.701 2.819 4.002 6.141 4.002 10.067 0 1.913-.4 3.625-1.1 5.437-.7 1.812-1.801 3.322-3.102 4.732-1.3 1.41-2.901 2.416-4.702 3.222-1.701.704-3.602 1.107-5.403 1.107-1.8 0-3.602-.302-5.402-1.007-1.801-.704-3.302-1.711-4.703-3.12-1.4-1.41-2.501-2.92-3.201-4.733C18.4 58.228 18 56.415 18 54.402zm27.113.1c0-6.946-5.502-12.785-12.706-12.785-2.301 0-4.402.604-6.403 1.812-1.901 1.107-3.402 2.617-4.602 4.63-1.2 2.014-1.801 4.129-1.801 6.444 0 3.423 1.2 6.444 3.602 8.96 2.5 2.517 5.502 3.826 9.104 3.826 7.204-.1 12.806-5.94 12.806-12.886z"/><path fill="url(#paint7_linear)" d="M124.953 45.744h8.204c.2.201.1.402.1.704-.1.907-.2 1.813-.2 2.618-.1.705-.1 1.309-.2 2.014 0 .503-.1 1.006-.1 1.51-.1.704-.1 1.41-.2 2.114-.1.705-.1 1.309-.2 2.013v.302l-.3 3.625c-.101.906-.201 1.711-.201 2.617 0 .101 0 .202-.1.302h-.3c-1.4.101-4.302 0-4.802-.1-.1-.1-.1-.302-.1-.504-.1-.805-.1-1.61-.2-2.315-.1-.705-.1-1.309-.2-1.913v-.302c-.1-.906-.2-1.812-.2-2.819-.101-.705-.101-1.41-.201-2.114-.1-.806-.1-1.51-.2-2.316v-.302c-.1-.805-.1-1.51-.2-2.315-.1-.705-.1-1.41-.2-2.115-.2-.1-.2-.402-.2-.704z"/><path fill="url(#paint8_linear)" d="M35.609 52.288l.6-.302c.2-.101.4-.101.6-.101.1.1.3.201.4.302.6 0 1.101-.302 1.801-.1 0 .2 0 .301-.1.402 0 .201-.1.403-.1.604 0 .604-.1.403.4.906 0 .604-.4 1.007-.6 1.41.1.302.1.302.7.402.1.202 0 .403-.1.604l-.4.403c-.4.403-.8.806-1.1 1.208-.1.1-.2.202-.2.302-.1.202-.2.403-.1.705 0 .1.1.201.1.201.3.101.6 0 .8 0 .9-.302 1.8-.503 2.701-.805.1-.1.3-.201.5-.1-.5.503-1 1.006-1.4 1.51-.4.503-.8 1.107-1.1 1.61h-.1H24.902c-.7-.503-1-1.309-1.1-2.114-.1-.705.1-1.41.6-1.913.1-.201.3-.302.4-.503.7-.604 1.401-1.309 2.001-2.114.5-.605.9-1.108 1.401-1.712.4-.503.8-1.107 1.1-1.712.3-.603.4-1.208.4-1.812 0-.302-.1-.604-.4-.805-.1-.1-.2-.1-.3-.201-.2-.202-.4-.302-.7-.202-.2 0-.5 0-.7-.1 0-.101-.1-.101-.1-.202v-.201c.2 0 .4-.1.6-.1h.3c.1 0 .2 0 .2-.202 0-.1-.1-.201-.2-.201h-.8c-.2-.303-.1-.504.1-.806.3-.302.6-.403 1-.302.3.1.5.201.8.302.4.201.701.503 1.001.806.4.402.5.805.5 1.308-.1.504-.1 1.108-.2 1.611-.1.403-.2.705-.4 1.108-.6.906-1.1 1.912-1.7 2.819-.3.503-.701 1.006-1.101 1.51-.4.402-.6.906-.8 1.41-.2.502 0 1.006.4 1.308.3.302.6.302 1 .201.4-.201.6-.503.8-.805.4-.806.9-1.611 1.301-2.517.2-.503.6-.906 1-1.208.3-.202.6-.403.901-.302.3 0 .6-.1.9-.202.2-.1.3-.2.4-.302.1-.503.5-.704.901-1.006.1-.101.3-.202.5-.202.3 0 .5 0 .6.302 0-.1 0-.1.1-.1z"/><path fill="url(#paint9_linear)" d="M27.005 47.556c0 .1.1.201.1.201 0 .403-.1.403-.4.504h-.701c.1-.303.3-.504 1-.705z"/></g><defs><linearGradient id="paint0_linear" x1="17.283" x2="157.482" y1="40.531" y2="91.141" gradientUnits="userSpaceOnUse"><stop stop-color="#AC6843"/><stop offset="1" stop-color="#E89E75"/></linearGradient><linearGradient id="paint1_linear" x1="17.283" x2="157.482" y1="40.531" y2="91.141" gradientUnits="userSpaceOnUse"><stop stop-color="#AC6843"/><stop offset="1" stop-color="#E89E75"/></linearGradient><linearGradient id="paint2_linear" x1="17.283" x2="157.482" y1="40.531" y2="91.141" gradientUnits="userSpaceOnUse"><stop stop-color="#AC6843"/><stop offset="1" stop-color="#E89E75"/></linearGradient><linearGradient id="paint3_linear" x1="17.283" x2="157.482" y1="40.531" y2="91.141" gradientUnits="userSpaceOnUse"><stop stop-color="#AC6843"/><stop offset="1" stop-color="#E89E75"/></linearGradient><linearGradient id="paint4_linear" x1="17.283" x2="157.482" y1="40.531" y2="91.141" gradientUnits="userSpaceOnUse"><stop stop-color="#AC6843"/><stop offset="1" stop-color="#E89E75"/></linearGradient><linearGradient id="paint5_linear" x1="17.283" x2="157.482" y1="40.531" y2="91.141" gradientUnits="userSpaceOnUse"><stop stop-color="#AC6843"/><stop offset="1" stop-color="#E89E75"/></linearGradient><linearGradient id="paint6_linear" x1="17.283" x2="157.482" y1="40.531" y2="91.141" gradientUnits="userSpaceOnUse"><stop stop-color="#AC6843"/><stop offset="1" stop-color="#E89E75"/></linearGradient><linearGradient id="paint7_linear" x1="17.283" x2="157.482" y1="40.531" y2="91.141" gradientUnits="userSpaceOnUse"><stop stop-color="#AC6843"/><stop offset="1" stop-color="#E89E75"/></linearGradient><linearGradient id="paint8_linear" x1="17.283" x2="157.482" y1="40.531" y2="91.141" gradientUnits="userSpaceOnUse"><stop stop-color="#AC6843"/><stop offset="1" stop-color="#E89E75"/></linearGradient><linearGradient id="paint9_linear" x1="17.283" x2="157.482" y1="40.531" y2="91.141" gradientUnits="userSpaceOnUse"><stop stop-color="#AC6843"/><stop offset="1" stop-color="#E89E75"/></linearGradient><filter id="filter0_i" width="148" height="29" x="18" y="40" color-interpolation-filters="sRGB" filterUnits="userSpaceOnUse"><feFlood flood-opacity="0" result="BackgroundImageFix"/><feBlend in="SourceGraphic" in2="BackgroundImageFix" result="shape"/><feColorMatrix in="SourceAlpha" result="hardAlpha" values="0 0 0 0 0 0 0 0 0 0 0 0 0 0 0 0 0 0 127 0"/><feOffset dy="1"/><feComposite in2="hardAlpha" k2="-1" k3="1" operator="arithmetic"/><feColorMatrix values="0 0 0 0 1 0 0 0 0 1 0 0 0 0 1 0 0 0 1 0"/><feBlend in2="shape" mode="soft-light" result="effect1_innerShadow"/></filter></defs></svg>