<svg xmlns="http://www.w3.org/2000/svg" width="185" height="108" fill="none" viewBox="0 0 185 108"><g filter="url(#filter0_i)"><path fill="url(#paint0_linear)" d="M96.497 73.741h-3.29c-.1 0-.2-.1-.3-.2-2.194-2.692-4.288-5.385-6.482-7.979-.1-.1-.2-.299-.399-.498v8.677h-6.282c-.2 0-.3-.1-.399-.3-.299-.697-.498-1.396-.797-2.094-.1-.2-.1-.2-.3-.2h-4.587c-.2 0-.299.1-.299.2-.3.698-.498 1.397-.798 2.195 0 .1-.2.199-.299.199H68.675l.3-.898c1.595-4.388 3.29-8.877 4.886-13.265.1-.2.2-.3.399-.3h3.29c.2 0 .3.1.4.3 1.395 3.69 2.891 7.48 4.287 11.17 0 .1.1.2.2.2v-11.67H85.927c.2 0 .299.1.399.2l6.282 7.78c.1.1.1.2.3.3v-8.28H96.396c.2 0 .4.1.499.2 2.094 2.593 4.188 5.187 6.183 7.78.099.1.099.1.199.3v-8.28h3.69v14.463h-3.092c-.199 0-.299-.1-.399-.2-2.193-2.692-4.288-5.385-6.481-8.078-.1-.1-.2-.2-.3-.4-.199 2.893-.199 5.785-.199 8.678zm-19.146-5.486c-.499-1.296-.997-2.593-1.396-3.89h-.1c-.499 1.297-.897 2.594-1.396 3.89h2.892z"/><path fill="url(#paint1_linear)" d="M128.307 73.741h-3.689v-11.17h-2.992v11.17h-3.689v-11.17h-6.582v2.393h4.188v3.291h-4.188v2.294h4.488v3.292h-8.177V59.378H131v3.192h-2.693v11.171z"/><path fill="url(#paint2_linear)" d="M69.772 64.266h-3.889c-.1 0-.2-.1-.3-.2-1.295-1.496-3.39-1.895-5.085-.898a3.838 3.838 0 00-1.695 4.39c.499 1.695 1.994 2.891 3.69 2.891 1.595 0 2.792-.698 3.59-2.094 0-.1.1-.1.1-.3h-4.787v-3.091h8.576c.797 3.49-1.197 7.68-5.385 8.777-4.089 1.097-8.377-1.396-9.374-5.486-.997-4.289 1.596-8.378 5.883-9.276 4.189-.698 7.779 2.095 8.676 5.287z"/><path fill="url(#paint3_linear)" d="M116.341 35.74h-6.482c-.099-2.793-.598-5.486-1.595-8.079-.997-2.593-2.393-4.887-4.188-7.082.099-.1.199-.1.299-.2.897-.498 1.795-.897 2.692-1.395.2-.1.299 0 .499.1a19.444 19.444 0 014.188 3.89 21.484 21.484 0 014.388 9.973c.099.698.199 1.397.199 2.194v.599z"/><path fill="url(#paint4_linear)" d="M116.341 36.837c-.299 6.683-3.091 11.969-8.077 16.158-1.197-.698-2.393-1.297-3.59-1.995 3.291-4.189 4.986-8.877 5.086-14.163h6.581z"/><path fill="url(#paint5_linear)" d="M94.403 32.349h-9.075v3.49H81.54c0-.498 0-1.096.1-1.595.299-2.893.997-5.586 2.194-8.179.199-.499.2-.499.797-.499 3.49.2 6.283 1.696 8.377 4.489.1.1.2.2.399.2h.997v2.094z"/><path fill="url(#paint6_linear)" d="M81.54 36.837h3.788v3.89h8.776c-.3.499-.4.898-.698 1.197-2.094 3.291-5.086 4.987-8.975 5.087-.2 0-.399-.1-.499-.3-1.495-2.992-2.194-6.183-2.393-9.575v-.299z"/><path fill="url(#paint7_linear)" d="M108.762 35.74h-2.891c-.1-1.197-.2-2.294-.299-3.491H95.6v-2.095h9.373a19.602 19.602 0 00-4.786-8.378c.498-.1.997-.299 1.495-.399.499-.1.898-.299 1.297-.399.199-.1.199 0 .399.1 2.493 3.092 4.188 6.583 4.986 10.573.199 1.296.299 2.593.498 3.89-.099.1-.1.199-.1.199z"/><path fill="url(#paint8_linear)" d="M83.035 25.566c-.798 1.696-1.396 3.292-1.795 4.988-.399 1.695-.598 3.39-.698 5.186h-6.98c.199-2.593 1.196-4.887 2.991-6.882 1.695-1.796 3.89-2.893 6.482-3.292z"/><path fill="url(#paint9_linear)" d="M80.542 36.837c.1 3.59.897 6.882 2.493 10.074-4.089-.3-9.075-3.99-9.474-10.074h6.98z"/><path fill="url(#paint10_linear)" d="M107.366 53.693c-2.393 1.696-4.986 2.893-7.877 3.491-3.191.698-6.382.599-9.574-.1 1.496-.598 2.992-1.197 4.488-1.695 0 .299 0 .698.1 1.097 0 .399.199.499.498.499.3 0 .499-.2.499-.599V54.89c0-.1.1-.3.2-.3 1.595-.997 2.99-2.194 4.287-3.49.2-.2.299-.2.599-.2.797.2 1.595.4 2.393.699.099 0 .199.1.399.1-.599.698-1.197 1.296-1.795 1.894-.599.599-1.297 1.197-1.995 1.796l-.299.299c-.1.1-.1.3-.1.3.1.099.3.099.4.099.199-.1.299-.2.498-.3a33.22 33.22 0 003.889-3.59c.1-.1.199-.2.299-.1.997.499 1.995.998 2.992 1.596-.1-.1 0-.1.099 0z"/><path fill="url(#paint11_linear)" d="M105.771 36.837h2.991c-.099.798-.099 1.496-.199 2.294-.399 3.092-1.296 5.984-2.892 8.678-.498.897-1.196 1.795-1.795 2.693-.099.199-.199.199-.399.1-.797-.3-1.595-.5-2.493-.699-.099 0-.099 0-.199-.1 1.496-1.895 2.692-3.89 3.59-6.084.897-2.194 1.296-4.488 1.396-6.882z"/><path fill="url(#paint12_linear)" d="M89.915 15.592c3.092-.698 6.183-.798 9.274-.2 2.593.5 4.986 1.397 7.18 2.893-.199.1-.299.2-.399.3-.797.399-1.595.797-2.393 1.097-.199.1-.299.1-.399-.1-1.196-1.197-2.393-2.294-3.79-3.192-.199-.1-.298-.2-.498-.299-.1 0-.299 0-.299.1s0 .3.1.399c.299.3.598.498.897.798.898.798 1.795 1.695 2.693 2.493.099.1.099.2.299.3-.399.1-.698.199-1.097.299-.598.1-1.097.299-1.695.399-.3.1-.499 0-.798-.2-.798-.698-1.596-1.296-2.393-1.995l-.898-.598c-.1-.1-.2-.2-.2-.3v-1.595c0-.4-.498-.599-.797-.3-.1.1-.2.2-.2.4v1.197c-1.595-.699-3.09-1.297-4.587-1.896z"/></g><defs><linearGradient id="paint0_linear" x1="54.632" x2="135.337" y1="16.081" y2="23.434" gradientUnits="userSpaceOnUse"><stop stop-color="#AC6843"/><stop offset="1" stop-color="#E89E75"/></linearGradient><linearGradient id="paint1_linear" x1="54.632" x2="135.337" y1="16.081" y2="23.434" gradientUnits="userSpaceOnUse"><stop stop-color="#AC6843"/><stop offset="1" stop-color="#E89E75"/></linearGradient><linearGradient id="paint2_linear" x1="54.632" x2="135.337" y1="16.081" y2="23.434" gradientUnits="userSpaceOnUse"><stop stop-color="#AC6843"/><stop offset="1" stop-color="#E89E75"/></linearGradient><linearGradient id="paint3_linear" x1="54.632" x2="135.337" y1="16.081" y2="23.434" gradientUnits="userSpaceOnUse"><stop stop-color="#AC6843"/><stop offset="1" stop-color="#E89E75"/></linearGradient><linearGradient id="paint4_linear" x1="54.632" x2="135.337" y1="16.081" y2="23.434" gradientUnits="userSpaceOnUse"><stop stop-color="#AC6843"/><stop offset="1" stop-color="#E89E75"/></linearGradient><linearGradient id="paint5_linear" x1="54.632" x2="135.337" y1="16.081" y2="23.434" gradientUnits="userSpaceOnUse"><stop stop-color="#AC6843"/><stop offset="1" stop-color="#E89E75"/></linearGradient><linearGradient id="paint6_linear" x1="54.632" x2="135.337" y1="16.081" y2="23.434" gradientUnits="userSpaceOnUse"><stop stop-color="#AC6843"/><stop offset="1" stop-color="#E89E75"/></linearGradient><linearGradient id="paint7_linear" x1="54.632" x2="135.337" y1="16.081" y2="23.434" gradientUnits="userSpaceOnUse"><stop stop-color="#AC6843"/><stop offset="1" stop-color="#E89E75"/></linearGradient><linearGradient id="paint8_linear" x1="54.632" x2="135.337" y1="16.081" y2="23.434" gradientUnits="userSpaceOnUse"><stop stop-color="#AC6843"/><stop offset="1" stop-color="#E89E75"/></linearGradient><linearGradient id="paint9_linear" x1="54.632" x2="135.337" y1="16.081" y2="23.434" gradientUnits="userSpaceOnUse"><stop stop-color="#AC6843"/><stop offset="1" stop-color="#E89E75"/></linearGradient><linearGradient id="paint10_linear" x1="54.632" x2="135.337" y1="16.081" y2="23.434" gradientUnits="userSpaceOnUse"><stop stop-color="#AC6843"/><stop offset="1" stop-color="#E89E75"/></linearGradient><linearGradient id="paint11_linear" x1="54.632" x2="135.337" y1="16.081" y2="23.434" gradientUnits="userSpaceOnUse"><stop stop-color="#AC6843"/><stop offset="1" stop-color="#E89E75"/></linearGradient><linearGradient id="paint12_linear" x1="54.632" x2="135.337" y1="16.081" y2="23.434" gradientUnits="userSpaceOnUse"><stop stop-color="#AC6843"/><stop offset="1" stop-color="#E89E75"/></linearGradient><filter id="filter0_i" width="76" height="59" x="55" y="15" color-interpolation-filters="sRGB" filterUnits="userSpaceOnUse"><feFlood flood-opacity="0" result="BackgroundImageFix"/><feBlend in="SourceGraphic" in2="BackgroundImageFix" result="shape"/><feColorMatrix in="SourceAlpha" result="hardAlpha" values="0 0 0 0 0 0 0 0 0 0 0 0 0 0 0 0 0 0 127 0"/><feOffset dy="1"/><feComposite in2="hardAlpha" k2="-1" k3="1" operator="arithmetic"/><feColorMatrix values="0 0 0 0 1 0 0 0 0 1 0 0 0 0 1 0 0 0 1 0"/><feBlend in2="shape" mode="soft-light" result="effect1_innerShadow"/></filter></defs></svg>