<svg xmlns="http://www.w3.org/2000/svg" width="185" height="108" fill="none" viewBox="0 0 185 108"><g filter="url(#filter0_i)"><path fill="url(#paint0_linear)" d="M115.657 66.756h-8.467c-.598 0-.797.3-.896.797-.399 2.99-.897 5.879-1.295 8.868-.1.697-.399 1.096-1.096 1.195h-.697V82h2.291v-2.391h9.263V81.9h2.291v-4.383s-.896-.1-1.394-.1v-10.66zm-2.391 10.66h-6.076l1.494-8.667h4.582v8.668z"/><path fill="url(#paint1_linear)" d="M75.814 66.756h-8.666V79.51h8.566a1.68 1.68 0 001.694-1.694V73.93c0-.399-.399-.797-.797-.797.398 0 .797-.399.797-.797V68.45c.1-.897-.698-1.694-1.594-1.694zm-.598 9.963a.893.893 0 01-.896.897h-4.88v-3.288h4.88c.498 0 .896.399.896.897v1.495zm0-5.579a.893.893 0 01-.896.897h-4.88v-3.288h4.88c.498 0 .896.398.896.897v1.494z"/><path fill="url(#paint2_linear)" d="M80.197 79.51h9.562v-1.993h-7.271v-3.388h5.876v-2.092h-5.876v-3.388h7.27v-1.893h-9.561V79.51z"/><path fill="url(#paint3_linear)" d="M75.615 50.815l15.938-11.956 15.936 11.956-5.479-19.428 4.483-3.487H96.034l3.984 11.457-8.465-5.978-8.468 5.978L87.07 27.9H76.61l4.483 3.487-5.478 19.428z"/><path fill="url(#paint4_linear)" d="M91.552 1l-6.475 18.93H65.156l5.976 3.985h16.435l3.985-10.96 3.984 10.96h16.435l5.977-3.985H98.026L91.552 1z"/><path fill="url(#paint5_linear)" d="M125.717 66.657h-2.988l-4.184 12.852h2.49l.797-2.391h4.981l.697 2.391H130l-4.283-12.852zm-3.287 8.17l1.793-5.78 1.793 5.78h-3.586z"/><path fill="url(#paint6_linear)" d="M62.566 66.756h-6.873A1.68 1.68 0 0054 68.45v2.092h2.29v-.896c0-.499.4-.897.897-.897h3.985c.498 0 .896.398.896.897v1.494a.893.893 0 01-.896.897h-2.79v2.291h2.79c.498 0 .896.399.896.897v1.495a.893.893 0 01-.896.896h-3.985a.893.893 0 01-.896-.897v-.996H54v2.093a1.68 1.68 0 001.693 1.693h6.873c.996 0 1.694-.797 1.694-1.694V73.93c0-.399-.399-.797-.797-.797.398 0 .797-.399.797-.797V68.45c.1-.897-.698-1.694-1.694-1.694z"/><path fill="url(#paint7_linear)" d="M100.218 66.756h-6.873c-.996 0-1.694.797-1.694 1.694v2.092h2.291v-.896c0-.499.399-.897.897-.897h3.984c.498 0 .897.398.897.897v1.494a.893.893 0 01-.897.897h-2.789v2.291h2.79c.497 0 .896.399.896.897v1.495a.893.893 0 01-.897.896H94.84a.893.893 0 01-.897-.897v-.996h-2.39v2.093a1.68 1.68 0 001.693 1.693h6.873c.996 0 1.693-.797 1.693-1.694V73.93c0-.399-.398-.797-.797-.797.399 0 .797-.399.797-.797V68.45c.1-.897-.597-1.694-1.593-1.694z"/><path fill="url(#paint8_linear)" d="M56.671 59.583h-2.205v.363h.878v2.726h.426v-2.726h.856l.045-.363z"/><path fill="url(#paint9_linear)" d="M64.796 59.583h-1.672v3.089h1.708v-.34H63.55v-1.059h1.04v-.34h-1.04v-1.01h1.196l.05-.34z"/><path fill="url(#paint10_linear)" d="M71.775 59.583l-.201 1.721c-.095.803-.14.964-.476 1.09l.103.332c.516-.166.677-.35.798-1.453l.148-1.332h.968v2.73h.426v-3.088h-1.766z"/><path fill="url(#paint11_linear)" d="M82.072 59.583H80.4v3.089h1.708v-.34h-1.282v-1.059h1.04v-.34h-1.04v-1.01h1.197l.049-.34z"/><path fill="url(#paint12_linear)" d="M90.822 59.583h-.448l-.762 1.291h-.426v-1.291h-.426v3.089h.426v-1.448h.421l.807 1.448h.493l-.941-1.641.856-1.448z"/><path fill="url(#paint13_linear)" d="M99.006 62.672h.448l-.986-3.09h-.538l-.99 3.09h.43l.233-.776h1.17l.233.776zm-1.3-1.121l.484-1.614.48 1.614h-.964z"/><path fill="url(#paint14_linear)" d="M107.618 62.672h.426v-3.09h-.426v1.292h-1.3v-1.291h-.426v3.089h.426v-1.448h1.3v1.448z"/><path fill="url(#paint15_linear)" d="M116.545 62.672h.448l-.986-3.09h-.538l-.99 3.09h.43l.233-.776h1.17l.233.776zm-1.3-1.121l.484-1.614.48 1.614h-.964z"/><path fill="url(#paint16_linear)" d="M123.722 59.583l-.201 1.721c-.094.803-.139.964-.475 1.09l.103.332c.515-.166.677-.35.798-1.453l.147-1.332h.969v2.73h.425v-3.088h-1.766z"/></g><defs><linearGradient id="paint0_linear" x1="54" x2="45.821" y1="82" y2="10.65" gradientUnits="userSpaceOnUse"><stop stop-color="#A36141"/><stop offset="1" stop-color="#E89E75"/></linearGradient><linearGradient id="paint1_linear" x1="54" x2="45.821" y1="82" y2="10.65" gradientUnits="userSpaceOnUse"><stop stop-color="#A36141"/><stop offset="1" stop-color="#E89E75"/></linearGradient><linearGradient id="paint2_linear" x1="54" x2="45.821" y1="82" y2="10.65" gradientUnits="userSpaceOnUse"><stop stop-color="#A36141"/><stop offset="1" stop-color="#E89E75"/></linearGradient><linearGradient id="paint3_linear" x1="54" x2="45.821" y1="82" y2="10.65" gradientUnits="userSpaceOnUse"><stop stop-color="#A36141"/><stop offset="1" stop-color="#E89E75"/></linearGradient><linearGradient id="paint4_linear" x1="54" x2="45.821" y1="82" y2="10.65" gradientUnits="userSpaceOnUse"><stop stop-color="#A36141"/><stop offset="1" stop-color="#E89E75"/></linearGradient><linearGradient id="paint5_linear" x1="54" x2="45.821" y1="82" y2="10.65" gradientUnits="userSpaceOnUse"><stop stop-color="#A36141"/><stop offset="1" stop-color="#E89E75"/></linearGradient><linearGradient id="paint6_linear" x1="54" x2="45.821" y1="82" y2="10.65" gradientUnits="userSpaceOnUse"><stop stop-color="#A36141"/><stop offset="1" stop-color="#E89E75"/></linearGradient><linearGradient id="paint7_linear" x1="54" x2="45.821" y1="82" y2="10.65" gradientUnits="userSpaceOnUse"><stop stop-color="#A36141"/><stop offset="1" stop-color="#E89E75"/></linearGradient><linearGradient id="paint8_linear" x1="54" x2="45.821" y1="82" y2="10.65" gradientUnits="userSpaceOnUse"><stop stop-color="#A36141"/><stop offset="1" stop-color="#E89E75"/></linearGradient><linearGradient id="paint9_linear" x1="54" x2="45.821" y1="82" y2="10.65" gradientUnits="userSpaceOnUse"><stop stop-color="#A36141"/><stop offset="1" stop-color="#E89E75"/></linearGradient><linearGradient id="paint10_linear" x1="54" x2="45.821" y1="82" y2="10.65" gradientUnits="userSpaceOnUse"><stop stop-color="#A36141"/><stop offset="1" stop-color="#E89E75"/></linearGradient><linearGradient id="paint11_linear" x1="54" x2="45.821" y1="82" y2="10.65" gradientUnits="userSpaceOnUse"><stop stop-color="#A36141"/><stop offset="1" stop-color="#E89E75"/></linearGradient><linearGradient id="paint12_linear" x1="54" x2="45.821" y1="82" y2="10.65" gradientUnits="userSpaceOnUse"><stop stop-color="#A36141"/><stop offset="1" stop-color="#E89E75"/></linearGradient><linearGradient id="paint13_linear" x1="54" x2="45.821" y1="82" y2="10.65" gradientUnits="userSpaceOnUse"><stop stop-color="#A36141"/><stop offset="1" stop-color="#E89E75"/></linearGradient><linearGradient id="paint14_linear" x1="54" x2="45.821" y1="82" y2="10.65" gradientUnits="userSpaceOnUse"><stop stop-color="#A36141"/><stop offset="1" stop-color="#E89E75"/></linearGradient><linearGradient id="paint15_linear" x1="54" x2="45.821" y1="82" y2="10.65" gradientUnits="userSpaceOnUse"><stop stop-color="#A36141"/><stop offset="1" stop-color="#E89E75"/></linearGradient><linearGradient id="paint16_linear" x1="54" x2="45.821" y1="82" y2="10.65" gradientUnits="userSpaceOnUse"><stop stop-color="#A36141"/><stop offset="1" stop-color="#E89E75"/></linearGradient><filter id="filter0_i" width="76" height="81" x="54" y="1" color-interpolation-filters="sRGB" filterUnits="userSpaceOnUse"><feFlood flood-opacity="0" result="BackgroundImageFix"/><feBlend in="SourceGraphic" in2="BackgroundImageFix" result="shape"/><feColorMatrix in="SourceAlpha" result="hardAlpha" values="0 0 0 0 0 0 0 0 0 0 0 0 0 0 0 0 0 0 127 0"/><feOffset dy="1"/><feComposite in2="hardAlpha" k2="-1" k3="1" operator="arithmetic"/><feColorMatrix values="0 0 0 0 1 0 0 0 0 1 0 0 0 0 1 0 0 0 1 0"/><feBlend in2="shape" mode="soft-light" result="effect1_innerShadow"/></filter></defs></svg>