<svg xmlns="http://www.w3.org/2000/svg" width="185" height="108" fill="none" viewBox="0 0 185 108"><g filter="url(#filter0_i)"><path fill="url(#paint0_linear)" d="M103.611 39.6c-.1-.4-1.6-1.7-2.3-3-.7-1.2-.8-2-1.1-2.3.1 1.7 1.4 3.7 3.4 5.3z"/><path fill="url(#paint1_linear)" d="M99.81 34.9c.301 1.8 1.801 4.2 3.901 5.8-.1-.5-1.8-2-2.6-3.3-.8-1.3-1-2.1-1.3-2.5z"/><path fill="url(#paint2_linear)" d="M104.511 47.5c0 .2.7.8 1 1.4.4.6.5 1 .6 1.1 0-.8-.6-1.8-1.6-2.5z"/><path fill="url(#paint3_linear)" d="M104.411 48.4c0 .3.8.9 1.2 1.7.4.7.4.9.6 1.1-.1-1.1-.6-1.9-1.8-2.8z"/><path fill="url(#paint4_linear)" d="M102.311 30.1c0 1 .7 2.3 1.8 3.2 0-.2-.7-1-1.1-1.7-.5-.8-.6-1.4-.7-1.5z"/><path fill="url(#paint5_linear)" d="M101.811 30.7c0 1.1.8 2.5 2.1 3.5 0-.3-.9-1.1-1.3-1.9-.5-.8-.6-1.4-.8-1.6z"/><path fill="url(#paint6_linear)" d="M66.01 54.2l1.6-1.6c-.6.3-1.2.8-1.6 1.6z"/><path fill="url(#paint7_linear)" d="M109.611 33c-.1-.7-.3-1.4-.2-1.9 0-.3-.1-.4-.1-.4-.1 0 0 .7 0 1.1 0 .4 0 .7.2 1 0 .2.1.3.1.2z"/><path fill="url(#paint8_linear)" d="M77.11 61c.3-1.1.7-2.3 1.2-3.5-.6 1.2-1.2 2.4-1.2 3.5z"/><path fill="url(#paint9_linear)" d="M109.911 33.1c.2.3.3.3.2.2-.1-.7-.3-1.2-.3-1.7 0-.3-.1-.3-.1-.4-.1-.1 0 .6 0 1 0 .3 0 .5.2.9z"/><path fill="url(#paint10_linear)" d="M110.511 33.4c.1.2.2.3.2.2-.1-.6-.3-1-.3-1.5 0-.2 0-.3-.1-.3s0 .6 0 .8c0 .3 0 .5.2.8z"/><path fill="url(#paint11_linear)" d="M91.81 26.4c.4.1.7.1 1.1.1.6-.3.5-.5-.1-.7-.3-.1-.7-.1-1 0 .2.4.1.4 0 .6zm.9-.3c.1.1.1.2 0 .3h-.4c-.1-.1 0-.2-.1-.3.1-.1.3-.1.5 0z"/><path fill="url(#paint12_linear)" d="M109.011 32.7c-.1-.8-.3-1.5-.2-2.2 0-.3 0-.4-.1-.5-.1-.1 0 .8 0 1.2 0 .4 0 .7.2 1.1 0 .4.1.5.1.4z"/><path fill="url(#paint13_linear)" d="M103.611 38.5c-.1-.4-1.4-1.6-2.1-2.8-.7-1.2-.8-1.9-1.1-2.2.1 1.6 1.4 3.5 3.2 5z"/><path fill="url(#paint14_linear)" d="M103.611 37.4c-.1-.4-1.3-1.5-1.9-2.6-.6-1.1-.7-1.8-1-2 .1 1.5 1.3 3.3 2.9 4.6z"/><path fill="url(#paint15_linear)" d="M103.711 36.3c-.1-.3-1.2-1.3-1.7-2.3-.6-1-.7-1.7-.9-1.9.1 1.4 1 3 2.6 4.2z"/><path fill="url(#paint16_linear)" d="M108.411 32.2c-.1-.7-.2-1.2-.1-1.7 0-.3 0-.3-.1-.4 0-.1 0 .6-.1 1 0 .3 0 .6.1.9.1.3.2.3.2.2z"/><path fill="url(#paint17_linear)" d="M107.911 31.8c0-.5-.1-1 0-1.4 0-.2 0-.3-.1-.3s-.1.5-.1.8c0 .2 0 .4.1.7 0 .2.1.3.1.2z"/><path fill="url(#paint18_linear)" d="M101.411 31.4c.1 1.2 1 2.8 2.4 3.9-.1-.3-1-1.2-1.5-2.2-.6-.9-.7-1.5-.9-1.7z"/><path fill="url(#paint19_linear)" d="M127.111 61.5l-.4-1.4c-.1-.6 0-1 0-1.4.1-1.1.1-1.7-1-2.5-1.4-1.5-2.6-3-3.6-4.6 0-2.1-1.8-2.6-2.9-.4l-2.2 1.5c-.6.4-.9-.2-.9-.8-.2-2.8-2.1-5-4.1-7.1-1.1-3.3-2.6-6.1-3.2-8.7 2.1.2 3.7.6 4.3 1.2.9 1 2.1 1.5 2.4.8.1-.2-.6-.6-.9-1 .4 0 .8.3 1.4.8.9 0 1.2-.7 1-1.7.1-.8.1-1.4-.3-1.6l-.8-.4c-1.3-1.4-2.3-2.8-3.2-4.3-.1-.2-.1-.3-.1-.5 0-.6-.2-1.2-.8-1.7l.3-.1v-.2l.7.1-.7-1.1c-.4-1.4-1.6-1.6-3.5-1-.3.1-.6-.2-.9-.6-1.2-1.1-2.4-1.8-2-.9.1.1.4.6 0 .5l-2-.3c-.4-.1-.5.1-.4.3.4.4.7.8.9 1.2l-2.6.1c-.5 0-1 .3-1.4.2-1.4-1.2-3.1-.3-4.9 1.1l-.3-.1v-2.1h.2l-.2-1.4h.1c.1-2.1-.3-3.4-1-4.3-.1-.6.5-.6.6-.7.6-.7.6-1.6.6-2-.1-.9-.4-1.2-.8-.9h-.5c-.6-.1-1-.3-1.2-.5-.6-.4-1.1-.4-1.7 0-2.6.7-3.1 2.7-6.4 1.3-.4 0-.4.1-.3.4.5.7 1.3 1.2 2.2 1.6-.3.2-.9.3-1.8.2.6.7 1.6 1.1 3.3 1.1.6.4 1.4.2 2.2-.1.4-.3.5-.1.2.5-.8.7-1.4 2.1-1.5 4.5-.3.5-.5 1.1-.6 1.7-1.2-.3-2.3-.6-2.7-.2h-.5c-1.1-.8-2.1-.8-2.9-.2l-1.9 1.4c-.7.5-1.3.5-1.4-.1l-.8-1.7c0-1.2-.4-1.7-1.2-1.8-.4-.3-.6-.7-.7-1.2l-.5-.7c.2-.6-.1-.8-.5-.8-.5 0-.9-.1-1.2-.3l-3.8-4.7c-.5.1-.7.4-.6 1l3.3 4.6c.1.2.3.4.3.6-.3.6-.4 1 .2 1.6l1.1 1.1c.1.8.3 1.4.5 1.6-.3.5.1 1 .5 1.5.1.1.1.3.3.5l.2 1.6c-1.5 1.3-2.3 2.2-2.5 2.8-.1.3-.1.6.1.8l2.2-.2c.2.1.4.1.5.3.3.8-.1 2-1.3 2.1-2.7.7-4.6 1.6-3.9 3.4 1 1.3.5 2.4-1.2 3.5-.4.4-.6.8-.5 1.5-.5.4-.8 1-1.2 1.7-.3.7-.3 1.1.3 1 3.7-1.2 7.4-1.8 10 .4 1.3 1.1 1.1 1.6 3.1 1.7-.2.8 0 1.3.7 1.5l.1 1c-.8.2-1.7.2-2.5.4-.9.2-1.8.6-2.6.6-.7-.6-1.5-.9-2.2-1.3-3.4-2.1-6.2-2.2-8.7.7-1.3 1.5-2.5 3.6-3.4 6.7-.2.6-.6.8-1.5.3-1.8-1.4-2.1-2.7-1.2-3.6 1.2-1.2 1.7-.5 1.1.1v.1c1 0 1.3.7 1.7 1.4.8-2.1.4-3.5-.8-4.7h-.3l.1 1.8c-1.9-.4-3 1.1-3.2 2.5-.1 1.4.5 2.6 2.3 3.6 1 .3 1.3 1.5.5 2.6-1.9 2.8-1.6 5.8.1 9.6l.2-.1c.4-4.2 1.2-6.3 2.6-6.7.4-.1.8-.4 1.2-.9.4-.6.6-.6.9.1.8 1.8.7 3.5-.4 5.1-2.4 3.9-2.5 6.9.9 9.3l.1.3-.9 1.2c-.3.5-.1 1.1.7 1.7.6.7.9 1.8 1.1 3.3-.3.4-.3 1-.1 1.6.5.7 1.8 1.1 3.5 1 .2 0 .1-.2.1-.4.1-.8-.4-1.4-1-2.4-1.7-1.5-2.1-3-1.5-4.4l.3-.4c1.4.5 3.1 1 4.7 1.2-.7 1.4-.6 3 0 4 1.1 1.9 2.3 2.8 4.5 2.6 3-.3 4.4-2.7 3.3-6.1 1.1-.6 1.8-.6 2.1.1 0 1.5.6 1 .7 2.5-1.8 1.5-2.4 2.9-.5 3.7 1 1 .4 1.4-.8 1.4-1.4-.3-2.3-.3-2.5.8-1.2.1-1.6.8-1.6 2 .4-.9 1.1-1 1.4-.7.7 0 1.4.1 1.9-.1.6-.3 1.2-.3 1.9 0 .4 0 .6.1.8.4.9.9.8-.1 2.7 1.1.5 0 1.3 0 1.4.8l.2-.7c.1-.3.1-.6-.2-.8-.6-.7.4-.8 2.1-.4.9.4 1.8.6 2.4.5.8-.8 1-.3 1.1.7.6-1.5.2-2.3-1.3-2.4.3-.8.4.4.9-.6.5-.2 1 0 1.4.5.1-.7-.3-1.2-1.3-1.4-.2-.6-.7-.7-1.4 0-2.8-.7-3.1-2.4-1.5-2.8.8-.2 1.2.7 1.8.9.5.2.8.1 1.5.2.8 0 1.5.2 1.9.5l.6.2c.3-.2.6-.2 1 .1.4.6.8.7 1.2.2 1.1-.9 2.8-.9 2.6-.3 0 .8.1 1.1.4 1 .3 0 .4.4.4 1-1.1 0-1.8.1-1.8.9-1 .3-1 1-.5 1.9-.1-1.8 1.4-.3 2.9-1.3l1-.1c.1.5.6.7 1.5.7.3-.1.8-.1 1.2-.2 1.8-.5 3.2-.4 4.3 1.1.2-.4.2-.9-.1-1.4 1.2-.8 2.6-.5 1.8.8.7-.4 1.5-2.2.5-2.2.4-1.1 2.1-.2 1.6.6.7-.4.8-.9 0-1.6-.1-.6-.6-.8-1.5-.6-.5-.9-1.2-.9-2.1-.1-.9.4-1.6.4-2-.1-.5-.8-.4-1.1.3-.9.3.1.5-.3.9-1.1.1-.3.4-.6.7-1 1-.1 1.7-1 2.7-2.7.7-.3 1-1.7 1.1-3.8.3.1.7 0 1.1-.3-.3 0-.5-.1-.5-1h.9c.4-.1.5-.3.5-.5 0-.1-.4-.1-.6-.5-.1-.5-.4-1-1-1.5l-.9-1.4c-.6-2-1.4-3.1-2.3-2.4l-.3-.2c-.7-.8-1.2-1.8-1.6-2.9 0-1.4-1.4-1.5-2.2-.1l-.2-1.1-.4.6-2.3-3.3c.3 0 .7-.3 1-.3 2.8-.2 5.7-1.1 8.6-2.7l2.1-.6c.9-.4 1.2-.1 1.7.4l2.1 2.2c.4.4.4.8.2 1.3-.2.4.3 1 1 1.7s.7 1.7.1 3c-.3.8-.3 1.3.2 1.6l1.4 1c1 .8 1.4.5 1.4-.8-.1-.7-.3-1.4-.7-2.1-.5-.8-.8-1.7-.8-2.5 0-1.7-.3-2.6-1-3.2-.8-.8-1.5-1.7-2.1-2.6-.2-.6-.3-.9-.6-1-.1-1.8-1.4-2.6-2.2-2.2-.7.1-1.4.2-2.1.1v-.4c.9-.5 2.5-2.1 4.1-3.9.6-.7.9-.4 1.5.1l2.3 2.4c-.1 1.2.1 1.9.9 1.9.6 1 .8 1.9.3 2.3-.5.4-.9.7-.9 1.4.1.9 1.2 1.9 2.4 2.3.1 0 .3 0 .4-.2 0-.8 0-1.8-.3-2.7zm-2.6 9c-.2.2-.6.2-.9.3l.3.5-.3.1-.1.4c-.6-.4-.9-.8-.7-1.3l.4-.8c.2-.3.3-.3.4 0l.9.8zm-.7-1.9c0 .4-.1.7-.2.7s-.2-.3-.2-.7c0-.4.1-.7.2-.7s.2.3.2.7zm-.7-3.7c.1-.1.3.1.4.3.1.2.2.4.1.5-.1 0-.3-.1-.4-.3-.1-.3-.2-.5-.1-.5zm-8-10.8c.1 0 .2.1.3.3.1.2.1.4 0 .4-.1.1-.2-.1-.3-.3-.1-.2-.1-.4 0-.4zm-.2 3.4c.1 0 .1.1.1.1 0 .1 0 .1-.1.1s-.1-.1-.1-.1 0-.1.1-.1zm-.8.4c0 .6-.4.6-.5.1-.1-1.3-.2-2.5-.4-3.6-.1-.7.1-.8.3-.1.4.9.7 2.1.6 3.6zm-1.1-10.4c0-.5.3-.5.3.1.1 1.2-.1 2.5-.2 3.7 0 .2-.3.5-.3.1 0-1.5.2-2.8.2-3.9zm-.3 4.5c.3 0 .6.3.7.7.1.4-.1.8-.3.9-.3 0-.6-.2-.7-.7-.1-.5 0-.8.3-.9zm-.7 4.2c-.5-1.1-1.1-1.9-1.7-2.8-.3-.4.1-.6.4-.1.6 1 1.1 1.8 1.5 2.8.3.4 0 .5-.2.1zm-.3.7c-.7-1.4-1.6-2.7-2.5-3.9-.2-.3.3-.5.7 0 .8 1.2 1.6 2.3 2.2 3.6.3.8-.1 1-.4.3zm.4-2.4c-.1 0-.2-.1-.3-.3-.1-.2-.1-.4 0-.4s.2.1.3.3c.1.2.1.3 0 .4zm0-1.8v.1l-.1.1h-.1l-.6-.7v-.1l.1-.1h.1l.6.7zm2.9-14.6c.1.1-.4.3-.8-.1-.6-.5-.3-1 .1-.6l.7.7zm-6.9-12.2c1 0 1.8-.6 2.9 0l.5.6c.3.8 0 1.1-.4.6-.2-.3 0-.6-.6-.9.3.6.5 1.1.5 1.7.8.8.1 1-.1.5l-.3-1.5c.1.7.1 1.3 0 1.3-.3 0-.1-.5-.2-1.1-.1-.3-.1-.7-.3-.8-.6-.2-1.2 0-1.7 0 .8 0 1.4 0 1.5.2.3.4.3.8.2 1.1-.2.3-.3.2-.3-.1l-.1-.5c0-.3-.3-.3-.7-.3-.3 0-.5.1-.8-.1-.1-.1-.4-.2 0-.3-.5-.1-.4-.4-.1-.4zm-3.6-1.2c1.1.2 2.1.4 2.8.9.4.3.1.5-.2.3l-.8-.4c0 .3-.3.2-.7-.2-.3.3-.7.1-1.1-.3l.3.7c0 .1-.1.1-.2 0l-.5-.6c-.2-.2 0-.4.4-.4zm1.4 1.5c-.1-.1-.3-.4-.1-.5.1-.1.4.1.4.3 0 .3-.2.4-.3.2zm-.1.6c0 .7.1 1.4.4 2.2.1-.1-.1-.9-.1-1.5v-.6l.3.1c0 .7.3 1.4.6 1.5-.3-.4-.3-.9-.3-1.4l.4.1c0 .8.3 1.6.6 1.7-.3-.4-.3-1-.3-1.5h.1c.1.3.2.6.3.7.1-.2.1-.6 0-1 .4-.2.9-.2 1.4.1.2.2.1.3-.1.3h-.3l.6.3c0 .1.1.1-.2.2l-.2.2.8.1c.3.1.2.2.1.3l-.2.2c.7 0 1.4.1 2.2.6 0 .3-.4.3-1-.1.1.4.7.4.7.6-.1.4-1 0-1.4.6h1c.2.1.1.3-.2.3.5.6.9.8 1.1.4.1-.3.3-.3.4 0 .6.4.7.4.4.5l-.6.1.7.1c.2.1.2.2.1.3-.5.1-.5.1.4.2.4.2.5.4.4.5-.8 0-.7.1.2.2.2.1.3.3.3.4-.5.1-.4.2.2.2.1.1.1.2 0 .3-.6.1-.5.2.2.2 0 .3.4.2.6.6.6-.1.8.3.3.3v.1c.8 0 1.2.3 1.1.8-.1.2-1.2-.4-.7 1.3l.2.2c.3.1 0-.8.5-.7.1 0 .1.3 0 .7-.1.4-.4.6-.8.3s-.6-.5-.6-.8v-.6c-.4 0-.5-.2-.5-.6 0-.1-.1 0-.1-.1-.7-.1-1 .1-1.1.6 0 .2-.2 0-.3-.1 0-.1-.2 0-.4 0-.1 0-.1-.3-.2-.2-.1 0-.1.1-.2.1s-.1-.3-.3-.1c-.1.1-.2.1-.2-.1s.2-.6-.2 0c-.1.1-.2.1-.3-.1-.2-.6-.4-.7-.4-.1-.1.2-.2.3-.2-.1-.2-1-.3-1-.2 0 0 .4-.1.4-.4-.1-.3-.8-.4.1-.6-.3-.3-.4-.1-1.1-.5-1.2l.3 1.3c0 .2-.3.2-.3-.1-.1-.8-.7-2.3-.6-1.8l.3 1.8c0 .1-.4.1-.4-.1l-.4-2.2c-.1-.6-.1 1.2.1 1.9 0 .1-.3.1-.3 0 0-.2-.3-2.3-.4-2.2-.3.3.4 2.3-.1 2-.1 0-.3-2.1-.3-2.2 0 0 0 2-.1 2-.6-.7 0-2.7-.4-2.8-.1 0-.3 2.4-.3 2.4.3 1.9 1.8 1.9 1.7 2.5l-1.1-.6c.3.6.7 1.1 1 1.8-.3.1 0 .6.3.8-.3 0-.3.2.4.8.1.1.2.2.1.3-.8-.2-.8-.2.4.8-.8-.1-.8 0 .1.6.1.1.3.3.4.6 0 .1-.1.1-.2.1-.1-.1-.4-.2-.4-.3-.2 0-.1.3 1 1 .3.2.4.4.2.5-1.2-.8-1.2-.6.2.6.3.5.4.7.3.8-1.1-.9-1.8-1.5.1.4.3.3.4.5.1.6-1.9-1.4-.9-.5.4.8.1.1 0 .2-.1.1-1.8-1.4-1.9-1 0 1 .1.2.2.3.1.5 0 .1-.2 0-.3 0-1.3-1.2-1.2-1 .3 1.1.2.3.3.6 0 .4-1.7-1.9-2.2-2.3 0 .6.2.4.3.6 0 .4-1.5-2.1-1.5-1.8-.1.4.1.3.1.3 0 .3-1.4-1.7-1.8-2.1-.1.4.2.4.2.5 0 .3-1.7-2.1-1.7-1.8-.1.3.1.3.2.4 0 .3-1.9-2.2-1.9-2.1-.1.3 0 .6 0 .5-.3.3-.2-.2-.2-.4-.4-.6-1.2-1.4-1.3-1.3.1.5-.1.1-.3.1-.6 0-1.2-1.6-1.3-1.6-.4-.1l-.7-.1c-.1-.2-.2-.3-.4-.5-1.1-1.1-1.5-1.2-.4.2 0 0-.1.1 0 .1l-1.3-.2c-.1 0-.3-.1-.5-.3-.6-1-.9-1.3-1.8-2.2.1.3.8.9 1.3 1.8.1.6-.5.3-.7.2-.4-.6-.6-.6-1.1-1.3-1.7-1.9-3.4-4.1-4.8-5.7.1-.3.1-.5.1-.8 1.2 1.8 2.9 3.8 4.7 5.5-.1-.7-2.5-2.8-3.9-4.7-.3-.5-.6-1-.7-1.4 0-.2 0-.4.1-.7 1 2 2.6 3.9 4.8 5.8-.3-.7-2.5-2.5-3.7-4.4-.4-.8-.8-1.4-1-1.9v-.3c1 2 2.7 4 4.8 5.8-.2-.7-2.6-2.6-3.7-4.4-.5-.8-.8-1.4-1-1.9v-.4c1 1.9 3.1 4.5 5 6.2-.2-.6-2.9-2.9-4-4.7-.5-.8-.8-1.5-1-2v-.5c.8 1.9 2.9 4.4 4.9 6.1-.2-.6-2.8-2.7-3.8-4.4-.6-.9-.8-1.6-1-2.1v-.6c.7 1.9 2.6 4.3 4.7 5.9-.2-.6-2.6-2.5-3.5-4.1-.6-1.1-.9-1.8-1.1-2.3v-.6c.6 1.9 2.4 4.2 4.5 5.8-.1-.6-2.3-2.3-3.3-3.8-.7-1.2-.9-1.9-1.1-2.5v-.1c0-.2 0-.5.1-.7.4 1.9 2.2 4.4 4.3 6.1-.1-.5-2.2-2.2-3-3.6-.8-1.4-1-2.2-1.2-2.6.3-5.9 2.5-9 5.8-9.5zm-7.7 23c0-.2-.1-.5-.1-.7.6.6 1.2 1 1.8 1.6-.2.1-.4.1-.6.1-.4-.4-.7-.7-1.1-1zm.7.9c-.6 0-.7-.1-.7-.6.3.3.5.4.7.6zm-.8-2c0-.3 0-.6.1-1 .8 1.1 1.6 1.9 2.5 2.9-.1.1-.3.1-.5 0-.8-.6-1.4-1.1-2.1-1.9zm-1.6-2.2c-.3.3-.4.3-.2-.1.3-.5.7-.8 1.2-1 .4-.1.3.1.1.3-.4.2-.8.4-1.1.8zm.6.2c-.4.5-.6 1.1-.9 1.6-.1.2-.4.5-.4-.1.1-.7.4-1.3 1-1.7.6-.4.7-.3.3.2zm.2-1.7l-1.2 1.1c-.4.2-.9.9-1.6 2-.4.2-.5.1-.2-.3.2-.3.5-.6.8-.9.2-.3.2-.6.4-.8.5-.7 1.1-1.3 1.7-1.8.7-.5 1.3-1.4 1.8-2.6l.1.2c-.3 1.9-.8 2.9-1.8 3.1zm-1.5 2.2c0 .2-.1.4-.1.4-.1 0-.1-.1-.1-.4 0-.2 0-.4.1-.4 0 .1.1.3.1.4zm-2.4-1.1c.2-.8.7-1.6 1.4-2.2.8-.6 1.6-.8 2.6-1.5.3-.2.4-.1.2.3-.4.5-.9.7-1.4.8-.8.2-1.4.9-1.9 1.8l1.6-1.2c.4-.1.4 0 .2.3-1.7.9-1.5 2-2.2 2.2-.1-.2-.1-.4.1-.8l-.6.3zm-.2-13.8c.2.1.3.2.4.3.1-.3 0-.6-.1-.9.4.2.6.5.6 1 .1-.3.1-.6-.1-1 .3.1.6.4.8.9l-.1.7c.1.2.1.4 0 .6-.1-.2-.3-.3-.5-.1v.6c-.1-.3-.3-.3-.4-.1l-.5.5-.1-.3-.1-1.5.2-.1-.1-.6zm.2-4.7c0-.3.1-.6.4-.8.2-.1.3.1.2.3-.3.2-.5.2-.6.5zm4 1c-.2 0 0-.6-.3-.1l-.6.6c-.4.1-.3-.3-.1-.1l.4-.6c.4-.6.9-1 1.4-1.3.4 0 .5.1.2.3l-.5.3c.1.2-.2.9-.5.9zm.5 2.9c.9-1.5 1.9-2.3 2.9-2.6.3 0 .5.1.2.4-.8.3-1.6 1-2.3 1.8.1.3-.1.6-.4.8 0 .6-.3.8-.9.9l-.8 1c.2.3-.1.7-.7 1.2-.4.4-.5.3-.4-.4.4-1.2 1.3-3 1.7-3 .2 0 .2-.1.3-.5 0-.3.3-.2.3 0-.2.6-.1.7.1.4zm.5-1.9c-.1.1-.1 0 0-.3.7-.8 1.8-1.3 3.9-1.2.4 0 .4.5 0 .4-.3 0-.7.1-1 .2-.4.1-.8.1-1.2.4-.7.4-1.4 1.1-2 2-.2.1-.3 0-.1-.2.7-1.3 1.6-2 2.5-2.1v-.1c-.6-.1-1.2.1-2.1.9zm.7-1.4c.8-.5 1.7-.8 2.8-.7.7.1.7.5.3.4-1-.1-2-.1-3 .4-.4.2-.3 0-.1-.1zm1.9 1.8c-.4 0-.9.3-1.7 1.4-.2.3-.5 0-.2-.3.5-.6 1.1-1.1 1.7-1.3.7-.3.7.2.2.2zm-4.9 1.7h.3c0 .1 0 .2-.1.2 0 0 0-.1-.2-.2zm.2-.6c.1.2.1.3.1.4h-.4c-.1-.1-.1-.2-.2-.4V31h.5v.1zm-.6-.2c-.1-.3-.2-.6-.1-.6s.4.2.6.6h-.5zm0 1.1c.1.2.1.4.1.4s-.2-.1-.3-.3c-.1-.2-.2-.4-.1-.4 0-.1.2.1.3.3zm2.2 1.6c.6-1 1.4-1.9 2.4-2.9.7-.5.9-.4.5.4-1.1 1.5-2.1 3.3-3.1 3.8-.4 0-.8.3-1 .7l.7-.3c.3 0 .4.1.1.3-.6.3-1.5 1.7-1.7.8-.4.7-1 .6-1 1.3l-.1.9c-.1.3-.3.3-.4 0-.1-1.3.2-2.1.8-2.5 1.6-1.1 2.2-2.6 2.8-2.5zm1.1 3.9c0 .3 0 .6-.3.6-.1 1-.2 1.8-.5 2.1-.4.6-.6.5-.4-.3l.3-1.3c0-.5.2-1 .6-1.4l.4-1.1c.1-.4.3-.4.3.1l-.3.8c.2.1.1.3-.1.5zm-2.3 2.7c-.1.1-.4.1-.3-.1l.7-1.4-.9 1.2c-.3.3-.3.1-.2-.2l.6-1.4c.1-.5.4-.8.7-.8l.8-.8c.2-.2.3.1.2.3l-.6 1c0 .7-.3 1.4-1 2.2zm.8.2c-.1.6-.6 1.3-1.5 1.6-.8.3-1-.1-.5-.4.6-.3 1-.7 1.4-1.2.5-.7.7-.8.6 0zm-1.5-1.6c-.2.4-.4.9-.4 1.8 0 .7-.9.6-.6-.3.3-.9.4-1.4.8-1.7.4-.3.5-.3.2.2zm0 3.5c.8-.3 1.4-.8 1.9-1.5.6-.4.5 0 .3.4s-.4.5-.7.7c-.4.4-1.1.7-1.6.9-.6.2-1.2.6-1.8 1.2-.3.3-.5.1-.4-.4.4-.5 1.2-.9 2.3-1.3zm2.1-6.1c-.6.8-1 1.1-1.2.8-.5.6-1 1-1.4 1.3l-.3.9c-.1.2-.2.3-.2 0 0-.8.3-1.2.6-1.4 0-.3.1-.5.3-.7.8-.4 1.4-1.1 2.1-1.4.2-.6.7-.8 1.2-1.6.4-.4.5-.3.3.3-.3.8-.6 1.4-1.4 1.8zm-3.1 1.2c.1-.1.2-.1.3-.1.1.1.1.2 0 .3-.1.1-.2.2-.3.1-.1-.1-.1-.2 0-.3zm.1-5.5c.1.3.2.5.1.6 0 0-.2-.1-.4-.4-.1-.3-.2-.5-.1-.6l.4.4zm-.2-3.1c.1-.1.3-.1.3-.1.1.1 0 .2-.1.3-.1.1-.3.1-.3.1 0-.1 0-.2.1-.3zm-.9 18.3c.7-1.4 1.8-2.3 2.8-3.2.9-.7 1.4-1.9 1.9-3.2.2-.6.6-.3.3.6-.5 1.5-1.7 2.6-2.5 3.3-.9.7-1.5 1.5-2.3 2.7-.3.3-.4.2-.2-.2zm3.9-.9c.1-.3.3-.4.4-.4.1.1.1.3.1.6-.1.2-.3.4-.4.4-.1-.1-.2-.4-.1-.6zm.3 1.4v-.2c.1-.1.1-.3.2-.5 1.1 1.4 2.3 2.7 3.3 4-.1.1-.3.1-.6 0-1-1.3-1.9-2.2-2.9-3.3zm.3-.9c.1-.2.1-.4.1-.6 1.2 1.5 1.8 2.2 2.9 3.5.1.2 1 1.2 1.2 1.4-.1.1-.3.1-.5 0-1.4-1.6-2.5-2.9-3.7-4.3zm3.4 3a157 157 0 00-3.2-3.8c0-.2.1-.4.1-.7 1.2 1.5 3.1 3.8 4.3 5.2.4.5.1.3.4.5.3.3-.3.3-.5-.1-.2-.1-.9-.9-1.1-1.1zm1.6.7c-1.5-1.8-3.2-3.9-4.6-5.4 0-.2.1-.4.1-.6 1.1 1.4 3.3 4 4.5 5.5.7.8.6.8 1 1.2 0 .2-.1.1-.4 0-.4-.3-.3-.3-.6-.7zm.1-24.2c.7.1.6.6-.1.6-1.7-.1-2.9 0-3.8.5 1.1-.3 2.3-.3 3.5-.1.2 0 .1.1 0 .2s-.3.1-.5.1c-.3 0-.7-.1-1-.1-1.3 0-2.5.2-3.3 1.2h.3c0 .1-.1.3-.4.4-.2.1-.2.3-.3.4-.1.2-.3.4-.3.6l.3.1c-.5.6-.8 1-.9.8.1-1.1.4-2.1 1.1-3 .9-1 2.4-1.9 5.4-1.7zm-6.8.5c.6-.4 1.1-.6 1.5-.6.1 0 .4.1.7 0 .3.2.2.3-.1.4-.1-.1-.3-.1-.4-.1-.3.1-.4.3-.6.4l-.1-.2c-.4.3-.7 1.1-1.1 1.5l-.1-.4c-.2 0-.4.5-.7.8 0-.3 0-.4-.1-.4-.5.4-1 .6-1.1.4-.1-.3.9-1 2.1-1.8zm-2.3-3.9v.2l-1.2.4.1-.7c-.3-.1-.6 0-.7.3v.3c-.1-.1-.3-.2-.4-.3-.1-.1-.4-.1-.9 0h-.3l.2.3c-.1.1-.3.3-.4.5.1 0 .3 0 .4.1.4.3.8.2 1.1.1v1h-.2c-.2.1-.2.3-.1.4l.6.3c.3.1.4-.2.4-.4l.1-1.1.5.2c.2 0 .3 0 .6-.1v.9l-.2.3c0 .3-.1.4-.3.6 0 .3 0 .6-.1.6-.4.4-.5.7-.9 1-.3 0-.5 0-.7-.1-.3-.2-.5-.4-.7-.6l-.2-.1.1-.3h-.2l.1-.3h-.3l.1-.3-.2-.1.2-.5-.2-.1.3-.4h-.4l.3-.2-.3-.1c-.1-.9.1-1.5.5-2 .7-.2 1.4-.3 1.9-.3.7-.1 1.2.2 1.4.5zm-.2 1c0 .1-.1.2-.3.1-.2 0-.3-.1-.3-.2s.1-.1.3-.1c.2 0 .3.1.3.2zm-1.3-.5V23c.2-.2.3-.3.3-.1v.4h-.3zm.2.3c0 .4-.1.8-.2 1.5-.1.1-.1.1-.2-.1 0-.5.1-.9.2-1.5h.2v.1zm-1.2-.1c0 .1-.1.2-.3.2-.2 0-.3-.1-.3-.2s.1-.2.3-.2c.2-.1.4 0 .3.2zm.5 1.6s0 .1-.1.1c0 0-.1 0-.1-.1s.1-.1.1-.1.1 0 .1.1zm-.8 16.7c-.1-.2-.3-.3-.8-.3-.2-.1-.2-.3 0-.3h1.4c.4 0 .5.2.2.6.1.7-.8 1.2-.8 0zm-1.4-.6c.1 0 .1.1.1.1 0 .1-.1.2-.1.2s-.1-.1-.1-.2l.1-.1zm-.4-.3c-.1 0-.3-.1-.3-.1 0-.1.1-.1.3-.1.2 0 .3.1.3.1.1 0-.1.1-.3.1zm.5-4.3c0-.7 0-1.3-.1-1.9-.1 0-.2 0-.4-.1 0 .6-.1 1.2-.2 2 0-.7-.1-1.4-.1-2-.1 0-.2-.1-.3-.1 0 .6-.1 1.1-.3 1.8v-1.9c-.1 0-.2-.1-.3-.1 0 .7-.1 1.4-.1 2.2-.1-1-.2-1.6-.1-2.3-.1 0-.2-.1-.3-.1-.2.9-.3 1.7-.2 2.5-.3-1.1-.3-1.8 0-2.6-.1-.1-.1-.1-.2-.1-.1.3-.3.6-.5 1 .2-.4.3-.7.4-1.1-.1-.1-.3-.1-.4-.2-.1.5-.3 1-.7 1.6.5-1.2.5-2.3.6-3.7.1.6.2 1 .2 1.4.1.1.3.1.4.2.1-.6.1-1.2.1-1.9.2.8.3 1.4.1 1.9.1 0 .2.1.3.1 0-.1.1-.2.2-.3 0 .1-.1.2-.1.3h.3c.1-.2.1-.5.2-.8v.8h.3v-.6c.1.3.1.4.1.7h.4v-.8c.1.3.1.6.2.8h.4v-.9c.1.3.1.6.2.9h.4V32c.1.5.2.9.3 1.3h.3c0-.3-.1-.6-.1-1 .1.3.3.6.3.9h.2c0-.3-.1-.7-.1-1 .1.4.3.7.3 1h.2c-.1-.5-.1-1.1-.2-1.7.8 2.1.8 3 .1 5.2.2-.8.3-1.5.2-2.3-.1 0-.1 0-.2.1 0 .4-.1.9-.4 1.5.1-.5.2-1 .1-1.4-.1 0-.1.1-.2.1 0 .3-.1.7-.3 1.2.1-.4.1-.8.1-1.1h-.3c0 .5-.1 1-.2 1.7v-1.6h-.4c-.1.4-.1 1-.2 1.7zm-1 3.8c0 .2-.1.4-.1.4-.1 0-.1-.2-.1-.4 0-.3 0-.4.1-.4s.1.1.1.4zm-.4-.1c0 .1-.1.3-.2.3s-.1-.1-.1-.3c0-.1.1-.3.1-.3.1.1.2.2.2.3zm-2.6-9.3c.4 1 .3 1.3-.3 2.4.4-.9.4-1.3.3-2.4zm4.5-9.5c.1-.1.3-.1.4 0 0 .1 0 .2-.2.3h-.4c-.1-.2 0-.3.2-.3zm.8-.9c.2-.3.5-.4.9-.4.3 0 .5.1.5.4v1c-.1.3-.1.3-.5.3s-.6-.2-1 .1c.3-.7 0-.9.1-1.4zm1.6-1.4c-.2-.3 0-.4.2-.2s.4.4.4.7c0 .3-.3.5-.4.3-.2-.3 0-.5-.2-.8zm.4-1c-.1.1-.2.1-.3 0v-.3c.1-.1.2-.1.3 0 .1.1 0 .2 0 .3zm-.6-.2c-.1-.6-.3-.9-.7-1h-.4v-.2c.3-.1.5 0 .8 0 .5.1.7.4.7.7-.1.2-.2.4-.4.5zm-.2.5c-.1.4.2.8 0 1.2-.1.4-1 .3-1 0 .1-.7.4-1.1 1-1.2zm-1.3 1c-.1.1-.2.1-.2.1-.1 0-.1-.1 0-.3.1-.1.1-.1.2-.1.1.1.1.3 0 .3zm2.6 1.4c.3.3.3.7 0 1.2-.2-.1-.4-.1-.6-.3 0-.1-.1-.1-.1-.6 0-.2 0-.4-.1-.6-.1-.4 0-.4.5-.2.4.2.4.4.3.5zm-.1-2.2c-.1.1-.2.1-.3 0-.1-.1 0-.2.1-.3h.3c.1.1.1.2-.1.3zm.8-2.4c-.2.2-.2.4-.2 1 0 .4-.1.6-.4.8-.2.1-.3 0-.2-.3l.3-.6c.1-.5.1-.8 0-.9-.2-.5.1-.6.5 0zm-.8.6c0 .3 0 .6-.3.7.1-.7-.2-.6-.3-1 .3 0 .5 0 .6.3zm-2.1-1h1.4c.9.3.6.6 0 .4-.4-.2-.8-.2-1.3 0 0 .4-.7.1-1 .3-.3.1-.3 0-.1-.2.2-.2.5-.5 1-.5zm-.2.8v.2c-.1 0-.1 0-.3.1-.1 0-.3-.1 0-.1.1-.1.2-.2.3-.2zm-5.4 1.3c-.5-.2-1-.5-1.4-.8-.1-.2-.2-.3.3-.2.4.3 1 .4 1.5.4v.3c.9 0 1.8-.4 2.7-1 0 0-.2-.1-.4 0-.7.3-.6.1.7-.5.2-.1.3 0 .6-.1l.8-.2c-.7.6-1.3 1.2-2.1 1.7-1 .6-1.9.7-2.7.4zm4.1-.7c0 .1-.1.1-.2.1s-.1-.1-.1-.1l.1-.1c.1 0 .2.1.2.1zm-2.8 1.7c-.3.2-.8.5-1.6.3-.4-.1-.3-.3.1-.4.4 0 1-.2 1.7-.5l.8-.4c.4-.2.5-.1.1.2-.3.4-.8.6-1.1.8zm1.8 0c-.1 0-.2 0-.3-.1 0-.1.1-.1.2-.2.1 0 .2 0 .3.1 0 .1-.1.2-.2.2zm.9 0c-.7.2-.7.1-.2-.3.2-.1.3-.3.5-.4.4-.3.8-.3 1.2-.4-.6-.4-1.8.2-3 .8-.4.2-.5.1-.2-.2.5-.4.8-.6 1.4-.8.6-.3 1.2-.3 1.9-.3.4-.4.8.1.4.6-.1.1-.3.2-.5.3-.5.4-1 .6-1.5.7zm1.2 8.4c.4.3 0 .6-.4.3-1-.8-1.3-2-1.5-3.1-.1-.3.1-.4.2-.1.3 1 .7 2 1.7 2.9zm-1.9-3.9c.3-.4.3-.6.3-1 0-.3.3-.3.3 0 .1.5 0 .9-.3 1.2-.2.1-.5 0-.3-.2zm-3.6 2.9c.8.1 1.6.4 2.4.8 0 .1.1.2-.1.1-.3-.2-.6-.3-.8-.3.1.3 0 .5-.1.4-.3-.5-.6-.6-.8-.5-.1 0-.1.1-.2 0-.2-.5-.3-.5-.4-.3-.2-.1-.2-.2 0-.2zm-4.2.2c.7-.5 1.5-.7 2.3-.4 1 .6 1.4.4 2.2 1.1.7.6 1.8 1 3 1.5.2.1.2.2-.2.4-.6-.4-1-.7-.7 0-.1 0-.1 0-.2-.1-.7-.6-1.2-.9-1.5-.8-.5-.6-.7-.6-.6-.1 0 .2-.1.1-.3-.1-.6-.8-.8-.9-.8-.3 0 .1-.1.1-.2-.1-.5-.9-.6-.9-.4-.1 0 .1-.1.1-.3-.1-.4-.8-.4-.7-.4-.3-.6-.9-.8-.7-.6-.1-.4-.6-.6-.6-.6-.1-.3-.3-.6-.3-.8-.1 0-.1 0-.1.1-.3zm-1.8 1.2c1.5-.5 3.4-.5 5.7.7 1.7 1 3.3 1.7 4.9 1.3.3-.1.3.1 0 .3l-1.1.3c-.2.1-.3.2-.4.1-.4-.2-.6-.3-.7-.5h-.4c.2.3.2.5.1.4l-.8-.6c-.2-.1-.3-.1-.2.1l.1.2c.1.1-.1.2-.3 0l-.9-.7c-.2-.2-.4-.2-.3 0l.1.3c0 .1-.4-.2-.7-.6-.1-.1-.3-.1-.3 0v.3c0 .3-.6-.6-1.1-1.1-.1-.1-.4-.1-.3 0 .1.5.3.7.1.6l-.8-.7c-.1-.1-.5-.3-.4 0l.3.7c0 .1-.6-.2-1.2-.8h-.2c-.4 0 .4.6.3.7-.2.1-.4 0-.6-.4-.1-.2-.2-.3-.5-.2h-.5c-.3 0-.3-.2.1-.4zm5.2 4.9c0-.1.1-.3.1-.4l.1-.1s0-.1.1-.1c.1-.1.1-.2.2-.3-.1.4-.2.6-.5.9zm.4.2c0 .6 0 .7-.4.8-.2-.3-.1-.6.4-.8zm-1.5-1.7c-.1.3-.3.4-.4.6 0-.3.1-.4.2-.6-.1 0-.2-.1-.3-.2-.2.4-.4.7-.8 1.2.3-.8.5-1.4 1.1-1.9-.1.3-.1.5-.2.7.1.1.2.1.3.2l.2-.2c-.1-.1-.1.1-.1.2zm-.6.7c0 .3-.1.3-.3.5.1-.2.1-.4.3-.5zm-.5-1.6l.2-.2c0 .3-.1.3-.3.5 0-.1.1-.2.1-.3zm-7.1-6.8c.1 0 .2.1.2.2s-.1.2-.2.2-.2-.1-.2-.2 0-.2.2-.2zm-2.6-1.5c.1-.5.4-.8.8-.8l.8.1c.3.2.3.3-.1.3-.7-.1-1 0-1.2.5-.2.4-.3.4-.3-.1zm-.5-.5c-1.2-1.7-2.1-3.1-3-4.4-.2-.3 0-.3.1-.1 1.1 1.4 2.1 2.6 3.3 4.2 0 .1-.1.3-.4.3zm1.9 2.9c.1.6-.2.6-.7.3l-.6-.7c-.4-.4-.5-.8-.3-1.1l.5-.7c.3-.3.7-.4 1.1-.3.2.1.2.3.2.5-.7 0-1.1.4-1.4 1 .5-.5 1-.9 1.5-.9.3.1.3.3.3.4-.2-.1-.4 0-.5.1-.1.2-.4.4-.9.7.3-.1.7-.2 1.2-.6.3.1.3.2.2.5-.1.2-.3.3-.5.3 0 0-.2.1-.1.5zm.8 1.9c.1.3-.1.4-.3.1-.5-.6-.4-1.2.1-1.9.6-.7 1.2-.7 1.9-.2.4.3.3.3-.2.3-1.3.1-1.8.8-1.5 1.7zm3.1 6.6l-.4-2.2-.3 1-.2-1.4c-.2-.1-.2.7-.2 1.9-.3-.3-.3-1.3-.3-2.3l-.4 1c-.2-.6-.1-1.3 0-2-.2-.2-.4.2-.4 1.3-.3-.7-.2-1.3-.1-2l-.3.6-.1-1.3c1.2 1.2 2.2 2.6 3 4.1V33l-.4-1.5c.3.9.3 1.6.1 1.4zm-.7 1.2c-.1 0-.2-.1-.3-.4-.1-.2-.1-.4 0-.5.1 0 .2.1.3.4v.5zm-4.1-1.3c.6-.8 1-1.1 1.3-.4.4-1.2.8-1.3 1.3-.3.7 0 .8 1.1.7 2.6l-.7-1.8V34c-.4-1.8-3.2-.7-2.6-1.2zm-2.1 9c1.2-.4 2.1-.4 2.8-.5 1.3-.2 2.1-.3 3.1-.8.5-.2 1-.4 1.6-.9.3-.2.2-.3-.1-.3l-1.3.1v-.6l-.5.7-.1-.7-.4 1.2-.2-1.4-.3 1.5-.2-1.5-.6 1.7-.1-1.8-.3 1.8-.3-1.8-.2 1.8-.4-1.7-.1 1.7-.5-1.7v1.8l-.6-1.7-.1 1.5-.4-1.5-.1 1.3-.3-1.2-.2 1.3c-.6-1-.8-1.9-.4-2.3.6-.6 1.3-.8 2-.7.1-.3.4-.5.8-.7l.1.3.9-.3.1.3 1-.5c-.6.7-.7 1-.5 1 .1 0 .8-.8 1.1-.6-.5.7 0 .5.8-.1.2.1-.3.6-.2.7.1.1.4-.1 1-.6.1-.1.5-.5.6-.3 0 .2-.2.3-.3.5-.6.7-.4.6.6-.1.1-.1.4-.3.5-.2-.7.9-.4.7.6.1.1-.1.3-.3.5-.1-1.3 1.1-1.1 1.3.6.5-.8.9-.6.9.6.1.1 0 .3 0 .4-.1-.6.6-.6 1-.4.8.4-.2.9-.4 1.2-.3-.5.5-.5.7.2.6.2.1 0 .3-.7.8-.1.2-.2 0-.3-.4-.1.3-.2.3-.3.1l-.1 1h-.2V39c-.1-.1-.2-.1-.3 0l-.2.7-.3-.2c-.1.3-.3.5-.5.7-.2-.3-.4-.2-.4 0-.1 0-.2-.1-.4 0-.1.3-.2.4-.4.2-.3.2-.6.4-.8.7l-.1-.4c-.3.4-.5.6-.6.5l-.3-.3-.4.7-.7.2c0 .2.3.2.7.1.6-.1 1.7-.3 2.5-.6.7-.2 1.5-.3 2.4-.7.7-.3 1.5-.9 2.3-1.3.2.1 0 .5-1.5 1.7l-.7-.2.4.6c-.2.2-.3.3-.5.2l-.7-.3.2.7c-.5 0-.7-.6-1.1-.3l.2.6-1-.3.2.7-.8-.4-.2.4c-.3 0-.4.1-.4.2 1.9.3 4.1-.4 6.3-1.4.1 0 .1 0 .1.2-.2.9-.8 1.7-1.8 2.3l.3-1.2c-.7.3-1.4 1.7-1.9 1.9l.6-1.5-1.7 1.4c-.1-.2.1-.6.4-1.1-.5 0-1.4 1.2-1.5 1.1-.4-.2.3-.6.4-.8-.5 0-.8.4-1.2.6 0-.2.2-.5.7-.9l-1.4.7c0-.3.6-.5.7-.8-.7.4-1.2.7-1.4.7l.4-.7-1.2.7.8-.8-1.3.6.4-.7-1 .6.4-.8c-.5.4-.9.7-1.2.7.3-.3.4-.6.4-.8-.4.4-.9.6-1.1.6l.2-.6c-.4.4-.8.6-1.2.8l.4-.7c.1-.1 0-.3-.1-.1l-1 .8c.2-.4.3-.7.2-.8l-.7.4.1-.4-.8.9c-.1 0 0-.3.1-.7l-.8.6c-.4-1 .4-1.6 1.4-1.9zm14.1 5.5l-.7 1.3c0 .1 0 .2.2.2.4-1.2.8-1.8 1.1-1.9l-.6 1.8c.3-.6.4-.8.5-.7l-.1.6c.3-.6.5-.8.7-.7l-.1.5c.1-.2.3-.4.4-.5l.2.4c.1-.3.3-.6.5-.8l.1.4c.2-.4.5-.8 1-1.1l-.2.7.9-.4c.4-.1.5 0 .2.4l-1.8.8c-1.4.8-2.9 1.3-4.3.8-.4-.1-.4-.3-.3-.7.2-.3.4-.4.6-.5v.5l1-1.2-.5 1.5c.5-.9.8-1.4 1.2-1.4zm-.2-.9c.3-.3.4-.6.5-.5 0 0-.1.3-.4.6-.2.3-.4.5-.5.5.1 0 .2-.3.4-.6zm5.9 4.4c.3-.3.7-.5 1.1-.7-.3.3-.5.6-.8.8l.3.1c.3-.3.7-.4 1.1-.5-.2.1-.4.3-.5.4.3-.1.6-.1.9-.1-.5.2-.8.3-1.1.4l.3.2c.4-.2.8-.3 1.1-.3-.3.1-.6.3-.8.5l.3.1c.3-.2.7-.3 1.1-.2-.3.1-.6.2-.8.4l.1.1c.3-.1.7-.2 1-.2-.3.1-.5.3-.8.4l.2.1c.3-.1.6-.1.8-.1-.2.1-.4.1-.7.2l.8.5-.1.1-1.2-.4c-.1 0-.1 0-.1.1 0 0 0-.1.1-.1l-.3-.1c-.1.1-.3.2-.5.3.1-.1.2-.3.3-.3l-.3-.1c-.1.1-.3.2-.5.3.1-.1.2-.3.3-.4l-.3-.1c-.2.1-.4.3-.6.4.1-.2.2-.3.4-.5l-.4-.1c-.2.2-.4.3-.6.5 0-.2.1-.4.3-.6l-.4-.1-.6.6c.1-.2.2-.4.4-.6l-.6-.2c-.2.2-.4.4-.7.6.1-.3.2-.5.4-.7h-.1c.1-.4.4-.8.8-1h.1c.1-.1.3-.3.6-.4-.1.2-.2.4-.3.5l.1.1c.3-.3.6-.5 1-.6-.2.3-.4.5-.7.7h-.1zm5.5 8.6c.1 0 .2.1.2.2s-.1.2-.2.2-.1-.1-.1-.2.1-.2.1-.2zm-.1-.4v-.5c0-.4.3-.1.3.1l-.1.6c-.1.1-.1 0-.2-.2zm.5 1c.3-.1.4-.3.3-.6l-.1-2.4c-.1-.5.2-.3.3 0 .3 0 .3.2.1.4.6.1.8.3.5.5l-.5.1.7.1c.3.1.2.3 0 .4l-.6.1.8.1c.4 0 .4.1-.1.3l-.3.2.6.1c.3 0 .3.1.2.4.2.9 0 1.4-.7 1.4l-2.5.6c-.1-.1-.2-.1-.1-.1v-.1c0-.1.1-.1.1-.1s.1 0 .1.1c.1 0 .3 0 .4-.1v-.7l-.3.1v.1c0 .1-.1.3-.1.3-.1 0-.1-.1-.1-.3h-.1c-.3-.1-.3-.3 0-.4l1.4-.5zm2.7 1.5c0-.4.5-.3.3.1l-.2.5h-.1v-.6zm.1-1.3c.1 0 .2.1.2.3 0 .2 0 .4-.1.4 0 0-.1-.1-.2-.3 0-.2 0-.4.1-.4zm0 2.2c.1 0 .1 0 .1.1s0 .1-.1.1-.1-.1-.1-.1 0-.1.1-.1zm-.1.9c0 .1 0 .3-.1.3 0 0-.1-.1-.1-.3 0-.2 0-.3.1-.3s.1.1.1.3zm-.2-3.3c0 .4-.3.6-.3.4 0-.3 0-.7-.3-1.1-.1-.2.1-.3.3-.1.3.3.4.6.3.8zm-.5 1.1c.4-.3.5-.2.5.2-.1 1.1-.3 2.1-.6 2.4v-2h-.1c-.1 1-.3 1.7-.5 2l.1-1.8h-.2l-.4 1.8.1-1.6c0-.2-.1-.3-.2-.1-.3 1.8-.6 2.6-1 2.9.4-1.2.4-2 .3-2.7l-.1-.1c-.1 1-.3 1.9-.6 2.6-.4-.6.3-1.5.2-2.4h-.1l-.7 2.3c-.2 0-.1-.3.1-.9l.1-1.3-.1.1c-.2.7-.4 1.2-.6 1.7l.1-1.7-.5 1.2v-1l-.5.2c.2-.4.6-.7 1-.9 1.3-.2 2.5-.4 3.7-.9zm-3.3 6.5c.5.1.3.4-.1.4-.5 0-1.1 0-1.7-.3-.6-.3-1.1-.6-1.5-1-.2-.1 0-.4.3-.2 1.1.5 2.1.8 3 1.1zm-2.6-1.8l1.3-.1c.3 0 .5.1.7.4l.6.7c.3.3 0 .6-.2.5-.9-.3-1.7-.6-2.5-1-.2-.1-.2-.3.1-.5zm2.3-11.7l-2.2 2.3c.3-.3.5-.4.7-.6 1-.8 1.6-1.5 1.4-1-.3.6-.7 1.1-1.4 1.5l-.9 1-.1.2c1-1 1.5-1.3 1.6-1.1l-1.8 2.1 1.9-1.5c-.6.9-1.4 1.7-2.4 2.4v.2c1.1-.9 1.9-1.4 1.9-1.2-.2.4-.8 1.1-1.7 1.8l1-.5c.1.4-.1.7-.6.9-.6.1-.8.4-.8.6l.7-.3c0 .2-.3.6-.9 1l.8-.2c0 .2-.3.6-1 1.1l.7-.1c0 .2-.1.4-.4.6l1-.3c0 .2-.1.4-.5.5l.1.2c.6-.3.6-.1.4 0 .1.1.6-.1.2.5.4-.2.7 0 .6.3.8.1.7.9 0 .8-.4 0-.7.1-1.1.2-.4.2-.7.1-.8-.4-.3-1-.6-1.5-1-1.7-1.3-.6.3-1.2.4-1.8.1-.6.3-.9.7-1-.4 0-.4-.3 0-1-.2 0-.3-.1.4-1-.5.2-.7 0 .1-1-.7.4-.7.1 0-.8-.3-.1-.3-.4.1-.7-.6 0-.5-.2-.2-.4 1.2-.6 2.6-2.3 2.9-2.1l.2.5zm-9.9-.2l-.1.1-.8.2.3.3-.3.2.5-.1v.2l-.6.2c.4 0 .6.1.5.3l-.5.3.4.1-.5.2.4.3-.6.2c.4.1.5.3.6.4l-.6.3c.3.1.4.2.4.4l-.6.2.4.3-.4.1c.4.1.4.3.4.5l-.5.1c.4.1.6.3.5.4l-.6.3.6.1v.1l-.6.2c.4.2.6.3.6.5l-.6.3.6.1-.6.4c.3 0 .5 0 .5.2l-.5.3c.4.1.8.1 1.2.3l.1.2.1-.2c.3-.1.5-.1.8 0l.3.4.2-.4.3.5.2-.6.3.8.2-.8.3.7.2-.8.2.6.2-.7.3.7.3-.9.3.7.2-.6.3.5.2-.6.2.4c.2.4-.2.7-.6.8l-5.5.9c-.3 0-.7-.2-.8-1-.3-1.4-.1-2.7 0-4 .3-3 .8-4.4 1.3-5.4.2 0 .4.1.4.3l-.4.3.9.2zm1-.5l.1.3c-.8 2.8-.8 5.3-.3 7.5-.3-3.8 0-6 .6-7.2v.4c-.5 2.7-.6 4.8-.1 6.6l.1-.1c-.3-2.8-.1-5 .3-7.1h.3c-.5 2.8-.5 5-.1 7l.1-.1c-.3-2.9-.3-4.9.2-6.8h.2c-.4 2.8-.4 5-.1 6.8h.1c-.3-3-.1-5.2.3-6.8l.1.1c-.3 2.4-.3 4.6 0 6.6l.1-.1c-.1-2.6-.2-4.7.1-6.3l.2-.2c-.3 1.9-.3 4.1.1 6.5h.1c-.3-2.9-.2-5 .1-6.8l.1.1c-.1 2.3-.1 4.4 0 6.7h.1c-.1-3.2 0-5.3.3-6.6.3-.1.3.3 0 .7-.2 1.9-.3 3.8 0 5.9h.2c-.2-3 0-4.8.3-6.5.2-.2.4 0 .1.5-.3 2.1-.4 3.6-.2 6.1h.3c.3.1.3.2 0 .3-1.8.4-3.5.7-5.2.8-.3 0-.4-.1-.4-.6-.1-2.6.2-5 .8-7.2h.1c-.5 2.6-.7 5.1-.3 7.3.2-3.4.6-7.1 1.3-7.8zm1.9-3c.5-.3 1-.6 1-.4.1.1-.3.5-.8.8-.5.3-1 .5-1.1.4.1-.1.4-.5.9-.8zm-.3-.4c0-.1.1-.2.1-.2.1 0 .2.1.2.2s-.1.2-.2.2c0 0-.1-.1-.1-.2zm-.4.5c-.1 0-.2-.1-.2-.2s.1-.3.2-.3.2.1.2.3c0 .1-.1.2-.2.2zm2.9 9.4h-.1c-.1-2.1 0-3.9.4-5.7.1-.1.3-.1.3.1-.4 1.6-.5 3.4-.6 5.6zm.8-5.6c.1-.3.4-.2.3.1-.3 1.6-.6 3-.6 5.1l-.1-.3c.2-2 .2-3.1.4-4.9zm-.7 9.4l.6.6c.3.3.1.6-.2.4l-.7-.4c-.5-.4 0-.9.3-.6zm-.5.6l1.1.8c.3.3 0 .7-.3.5l-1.2-.7c-.3-.3.1-.8.4-.6zm1.6-8.8l.2-1.1c.3-.1.4-.1.3.2l-.5.9zm-1.4-6c-.3.2-.6.4-.6.3-.1-.1.1-.3.4-.5.3-.3.6-.4.6-.4.1.1-.1.3-.4.6zm-10.8-1.3c-.4 0-.7-.1-.7-.3 0-.1.3-.2.7-.2.3 0 .6.1.6.2 0 .2-.3.3-.6.3zm1.1-.2c-.1.2-.3.3-.4.3 0-.1 0-.3.1-.5s.3-.3.3-.3c.2 0 .2.3 0 .5zm.8-.1c-.2.3-.4.4-.4.3-.1-.1 0-.3.2-.6.1-.3.3-.4.4-.3 0 .1 0 .3-.2.6zm-.5-1.3l.2-.8c-.2.4-.5.8-1.1 1.1.4-.6.5-.9.4-1.1-.5.6-1 1-1.5 1.1l.3-.7c-.4.2-.6.6-1.1.6l.5-.8-.8.4.1-.5-.8.5.3-.7-.9.4v-.4l-.6.1v-.5l-.5.3-.1-.4-.7.3v-.6l-.5.3-.2-.3-.6.2-.1-.5-.6.6-.1-.4c-.2.1-.4.5-.6.5l-.1-.5c-.3.3-.5.7-.8.7l.1-.7c-.3.3-.6.8-1 .8l.1-.7c-.3.3-.5.7-.8.7l.3-.7c-.4.3-.9.8-1.1.8l.1-.7c-.2.1-.3.4-.5.3l.1-.4c.4-.8 1.1-1 2.1-1 2.1.1 4.1.1 6.1.7 3.1.9 5.2.6 6.8-.5.5-.2.6 0 .4.6-.1.6-.6.8-.9.7-.1.4-.4.7-.7.9v-.7c-.5.7-.8 1-1.2 1zm1.4.9c-.2.3-.5.5-.6.4-.1-.1 0-.4.2-.7.2-.3.5-.5.6-.4.1.1 0 .4-.2.7zm-3.2 6.3c.7-.6 1.5-.8 2.3-.8h1.5c.6 0 .5.6 0 .6h-1.1c-1 0-1.8.3-2.6.7-.4.1-.4-.3-.1-.5zm4.3 0c0 .1-.3.1-.7.1-.4 0-.7 0-.7-.1s.3-.1.7-.1c.3 0 .7 0 .7.1zm-21.7 8.9c.3-.5.4-.1.4.3-.6.9-1.1 1.4-1.5 1.7.1-.8.6-1.2 1.1-2zm-.8 6.1c-.2-.3-.3-.6-.3-.9 0-.4.4-.4.4-.1.2.6-.1.6-.1 1zm4.4-6.4c-.1.2-.2-.1-.2.1.2-1.6.5-3.2 1.1-4.6.6-1.5 1.8-3.3 3-4.4.8-.7 1.4-.9 2.4-1.6h-.1c-.8.3-1.3.5-1.9 1.1-1.4 1.1-2.6 2.8-3.3 4.4-.7 1.4-1.2 3-1.4 5.1-.1 1-.7 1.9-1 2.3-.6.7-1.1.3-1.9 2.4l-.2.1c.1-.4.3-1.1.6-1.4.3-.4.5-.6.8-1 .6-.7 1.1-1.6 1.4-3.1.2-1.1.4-2.6.7-3.6.4-1.1.7-1.7 1.1-2.3 1.3-1.8 1.8-2.9 4.8-4.5h-.3c-2.2.8-3.5 2.3-5.3 5.2-1.4 2.2-1 5-2.1 7-.3.7-1.2 1.7-1.7 2.2h-.2c.3-.8 1.2-1.5 1.6-2.3.3-.6.4-1.5.5-2.1.6-3.9 1.7-5.8 3.4-7.7h-.3c-3.5 3.9-3 6.6-3.8 9.2-.6 1.7-1.1 1.5-2.4 3.9 0-.4.1-.7.2-.9.1-.4.5-.7 1.1-1.5.6-.8 1-2.1 1.2-4 .1-.9.4-1.7.7-2.4.3-.8.5-1.3.8-1.8 1.4-2.2 2.6-3.6 4.3-4.5v-.1c-1.7.7-3.2 2.5-4.4 4.4-.7 1.1-1 1.9-1.4 3.2-.3 1-.4 2.2-.7 3.5-.2 1-.7 1.5-1.2 2.1-.3.4-.6.9-.8 1 .2-.6.1-1.2 1.1-2 .3-.3.5-.6.6-1 .1-3 1.1-5.6 2.7-8.2-.6.2-1.1.8-1.6 1.8 1-2.9 2.5-5.9 5.8-6.6 1.7-.4 4 .7 6.4 2.8-1.9.2-3.5.6-4.6 1.2l-.1-.2c.6-.5 1.4-.9 2.4-1.2h-.2c-1.4.3-2.8 1-4.3 2.6h-.2c1.2-1.8 2.7-2.6 4.3-3h-.7c-1.1.3-2.2 1-3.2 2-1.4 1.9-2.8 4.6-3.5 8.4zm7.1 2.2c.1 2.6.6 4.2-.9 5.7-1.4 1.4-2.5 1.2-2.7 2.9-.1 1.1-.4 2.1-.7 2.8-1.1-.6-1.2-1.8-.4-3.8 2.2-4 1.7-7.5-1-10.5 1.5-5.7 4-8.7 8.1-7.6-1.5 1.8-2.7 5-2.4 10.5zm-4.9 3.8c.2-.1.5-.1.7 0-.1.2-.6.3-1.1.4l.4-.4zm-.1-.5l.5-.1c.2 0 .4.1.5.3-.1.1-.6 0-1-.2zm.4 1.6c0 .1-.4.1-.7.1l.3-.2c.2 0 .4.1.4.1zm-.5.5c.3 0 .6 0 .7.2-.1.2-.7.2-1.4.1l.7-.3zm6.6-16.6l1.4-.3-.1.3h-1.3zm-8.4 19c.2-.1.4-.1.6-.1 0 .2-.4.4-.9.5l.3-.4zm-.2 1c.3-.2.6-.2.8-.1-.1.2-.6.5-1.2.6l.4-.5zm.1.6c.3-.1.6-.2.8 0-.1.2-.7.4-1.4.5l.6-.5zm.1.6c.3-.1.6-.1.8 0-.1.2-.7.4-1.3.5l.5-.5zm-.2.9l.3-.4c.2-.1.4-.1.6-.1-.1.3-.5.4-.9.5zm.5 1.3c0-.2.3-.4.6-.5h.6c-.5.3-1 .5-1.2.5zm.2.7c0-.3.3-.6.6-.7l.8-.1c-.6.5-1.2.8-1.4.8zm.4.3l.3-.2h.4c0 .2-.4.2-.7.2zm2.2 9.9c-.3 0-.5-.1-.7-.3-.4-.4-.4-1-.1-1.4.3-.4.6-.3.8.3h-.4c.4.2.7.5.7.8l-.6-.1c.4.3.6.6.6.8l-.4-.3.1.2zm.7-.7c-.1 0-.3-.1-.3-.4 0-.2.1-.4.2-.4s.3.1.3.4c0 .2-.1.4-.2.4zm-.3-2.3c.8.7.7 1-.4.9-.4-.1-.6-.4-.6-.9l-.4-1.5c.5-.2.6 0 .7.6.4.3.7.6.7.9zm-.5-7c-.3 1-.7 1.7-1.1 2.3.5-.3.8-1 1.2-2 .1-.3.4.1.3.7l-.3.3v.4h-.4v.6l-.3.1c.3.8-.1 1.3-.9.9-.3 1-1.4.5-.8-.4 1.4-2.2 2.7-4.4 2.9-7.4.1-1.1.7-1.5 1.6-2 1.8-1 2.4-2.7 2.4-4.6-.4-8.3 1.9-11.9 5.5-13.4l-.1.3c-3.2 1.9-4.5 5.7-4.6 10.8 0 1.1-.1 2.3 0 3.6l.1-.3c.1-3 .1-5.6.5-7.3.4-1.9 1-3.1 1.7-4 .2-.3.4-.7.6-.9.3-.3.6-.4.9-.6v.3c-1.2 1.2-2.2 2.8-2.7 4.8-.5 2.3-.6 5-.4 7.8 0 .4-.1.7-.3 1l.1-.1c.2-.4.3-1 .3-1.6-.3-3.4 0-6.8 1.2-9.2.8-1.7 1.4-2.3 3.7-3.6l-.1.3c-2 1.4-3.9 2.9-4.2 8.3l.1-.1c.4-4.1 1.8-7.1 4.6-8.2 1-.4 2.1-.3 3.3-.3l-.2.2c-1.9-.2-3.6.5-5 2l.2.1c1.4-1.4 2.9-2.2 4.9-1.7l-.1.3c-1.4-.2-2.6.3-3.7 1.1v.1c1.2-.8 2.4-1.2 3.5-1 .4 0 .5.3.4.8l-.2 2c0 1.9-.1 3.9-.6 5.6l-.2.1.2-3.4-.8 4.2c-.1.5-.4.4-.3 0 .2-.9.5-2.1.7-3.4-.2 0-.3.1-.4.4-.2 1.8-.5 3.3-.9 3.8.3-1.1.4-2.3.4-3.4l-.2.2-.6 3.2c.4.2-.1.6-.3.1l.2-1.8h-.1l-.8 2.8.3-1.9-.7 1.9h-.3l.3-1.7-1.1 3c-.3.1-.4 0-.1-.6l.7-2.1h-.2c-.4 1.5-.8 2.6-1.3 2.9h-.2c.8-1.4.9-2 .9-2.7-.4 1.3-.8 2.2-1.5 3-.1-.1 0-.4.5-1.2l.4-1.1c-.2-.2-.3-.1-.4.2-.3.9-.5 1.5-1 2.1l.5-1.8-.1-.2c-.3 1.1-.8 2-1.4 2.5l.3.1c1-.7 2.3-.4 3.7-1.1.3-.1.6-.2.8-.1l-.3.7-.3-.4c-.1.6-.4 1.1-.7 1.3l-.1-.8c-.6 1.3-1 2-1 1.4l.1-.8c-.4.4-.7 1-.8 1.6-.2 0-.3-.5-.2-1.1l-.4 1.4c-.3.1-.4-.3-.2-1.1-.3.7-.6 1.2-.7 1.3-.1-.2-.2-.6-.1-1.1l-.4.7c0 .5-.1.7-.4.7.1-.8.1-1.1 0-.9l-.4 1.2c-.3.1-.3-.1-.3-.8-.4.2-.3 1-.6 1.4-.2-.1-.3-.5-.2-.9-.2.6-.4 1-.6 1l-.1-1.2c-.1.5-.3 1-.5 1.4l-.3-.9-.1.8c-.3.1-.5-.1-.6-.6 0 1.1-.1 2.1-.9 2.6.1.3-.3 1.1-.7 1.9l1.2-1.7c.3-.1.4.1.3.6l-1.2 2c-.1.5-.3.4-.5.3zm14.3-11.9l-.1.7c0 .1-.3.2-.3 0l.1-.7c.1-.1.3-.2.3 0zm-.5.9c0 .1-.1.2-.1.2s-.1-.1-.1-.2.1-.2.1-.2c.1 0 .1.1.1.2zm-.3.6c0 .1-.3.3-.3 0l-.1-.5c0-.2.3-.3.3 0l.1.5zm-.7.1c0 .1-.1.2-.2.2s-.2-.1-.2-.2.1-.2.2-.2.2.1.2.2zm-.5 0v.5c0 .1-.3.3-.3 0v-.5c.1-.1.3-.2.3 0zm-.5.9c0 .1-.3.2-.3 0v-.4c0-.2.3-.2.3 0v.4zm-1.3-1.4l-.1.5-.1-.1.1-.4h.1zm-9.1 12.4l.4-.8c.2-.3.5-.4.8-.4 0 .3-.6.8-1.2 1.2zm3-.7c0 .2-.5.6-1 .9l.3-.6c.1-.1.1-.1.3-.2h-.2c-.1.2-.4.4-.8.6l.3-.5c0-.1.1-.1.1-.1-.1 0-.2 0-.4-.1l.7-.3c.3 0 .6.1.7.3zm.7 5.9c0-.1.3-.1.6-.1.3.1.5.2.5.3 0 .1-.3.1-.6.1s-.6-.1-.5-.3zm.2.6c0-.1.2-.1.5-.1s.4.1.4.2-.2.1-.5.1c-.2 0-.4-.1-.4-.2zm.6.7c-.2 0-.4-.1-.3-.1 0-.1.2-.1.4-.1s.4.1.4.2h-.5zm.7-3.8l-.6-.5.2 1-.4-.5-.1.9c-.1-.4-.3-.7 0-1.5s.7-1 .9-1c.2.3-.1.9 0 1.6zm.5-3c0 .2-.5.6-1 1l.3-.7.2-.2h-.3c-.1.2-.4.4-.7.6l.2-.6.1-.1h-.2c-.1.1-.3.3-.6.4l.1-.4c.3-.3.4-.3.8-.4.5-.1 1.2.1 1.1.4zm-2-.7c-.2-.6-.8-.7-1.9-.5-.3-.3-.8-.6-1.4-.7.6-2.2 1.9-3.3 4.2-3.7 2.2-.4 4.6-1.6 7.2-2.8 1.1-.8 1.2-.4.4 1.1l-1.2 1.4c-.7.7-.8 1.5.1 2.2 1.2.6 1.8 1.2 1.6 1.7-1.4-.4-2.6-.2-3.7.8-.8-.2-1.7-.1-3 .5-.7-.2-1.5-.2-2.3 0zm5.8 5.6c.1.1.1.3.1.3s-.1-.1-.3-.2c-.1-.1-.1-.3-.1-.3.1 0 .2 0 .3.2zm-2.1.8c-.6-.2-.5-.7.1-1.1.7.2.7.7-.1 1.1zm1-6.2s-.1.1-.2.1v.6l-.3-.6h-.1v.9l-.4-.8h-.2V80l-.5-1.1v-.1c-.1.2-.1.5-.2.7l-.1-.7c-.1.3-.3.7-.4 1V79v-.2h.1l.9-.6c.7-.1 1.5-.2 1.4.3zm.4 7.9c-.1 0-.2-.2-.3-.5-.1-.3-.1-.5 0-.6.1 0 .3.2.3.5.1.3.1.5 0 .6zm.4-.9l-.3-.3c-.1-.2-.1-.4 0-.4l.3.3c0 .3.1.4 0 .4zm.4-.5c-.1 0-.2-.1-.4-.3-.1-.2-.2-.4-.1-.4s.2.1.4.3c.1.2.2.3.1.4zm3.3-7h-.1l-.2.4-.4.7.3-.8.1-.4c-.1 0-.3-.1-.5-.1l-.9.9.4-.7.2-.3h-.2l-.9.9.4-.7.2-.3h-.3l-.2.3-.5.7.5-1c-.1 0-.3.1-.4.1l-.3.6.1-.6c-.3.1-.6.3-.7.7 0-.6.5-1 1.4-1.1 1.1 0 2.4.2 2 .7zm.6-13.6c.1-.3.3-.4.8-.4l4.9-.7c.3 0 .3.1.3.4-.1.5-.1.9-.4 1.3-.2.1-.2-.5-.2-1.4-.4.9-.2 1.8-.8 1.9-.3-.4.1-1.2.2-1.8-.6.5-.4 1.1-.8 1.8-.2 0-.1-.6 0-1.6-.3.7-.5 1.3-.7 1.6-.1-.2-.1-.8-.1-1.4-.2 1-.5 1.6-.7 1.7-.1-.6 0-1.1 0-1.6l-.1-.1c-.1.9-.3 1.5-.5 1.7-.2-.5-.2-1.1.1-1.7h-.2c-.1.5-.2.9-.4 1-.3 0-.4-.4-.4-.9-.3 1-.6 1.6-1 1.9-.3-.5-.2-1.1 0-1.7zm.4 7.3c-.1-.1.1-.3.2-.2l.4.4c.1.1-.2.3-.3.2l-.3-.4zm.1.7l-.4-.4c-.1-.1.1-.3.2-.2l.4.4c.1.1-.1.3-.2.2zm.1-1.3c-.1-.2.2-.4.4-.3l.7.7c.2.2-.3.5-.4.3l-.7-.7zm.7-.5c-.2-.2.1-.5.3-.3l.8.7c.2.2-.1.5-.3.4l-.8-.8zm1.1.2l-.7-.6c-.2-.2 0-.4.2-.3l.7.6c.3.2 0 .4-.2.3zm0-.8c-.1-.1 0-.4.2-.3l.6.5c.1.1-.1.4-.2.3l-.6-.5zm-2.5 2.3c-.1-.1.1-.3.2-.2l.4.4c.1.1-.1.3-.3.2l-.3-.4zm.6 15c-.2-.3-.1-.7 0-.9.1-.2.3-.1.3.1-.1.2 0 .4.1.6.1.2-.2.5-.4.2zm.8.1c-.3-.1-.3-.5-.3-.7.1-.1.3-.1.3 0 0 .2.1.3.2.4.2.2.1.5-.2.3zm-.3-5c.1.5.3 1 .5 1.2.1.3-.1.4-.2.3-.4-.6-.4-1.1-.3-1.5zm.9 8.2c0-.1.1-.1.3-.1.2 0 .4.1.4.1s-.1.1-.3.1c-.2 0-.4-.1-.4-.1zm.8.7c.3-.1.6-.1.7 0 .1.1-.1.2-.4.3-.3.1-.6.1-.7 0-.1-.1.1-.2.4-.3zm-.1-8.3c0-.3.1-.4.1-.4.1 0 .1.2.1.4 0 .3-.1.5-.1.5s-.1-.2-.1-.5zm-.1 8.9c-.1-.1.1-.2.5-.3.3-.1.7-.1.7 0s-.2.2-.5.3c-.4.1-.7.1-.7 0zm.5.2s.1-.1.4-.2c.2-.1.4-.1.5 0 0 0-.1.1-.3.2-.3.1-.5.1-.6 0zm.8.4c-.2 0-.4 0-.4-.1s.1-.1.3-.1c.2 0 .4.1.4.1 0 .1-.1.1-.3.1zm.1-3.4l-.8-.7c-.2-.4 0-.8.4-1.1 0 .3.1.6.3.7.4.4.5.8.1 1.1zm.5-8c-.1.2-.2.4-.3.3-.1 0 0-.2 0-.4.1-.2.2-.4.3-.3.1.1.1.2 0 .4zm.4-.9c-.1.2-.3.3-.3.3s0-.2.1-.4.3-.3.3-.3c.1.1 0 .3-.1.4zm1-1.8c-1.2 1.1-2.1 2.2-2.2 3.3-.4-.6.4-1.9 1.8-3.7-.8.6-1.5 1.4-2.2 2.3.1-.6.6-1.4 1.3-2.3-1.4 1.1-2.4 2.6-2.3 5.6-.6-1.8-.2-3.5 1-5.1l-1.6 1.7 1.4-2.2-.9.3.1-.3-.6.3v-.4l-.7.6.1-.6c-.3-.1-.4.1-.7.4-.2-.7.6-1 1.4-.6.7.3 1.5.4 2.5.1.5-.1 1.1-.1 1.6 0 .6.2.6.5 0 .6zm.6 11.6c0-.1.1-.2.3-.3.2-.1.3 0 .4 0 0 .1-.1.2-.3.3-.2.1-.4.1-.4 0zm1.9.8c.1.1-.1.3-.4.4-.3.1-.6.1-.6 0s.1-.3.4-.4c.2-.1.5-.1.6 0zm-1.2-.3c.2-.1.4-.1.5 0 0 .1-.1.3-.3.3-.2.1-.4.1-.5 0-.1-.1.1-.3.3-.3zm.7-11.9c-.1 0-.2-.2-.2-.4s0-.3.1-.3.2.2.2.4 0 .3-.1.3zm-.1-3.7c-.1-.1-.3-.1-.5-.2s-.1-.1-.4-.2c.3 0 .7.1 1 .1l.2.4c-.1 0 .3 1.2-.3-.1zm.8 3.6c-.1 0-.1-.1-.2-.3-.1-.2-.1-.4 0-.4 0 0 .1.1.2.3v.4zm0-3.4l-.3-.4h.3l.3.5c-.1 0-.2 0-.3-.1zm.5 3.5c-.1 0-.1-.1-.1-.3v-.5c.1 0 .2.2.3.5 0 .1 0 .3-.2.3zm.8-.1c-.1 0-.2-.1-.3-.4-.1-.3-.1-.5 0-.5 0 0 .2.2.3.5.1.2.1.4 0 .4zm.6.2c-.1 0-.2-.3-.3-.6-.1-.3-.1-.6 0-.6s.2.2.3.5c.1.4.1.6 0 .7zm.7 0c-.3 0-.2-.1-.3-.4v-.7c.1 0 .3.3.3.6.2.4.2.5 0 .5zm.6 0c-.1 0-.2-.2-.3-.6-.1-.3-.1-.6 0-.6s.2.2.3.6c.1.3.1.6 0 .6zm.3 2.5c-.1-.2-.1-.4-.1-.4s.1.1.2.3c.1.2.1.4.1.4-.1 0-.2-.1-.2-.3zm.1-2.4c-.1 0-.2-.3-.2-.7 0-.4.1-.7.2-.7s.2.3.2.7c0 .4 0 .7-.2.7zm.5 2.7c-.1.1-.1-.1-.2-.3-.1-.2-.1-.4 0-.5.1 0 .2.2.3.4 0 .2 0 .3-.1.4zm.2-2.7c-.1 0-.1-.3-.1-.6s0-.6.1-.6.1.3.1.6-.1.6-.1.6zm.7 3.9c-.1 0-.1-.2-.1-.4h.2c.1.2.1.4-.1.4zm.5 0c-.2 0-.2-.3-.1-.5.1-.3.1-.3.2-.3s.1.1.1.4c0 .2 0 .4-.2.4zm.5-.1c-.1 0-.1-.3-.1-.7h.2c0 .4 0 .7-.1.7zm-.1-1c0-.1.1-.2.1-.2s0 .1.1.2h-.2zm.4.2c.1-.3.1-.4.3-.4.1 0 .1.1.1.5 0 .3 0 .6-.3.6-.3-.1-.2-.4-.1-.7zm4.8 1.4c-.6 1.6-1.5 2.6-2.3 3.7l-.2.2c0-.1.1-.1.1-.2 0-.2-.1-.4-.1-.6.1.1.1.3.2.4l.3-.6c0-.2-.1-.4-.1-.6.1.1.1.3.2.4.1-.1.2-.3.3-.4-.1-.2-.1-.4-.2-.6.1.1.2.3.3.4l.3-.6c0-.2-.1-.4-.1-.6.1.1.1.2.2.4.1-.3.2-.6.2-.8l-3.8 2.3c.3-.3.7-.5 1-.8 0-.2-.1-.5-.1-.7l.3.6c.1-.1.2-.1.3-.2 0-.3-.1-.6-.1-.9.1.3.2.5.3.7l.3-.3c0-.4-.1-.8-.1-1.2.2.3.3.7.4 1l.3-.3c0-.5-.1-1.1-.2-1.7.3.5.4 1 .4 1.4l.2-.2c0-.6-.1-1.2-.2-1.8.3.6.5 1.1.5 1.5l.1-.1c0-.6-.1-1.4-.2-2.1.4.7.6 1.4.5 1.8l.2-.2c0-1.1-.4-2-.7-3-.1.5-.1.7-.3.7.1-.6 0-.8-.1-.9-.1.8-.3 1.3-.5 1.6l.1-1.3h-.2c-.2 1-.2 1.2-.6 1.6.1-.6.1-1 .1-1.1-.1 0-.2.1-.3.1v.1c0 .4 0 .8-.4 1.4 0-.5.2-1 .2-1.5-.1 0-.2.1-.3.1v.5c0 .2-.2.7-.3.8 0-.1.2-1.1.1-1.3-.1 0-.2 0-.3.1v.1c0 .1 0 .2-.1.2 0 0-.1-.1-.1-.2 0 0 0-.1-.1-.1h-.2v.2l-.2-.2h-.2c0 .2 0 .3-.1.3-.2.1-.2-.1-.2-.3-.1 0-.2 0-.3.1v.3l-.2-.2h-.3v.3l-.2-.2s0-.1-.1-.2c-.1-.2-.1-.4-.1-.5.1 0 .2.1.3.4 0 .1.1.2.1.3.1 0 .2-.1.3-.1v-.1c-.1-.3-.1-.6 0-.6s.2.2.3.5v.2c.1 0 .2-.1.3-.1v-.4-.2s.2.2.3.5c.1 0 .1 0 .2-.1v-.1c-.1-.2-.1-.3-.1-.4v-.2s.2.3.3.5v.1c.1 0 .1 0 .2-.1V80v-.5c0-.1 0-.2.1-.2 0 0 .1.1.1.2s.1.3.1.5c.1 0 .1 0 .2-.1v-.3c0-.1 0-.2.1-.2 0 0 .1.2.1.4.1 0 .2-.1.3-.1v-.4c0-.1 0-.2.1-.2 0 0 .1 0 .1.1s.1.2.1.4c.1 0 .1 0 .2-.1v-.6c0-.1.1-.3.1-.3s.1 0 .1.2v.6c.1 0 .1-.1.2-.1.3-1 .6-2.4.6-3.7-.1-.1-.1-.3-.2-.4-.1 1.4-.2 2.6-.6 3.3.2-1.1.3-2.3 0-3.7h-.1c0 1.5 0 2.8-.4 3.6.1-1.2.1-2.5-.4-3.9-.1 0-.1-.1-.2-.1.3.3.3 1.5.1 1.7-.2-.7 0-.9-.7-1.4h-.2c.3.4.4.9.3 1.4-.2-.4-.5-.9-.8-1.2h-.3c.5.6.5.7.4 1.1-.2-.5-.9-.8-1.2-1h-.3c.4.2.9.8.7 1.1-.3-.3-.8-.6-1-1-.1 0-.1.1-.2.1.1.2 0 .4 0 .6-.3-.1-.5-.1-.9-.6h-.2c0 .1.2.4.2.5-.1-.1-.8-.5-.9-.6 0 0 .1 0-.3-.1 0 .1.3.7.3.8-.1-.1-.6-.7-.7-.8-.2 0-.3 0-.5-.1l-.3-.6c1.7.1 3.5 0 5.7-.4l2.1-.4c.7-.2 1.2.1 1.3 1.2l.1 1.2c.4.6.6 1.4.2 2.5.2.8.6 1.4 1.3 2 .3.9.4 1.7-.3 2.8zm-4.4 2c.1.2.2.4.2.6l-.1.1c0-.2 0-.4-.1-.7zm-1.9-7.1c0-.4.1-.7.1-.7.1 0 .1.3.1.7 0 .4-.1.7-.1.7-.1 0-.1-.3-.1-.7zm.5-.1c0-.4.1-.8.2-.8s.1.4.1.8c-.1.4-.1.8-.3.8V78zm.8-.1c.1-.4.2-.8.3-.8.1 0 .1.4 0 .8s-.2.8-.3.8v-.8zm.9-.1c.1-.6 0-1.1.1-1 .1 0 .3.5.2 1.1-.1.6-.3 1-.4 1 0-.2.1-.6.1-1.1zm-3-7c.9.2 1.9 1 2.8 1.8.1.3.1.3-.1.2-.7-.2-1.6-1.3-2.7-2zm3.2 2.3s.2 0 .4.1.3.2.2.3c0 .1-.2 0-.4-.1s-.3-.3-.2-.3zm4.9 5.2c-.1-.3-.4-.6-.4-.9 0-.2.1-.1.2 0 .3.5.3.6.2.9zm.2-1c-.3-.3-.4-.9-.8-1.2.5.3.7.3 1 1 .1.2 0 .4-.2.2zm.2-.8c-.4-.5-.5-1.3-.9-1.8.6.4.9.5 1.2 1.5.1.4 0 .6-.3.3zm.6-1.1c0 .4-.2.7-.3.3-.1-.5-.4-1.6-.9-2.1.7.2 1.2 1.1 1.2 1.8zm-.9-2.3c.6.3 1 .7 1.2 1.4 0 .4 0 .6-.3.3-.1-.7-.4-1.2-.9-1.7zm.9 13.5c-.1 0 0-.3.1-.4 0-.1.1-.1.1-.1s0-.1-.1-.1c-.1.2-.3.3-.4.2-.1-.1 0-.3.1-.4 0 0 0-.1.1-.1l-.1-.1c-.1.1-.2.1-.3.1 0 0 0-.2.1-.3-.1-.1-.1-.3 0-.4.2-.2.3.1.6.6.1.2 0 .3.1.4.1.1.3.2.4.3.3.4.2.7.2.8-.1 0 0 0-.2-.3l-.1.1c-.1.1-.3.3-.3.2-.1 0 0-.2.1-.4l.1-.1s0-.1-.1-.1c0 0 0 .1-.1.1-.1-.1-.2 0-.3 0zm.4 5.4c-.1 0-.2-.1-.3-.3v-.4c.1 0 .2.1.3.3.1.2.1.4 0 .4zm-.3-4.3c-.1-.1 0-.3.1-.5.2-.2.4-.3.5-.3.1.1 0 .3-.1.5s-.4.4-.5.3zm.6 4.1s-.1-.1-.1-.2v-.3s.1.1.1.2c.1.1.1.2 0 .3zm.8 0c-.1 0-.2-.1-.2-.2s.1-.2.2-.2.3.1.3.2c-.1.1-.2.2-.3.2zm.1-1.6c-.1.2-.3.1-.7-.1-.6-.4-.4-.7.2-1.1.2.6 1.2 1 .5 1.2zm1.7-5.6c-.1.3-.3.4-.3.4-.1 0 0-.3.1-.5.1-.3.3-.5.3-.4.1 0 0 .2-.1.5zm1.5 6.2c.3.1.3.4.3.7-.2-.2-.4-.4-.6-.2-.5-.4-.7-.2-1.1-.1.2-.3.7-.7 1.4-.4zm-.2-5.6c-.2.3-.4.6-.5.5-.1 0-.1-.3.1-.7.1-.3.4-.5.5-.5.1.1 0 .4-.1.7zm.6 0c-.1.2-.2.4-.3.3 0 0 0-.2.1-.4s.2-.4.3-.3c0 0-.1.2-.1.4zm2.6-11.4c.1-.1.1-.3-.1-.3s-.3 0-.4-.2c-.1-.4.1-.7.4-.8.3 0 .4.1.3.3l-.2.1c.3.1.6.2.7.4-.2 0-.3 0-.3.2.6-.1.6.9 0 .7-.4-.1-.6 0-.4.7.1.7.7.9.6.1-.1-.4 1.2-.4 1.3.4l-.5-.2c.1.6.6.3.7.8h-.4c.5.3.8.7 1 1.2-.5-.1-.6-.6-1-.6.6.8 1.4.7 1.7 1.5-.5 0-1.1-.4-1.8-1.1.6.9 1 1.6.9 2-.9-.4-1.1-1.8-1.5-2.2 0 .7.5 1.1.3 1.9-.4-.4-.6-1.1-.6-2.2.4.1.5-.2.5-.8-.1-.7-.4-.6-.3 0 0 .5-.3.6-1.3 0-.1.1.1.3.6.7v.6l.3-.5.1 1.5c0 .4-.1.3-.3-.1l-.1-.8c0 .6-.1.8-.3.8l-.1-1.4-.4.5-.1-.8-.4.3v-1c-.3.1-.6 0-.8-.4.4.1.7 0 1-.1-.1-.7.2-1.1.9-1.2zm-3-3.8c.3-.4.5 0 .8.1l-.4.2.5.1-.4.2.8.4-.5.1.7.4-.6.1c.6.2 1 .3.9.5l-.6.1c.3.1.8.1.8.4 0 .2-.4.1-.6.1l.6.4h-.5l.4.2c0 .3-.2.5-.4.6-.6-.1-.1-.4-.5-1-1.3-1.3-1.2-2.6-1-2.9zm.2 3.7c-.1.1-.4 0-.5-.1-.1-.1 0-.3.1-.3.2-.1.4 0 .5.1.1.1.1.3-.1.3zm-.4-.7c-.1.2-.4.3-.6.3-.2-.1-.2-.3-.1-.5s.4-.3.6-.3c.3.1.3.3.1.5zm-.8-.6c-.1 0-.2-.2-.1-.4s.2-.3.3-.2c.1 0 .2.2.1.4 0 .2-.2.3-.3.2zm.3-2.4c-.1.1-.1.3-.1 1-.2-.5-.3-.9-.1-1.2.3-.7.5-.8.7-.8.4.3-.4.6-.5 1zm-.3-1.3c.2-.2.4-.3.5-.2.1.1 0 .3-.2.5s-.4.3-.5.3c-.1-.2 0-.4.2-.6zm-.2 2.3c.1 0 .2.1.2.3 0 .1-.1.2-.2.2s-.3-.1-.3-.2c0-.2.1-.3.3-.3zm-.2 1.4c.1.4.5 1.1-.5.2-.6-.3-.7 0-.2.9l1 1.4c.1.7.3 1.2.8 1.7l.8 1.7c0 .3.1.5.2.7.1.6.3 1 .8 1-.5 1-1.2 1.9-2.3 2.5-2.2 1.2-3.9.7-3.7-2.2.1-1.5.4-2.8.4-4.4.6-2.5 0-3.7-2.1-3.9-1.1 0-1.9 0-2.6.5-.6.4-1.4.3-2.6-.4-2.2-1.7-3.9-2.5-5-2.5 1.1 1.2 1.4 2.4.5 3.6.9.4.8.8 0 1.2-2.1.1-4.5-.4-7-1.1-.8-.1-1 0-.4.4 1.8.7 2.8 1.8 2.8 3.4-1.2 0-2.2.1-2.7.2-.5.3-1.1.3-1.6-.3-1.3-1.4-1.5-2.6 0-3.6.8-.6 2.1-1.9 3.6-4 1-.1 1.9-.3 3-.4 4.1-.5 8-1.4 11.1-3.1.6-.2 1-.1 1.3.4l2.4 3.2-.7.3 1.8 1.4c-.3.3-.1.4.3.6.2.3.3.6.6.6zm-.7-3.2l.2-.1.4 1.5-1.1-.6.1-.3c-13.1-17.8-24.2-33-31.6-43.3-.1-.6 0-.8.6-.6 9.6 12.7 21.3 29.3 31.4 43.4zm9.5-10.6c.4 0 .7.2.8.5.2.3.4.6.8.8-.8-1.3-.9-1.9-.1-1.4.7.4 1 1.1.9 2.1.2.5.1.6-.8 0-.4-.2-.4-.3 0-.5l-1.1-.9c1 1.5.3 1.1-.5.1.6 1.2.1.8-.6.2h-.2c1.3 1 .2.8-.6.1l-.1.1c2.2 1.6-.1.7-1.1.1.7.6 1.5 1.1 1.3 1.1-.5.1-1.5-.3-2.6-.8.9.6 1.7.9 1.2 1-.2.1-1-.3-2.5-.9-.4-.1-.5 0-.3.1 1.3.5 2 .9 1.9 1.1-.2.3-1.2-.2-2.6-.9-.4-.2-.9-.4-1.4-.6.8.8 4 2 3.3 2.3-.3.1-.8-.1-1.5-.5-.8-.4-1.7-1-2.6-1.7-.8-.6-1.5-1.2-2-1.7v.2c1.9 2.1 5.6 4 4.4 3.9-.4 0-.3 0-.7-.1-2.6-1.3-4.3-3.4-5.6-5.1l-.1.1c1.6 2.5 4.5 4.5 4.2 4.7-.3.2-2.1-1.3-3.3-2.6-.8-.9-1-1.2-1.9-2.5v.3c2.5 4.1 5.7 4.9 5 5.4-.2.1-.3 0-.5-.1-2.9-1.8-3.7-3.9-5.3-5.7l-.1.1c1 1.7 2.7 3.5 4.1 5.2.2.2 0 .4-.1.3-1.6-1-3-3.3-4.6-5.7v.1c1.4 2.6 4.3 5.7 3.5 5.5-.2-.1-.8-1-1.5-1.9-.5-.7-1.1-1.5-1.5-2.1l-.1.3c.7 1.1 1.8 2.4 2.2 3.4h-.1l-2.4-3.1-.1.1c1 1.2 2.2 2.7 2 3l-2.1-2.4c.1.7.8 1.4.6 1.5-.2-.2-.7-.9-1.1-1.6-.1-.3 0 .4-.2.2-1.5-1.8-2.9-3.6-4.1-5.6-.2-.4-.1-.4.3-.1l2.9 3.1c-1.9-2.1-3.2-3.7-2.9-3.9 1 1.2 2.1 2.3 3.2 3.4-2.3-2.7-3.4-4-3.1-3.9.6.4 2.1 2.1 3.3 3.5-1.7-2.3-3.7-4.1-3.7-4.5 0-.2.4-.2.6 0 1 1.4 2.2 2.6 3.5 3.9-.9-1.4-3.3-3.7-3.2-3.9.1-.2.4-.2.7 0 .8 1.2 1.7 2.2 2.8 3.3-.8-1.1-2.7-3-2.5-3.3 0-.1.3-.1.5 0 .4.6.8 1 1.3 1.7.3.4.8.8 1.2 1.2l-2.2-2.9c.1-.1.1-.1.2-.1s.2 0 .3.1c.5.9 1.3 1.7 2.2 2.7l-1.8-2.6c0-.2.7-.1.8 0l1.6 2.3c-.7-1.6-1.6-2.3-1.1-2.3.5.1.8.5 1.2 1 .3.4.6.6.7.9l-1-1.7c0-.1.4-.1.7.1l.7.8-.3-.7c0-.2.3-.1.5 0l.6 1 .1-.1c-.4-.6-.6-.9-.4-1l.6.1.5.6c-.1-.7.5-.5 1.5-.1.7.2 1.3 1 1.9 2.2-.1.1-.4-.3-.7-.6-.1-.2-.2-.3-.4-.5.7 1.2 1.5 2.5 1.6 3.1-.2.2-1-1.2-1.9-2.8.5 1.3 1.1 2.4 1.3 2.9-.1 0-.4-.6-.9-1.4-.1-.2-.3-.3-.5-.6l1.2 2.3c.2.1.4.4.2.7-.2.4-.1.6.4.9.4.3 1.4.5 2.6.3 1.3-.3 3-.6 4.7-.6zm-.7-4.2l-.1 1.6c-.1.2-.3.6-.4 0l.2-1.4-.3.5c-.2 0-.3-.2-.3-.7 0-.5 0-.7.3-.6l.2.5.1-.3c.4-.2.4 0 .3.4zm2.1-.4c-.6.7-1 .9-1.2.4l-.2 1c-.1.4-.3.5-.3.2 0-.7.2-1.4.4-2.1.1-.3.3-.4.4-.2.7-1.1.5-.5.2.3l.2.1c.9-1.5.6-.3.5.3zm2.3-2.5c-.2-.2-.5-.3-.7-.1 0 .3-.1.4-.3.1-.2-.3-.3-.7 0-.9.2-.3.6-.3.8-.1.2.1.3.3.3.4l-.4.1.6.1c.2.3 0 .8-.3.4zm4.1 6.4c-.4-.4-.3-.7.2-.7-.4-.7 0-.8.5-.1.2.3.3 1 .2 1.8 0 .2-.3.3-.4 0-.2-.5-.4-.8-.5-1zm.8 5c-.2 0-.3-.2-.5-.3l.3.4c.1.2-.1.3-.4.1l-.8-.6c-.2-.3-.1-.7.3-1.2.1-.1.2-.1.3 0l.6.4c.1.1.1.1 0 .2-.2.2-.1.3.2.6.2.2.1.4 0 .4zm.3-1.2c-.2 0-.4-.1-.6-.3-.3-.3-.3-.5-.3-.7l.2-.8c0-.2.1-.2.2 0 .3.4.6.7.6 1.4.1.3.1.4-.1.4z"/><path fill="url(#paint20_linear)" d="M105.911 47.2c0-.5-.4-1-.9-1.3 0 .1.3.4.6.7.1.3.2.5.3.6z"/><path fill="url(#paint21_linear)" d="M104.711 46.7c0 .1.5.6.8 1.1.3.4.4.7.5.8 0-.7-.5-1.4-1.3-1.9z"/><path fill="url(#paint22_linear)" d="M105.611 28.1c-.1-.5-.1-1-.3-1-.2.6 0 1.5.6 2.2.1-.1-.2-.7-.3-1.2z"/><path fill="url(#paint23_linear)" d="M105.411 29.4c0-.1-.2-.5-.4-.9-.1-.4-.3-.8-.4-.8 0 .6.3 1.3.8 1.7z"/><path fill="url(#paint24_linear)" d="M104.611 31.2c0-.2-.5-.7-.8-1.3-.3-.6-.4-1-.6-1.1.1.8.6 1.7 1.4 2.4z"/><path fill="url(#paint25_linear)" d="M98.41 60c.1 0 .3-.1.2-.2 0-.1-.1-.1-.3-.1-.1 0-.3.1-.2.2.1.1.2.2.3.1z"/><path fill="url(#paint26_linear)" d="M104.311 32.2c0-.2-.6-.9-1-1.5-.3-.7-.4-1.1-.6-1.3.1.9.7 2 1.6 2.8z"/><path fill="url(#paint27_linear)" d="M111.611 34.1c.1.2.2.2.2.1-.1-.4-.3-.8-.3-1.1 0-.1-.1-.2-.1-.3-.1 0 0 .4.1.7-.1.2-.1.4.1.6z"/><path fill="url(#paint28_linear)" d="M98.51 60.2c-.1.1 0 .2 0 .2s.1 0 0-.2z"/><path fill="url(#paint29_linear)" d="M111.011 33.7c.1.2.2.3.2.2-.1-.5-.3-.9-.3-1.3 0-.2-.1-.3-.1-.3-.1 0 0 .5 0 .8 0 .2.1.4.2.6z"/><path fill="url(#paint30_linear)" d="M105.011 30.3c0-.1-.3-.6-.6-1.1-.2-.5-.3-.9-.5-1 0 .7.4 1.5 1.1 2.1z"/><path fill="url(#paint31_linear)" fill-rule="evenodd" d="M126.58 93.263C128.825 90.972 130 87.74 130 84V12H55v72c0 3.741 1.175 6.972 3.42 9.263C60.66 95.548 64.063 97 68.723 97h9.053c5.558 0 10.622 1.833 14.722 5.611C95.871 99.472 100.436 97 107.224 97h9.052c4.661 0 8.065-1.452 10.304-3.737zm-33.894 10.552L92.5 104l-.161-.161C88.345 99.907 83.335 98 77.776 98h-9.052C58.974 98 54 91.9 54 84V11h77v73c0 7.9-4.974 14-14.724 14h-9.052c-6.833 0-11.272 2.599-14.538 5.815z" clip-rule="evenodd"/></g><defs><linearGradient id="paint0_linear" x1="54" x2="43.397" y1="104" y2="22.38" gradientUnits="userSpaceOnUse"><stop stop-color="#A36141"/><stop offset="1" stop-color="#E89E75"/></linearGradient><linearGradient id="paint1_linear" x1="54" x2="43.397" y1="104" y2="22.38" gradientUnits="userSpaceOnUse"><stop stop-color="#A36141"/><stop offset="1" stop-color="#E89E75"/></linearGradient><linearGradient id="paint2_linear" x1="54" x2="43.397" y1="104" y2="22.38" gradientUnits="userSpaceOnUse"><stop stop-color="#A36141"/><stop offset="1" stop-color="#E89E75"/></linearGradient><linearGradient id="paint3_linear" x1="54" x2="43.397" y1="104" y2="22.38" gradientUnits="userSpaceOnUse"><stop stop-color="#A36141"/><stop offset="1" stop-color="#E89E75"/></linearGradient><linearGradient id="paint4_linear" x1="54" x2="43.397" y1="104" y2="22.38" gradientUnits="userSpaceOnUse"><stop stop-color="#A36141"/><stop offset="1" stop-color="#E89E75"/></linearGradient><linearGradient id="paint5_linear" x1="54" x2="43.397" y1="104" y2="22.38" gradientUnits="userSpaceOnUse"><stop stop-color="#A36141"/><stop offset="1" stop-color="#E89E75"/></linearGradient><linearGradient id="paint6_linear" x1="54" x2="43.397" y1="104" y2="22.38" gradientUnits="userSpaceOnUse"><stop stop-color="#A36141"/><stop offset="1" stop-color="#E89E75"/></linearGradient><linearGradient id="paint7_linear" x1="54" x2="43.397" y1="104" y2="22.38" gradientUnits="userSpaceOnUse"><stop stop-color="#A36141"/><stop offset="1" stop-color="#E89E75"/></linearGradient><linearGradient id="paint8_linear" x1="54" x2="43.397" y1="104" y2="22.38" gradientUnits="userSpaceOnUse"><stop stop-color="#A36141"/><stop offset="1" stop-color="#E89E75"/></linearGradient><linearGradient id="paint9_linear" x1="54" x2="43.397" y1="104" y2="22.38" gradientUnits="userSpaceOnUse"><stop stop-color="#A36141"/><stop offset="1" stop-color="#E89E75"/></linearGradient><linearGradient id="paint10_linear" x1="54" x2="43.397" y1="104" y2="22.38" gradientUnits="userSpaceOnUse"><stop stop-color="#A36141"/><stop offset="1" stop-color="#E89E75"/></linearGradient><linearGradient id="paint11_linear" x1="54" x2="43.397" y1="104" y2="22.38" gradientUnits="userSpaceOnUse"><stop stop-color="#A36141"/><stop offset="1" stop-color="#E89E75"/></linearGradient><linearGradient id="paint12_linear" x1="54" x2="43.397" y1="104" y2="22.38" gradientUnits="userSpaceOnUse"><stop stop-color="#A36141"/><stop offset="1" stop-color="#E89E75"/></linearGradient><linearGradient id="paint13_linear" x1="54" x2="43.397" y1="104" y2="22.38" gradientUnits="userSpaceOnUse"><stop stop-color="#A36141"/><stop offset="1" stop-color="#E89E75"/></linearGradient><linearGradient id="paint14_linear" x1="54" x2="43.397" y1="104" y2="22.38" gradientUnits="userSpaceOnUse"><stop stop-color="#A36141"/><stop offset="1" stop-color="#E89E75"/></linearGradient><linearGradient id="paint15_linear" x1="54" x2="43.397" y1="104" y2="22.38" gradientUnits="userSpaceOnUse"><stop stop-color="#A36141"/><stop offset="1" stop-color="#E89E75"/></linearGradient><linearGradient id="paint16_linear" x1="54" x2="43.397" y1="104" y2="22.38" gradientUnits="userSpaceOnUse"><stop stop-color="#A36141"/><stop offset="1" stop-color="#E89E75"/></linearGradient><linearGradient id="paint17_linear" x1="54" x2="43.397" y1="104" y2="22.38" gradientUnits="userSpaceOnUse"><stop stop-color="#A36141"/><stop offset="1" stop-color="#E89E75"/></linearGradient><linearGradient id="paint18_linear" x1="54" x2="43.397" y1="104" y2="22.38" gradientUnits="userSpaceOnUse"><stop stop-color="#A36141"/><stop offset="1" stop-color="#E89E75"/></linearGradient><linearGradient id="paint19_linear" x1="54" x2="43.397" y1="104" y2="22.38" gradientUnits="userSpaceOnUse"><stop stop-color="#A36141"/><stop offset="1" stop-color="#E89E75"/></linearGradient><linearGradient id="paint20_linear" x1="54" x2="43.397" y1="104" y2="22.38" gradientUnits="userSpaceOnUse"><stop stop-color="#A36141"/><stop offset="1" stop-color="#E89E75"/></linearGradient><linearGradient id="paint21_linear" x1="54" x2="43.397" y1="104" y2="22.38" gradientUnits="userSpaceOnUse"><stop stop-color="#A36141"/><stop offset="1" stop-color="#E89E75"/></linearGradient><linearGradient id="paint22_linear" x1="54" x2="43.397" y1="104" y2="22.38" gradientUnits="userSpaceOnUse"><stop stop-color="#A36141"/><stop offset="1" stop-color="#E89E75"/></linearGradient><linearGradient id="paint23_linear" x1="54" x2="43.397" y1="104" y2="22.38" gradientUnits="userSpaceOnUse"><stop stop-color="#A36141"/><stop offset="1" stop-color="#E89E75"/></linearGradient><linearGradient id="paint24_linear" x1="54" x2="43.397" y1="104" y2="22.38" gradientUnits="userSpaceOnUse"><stop stop-color="#A36141"/><stop offset="1" stop-color="#E89E75"/></linearGradient><linearGradient id="paint25_linear" x1="54" x2="43.397" y1="104" y2="22.38" gradientUnits="userSpaceOnUse"><stop stop-color="#A36141"/><stop offset="1" stop-color="#E89E75"/></linearGradient><linearGradient id="paint26_linear" x1="54" x2="43.397" y1="104" y2="22.38" gradientUnits="userSpaceOnUse"><stop stop-color="#A36141"/><stop offset="1" stop-color="#E89E75"/></linearGradient><linearGradient id="paint27_linear" x1="54" x2="43.397" y1="104" y2="22.38" gradientUnits="userSpaceOnUse"><stop stop-color="#A36141"/><stop offset="1" stop-color="#E89E75"/></linearGradient><linearGradient id="paint28_linear" x1="54" x2="43.397" y1="104" y2="22.38" gradientUnits="userSpaceOnUse"><stop stop-color="#A36141"/><stop offset="1" stop-color="#E89E75"/></linearGradient><linearGradient id="paint29_linear" x1="54" x2="43.397" y1="104" y2="22.38" gradientUnits="userSpaceOnUse"><stop stop-color="#A36141"/><stop offset="1" stop-color="#E89E75"/></linearGradient><linearGradient id="paint30_linear" x1="54" x2="43.397" y1="104" y2="22.38" gradientUnits="userSpaceOnUse"><stop stop-color="#A36141"/><stop offset="1" stop-color="#E89E75"/></linearGradient><linearGradient id="paint31_linear" x1="54" x2="43.397" y1="104" y2="22.38" gradientUnits="userSpaceOnUse"><stop stop-color="#A36141"/><stop offset="1" stop-color="#E89E75"/></linearGradient><filter id="filter0_i" width="77" height="93" x="54" y="11" color-interpolation-filters="sRGB" filterUnits="userSpaceOnUse"><feFlood flood-opacity="0" result="BackgroundImageFix"/><feBlend in="SourceGraphic" in2="BackgroundImageFix" result="shape"/><feColorMatrix in="SourceAlpha" result="hardAlpha" values="0 0 0 0 0 0 0 0 0 0 0 0 0 0 0 0 0 0 127 0"/><feOffset dy="1"/><feComposite in2="hardAlpha" k2="-1" k3="1" operator="arithmetic"/><feColorMatrix values="0 0 0 0 1 0 0 0 0 1 0 0 0 0 1 0 0 0 1 0"/><feBlend in2="shape" mode="soft-light" result="effect1_innerShadow"/></filter></defs></svg>