<svg xmlns="http://www.w3.org/2000/svg" width="185" height="107" fill="none" viewBox="0 0 185 107"><g filter="url(#filter0_i)"><path fill="url(#paint0_linear)" d="M99.826 70.957c-3.813 2.408-8.127 2.91-12.542 1.705-5.117-1.405-8.127-5.318-8.127-10.635v-24.08h6.321s0 15.953.1 23.177c0 3.712 1.405 5.217 5.118 5.518 1.003.1 2.006.1 3.01-.1 2.91-.401 4.214-2.107 4.314-5.017v-23.78h6.421v23.78s0 3.21-.501 3.813l9.532 9.632C118.689 69.552 122 62.228 122 54c0-16.555-13.445-30-30-30S62 37.445 62 54s13.445 30 30 30c6.02 0 11.639-1.806 16.355-4.816-2.91-2.508-6.823-6.421-8.529-8.227z"/></g><defs><linearGradient id="paint0_linear" x1="62" x2="56.306" y1="84" y2="31.066" gradientUnits="userSpaceOnUse"><stop stop-color="#A36141"/><stop offset="1" stop-color="#E89E75"/></linearGradient><filter id="filter0_i" width="60" height="60" x="62" y="24" color-interpolation-filters="sRGB" filterUnits="userSpaceOnUse"><feFlood flood-opacity="0" result="BackgroundImageFix"/><feBlend in="SourceGraphic" in2="BackgroundImageFix" result="shape"/><feColorMatrix in="SourceAlpha" result="hardAlpha" values="0 0 0 0 0 0 0 0 0 0 0 0 0 0 0 0 0 0 127 0"/><feOffset dy="1"/><feComposite in2="hardAlpha" k2="-1" k3="1" operator="arithmetic"/><feColorMatrix values="0 0 0 0 1 0 0 0 0 1 0 0 0 0 1 0 0 0 1 0"/><feBlend in2="shape" mode="soft-light" result="effect1_innerShadow"/></filter></defs></svg>