<svg xmlns="http://www.w3.org/2000/svg" width="185" height="108" fill="none" viewBox="0 0 185 108"><g filter="url(#filter0_i)"><path fill="url(#paint0_linear)" d="M18 71c.8-.892 1.5-1.784 2.2-2.676 8.097-9.91 16.095-19.919 24.193-29.828.3-.298.6-.496 1-.496h17.295c-.2.793-.4 1.586-.6 2.28L54.59 70.603c-.1.297-.1.396-.5.396H18.3 18zm30.892-26.658H43.193c-.3 0-.4.1-.4.397v6.738h-7.198v6.046h7.198v7.036h6.199v-7.036h7.098v-6.046h-7.198v-7.135z"/><path fill="url(#paint1_linear)" d="M115.574 43.946c-.4 1.288-.7 2.477-1 3.766-1.599 5.648-3.199 11.396-4.799 17.045-.1.297-.2.396-.399.396h-4.999c-.3 0-.4-.099-.5-.396-1.3-4.559-2.599-9.117-3.999-13.676 0-.099-.1-.198-.1-.396-.1.198-.1.297-.1.396-1.3 4.559-2.7 9.117-3.999 13.676-.1.297-.2.396-.5.396h-4.998c-.3 0-.4-.099-.4-.297-1.9-6.838-3.8-13.577-5.699-20.415 0-.099 0-.198-.1-.396H88.981c.3 0 .4.1.5.396 1.1 4.46 2.2 8.92 3.399 13.379 0 .099.1.198.1.396.3-.892.5-1.585.7-2.378 1.1-3.766 2.2-7.63 3.399-11.397.1-.297.2-.396.5-.396h4.598c.3 0 .4.1.5.396l3.899 13.379c0 .099.1.198.1.396.2-.793.4-1.387.5-2.08 1-3.866 2-7.83 2.899-11.695.1-.297.2-.396.5-.396h4.599c.1-.1.2-.1.4-.1z"/><path fill="url(#paint2_linear)" d="M161.462 49.595h-5.199v-.298c-.2-1.288-1.1-2.08-2.399-2.18-.7-.099-1.4 0-2.1.297-1.299.595-1.599 2.28-.4 3.27.7.595 1.5.794 2.4 1.09 1.599.496 3.099.992 4.598 1.685 1.7.694 3 1.982 3.4 3.865.899 3.469-.8 6.54-4.199 7.73-3.2 1.09-6.399.991-9.498-.396-2.199-.991-3.299-3.072-3.299-5.45h5.299c0 .197 0 .396.1.594.2.99.799 1.784 1.899 2.08 1.3.397 2.499.397 3.599-.495 1.2-.892 1.1-2.576-.1-3.468-.9-.595-1.899-.892-2.899-1.288-1.3-.397-2.599-.793-3.799-1.388-1.9-.793-3.099-2.18-3.499-4.261-.6-3.072.8-5.649 3.699-6.739 2.999-1.189 6.098-1.189 9.098.1 2.099.891 3.199 2.576 3.299 4.756v.496z"/><path fill="url(#paint3_linear)" d="M142.367 49.595h-5.199v-.298c-.2-1.09-.8-1.783-1.999-1.982-.8-.198-1.6-.099-2.4.199-1.499.594-1.799 2.378-.5 3.369.7.495 1.5.694 2.3.99 1.599.496 3.099.992 4.599 1.686 1.699.693 2.999 1.982 3.399 3.765.899 3.469-.8 6.64-4.199 7.73-3.199 1.09-6.399.991-9.498-.496-2.199-.99-3.199-2.873-3.299-5.252v-.198h4.899c.2 0 .3.1.3.297.2 1.487 1.2 2.379 2.699 2.577.7.1 1.4.1 2.1-.198.699-.297 1.199-.793 1.499-1.586.3-.892 0-1.684-.9-2.28-.899-.594-1.899-.891-2.799-1.188-1.3-.397-2.599-.793-3.799-1.388-1.799-.792-2.999-2.08-3.499-4.063-.7-3.17.7-5.847 3.799-6.937 2.999-1.09 6.098-1.09 8.998.199 2.099.891 3.199 2.576 3.299 4.756.2 0 .2.1.2.298z"/><path fill="url(#paint4_linear)" d="M77.884 49.595c0-.1 0-.199-.1-.397-.2-.99-.7-1.684-1.7-1.883-.9-.198-1.8-.198-2.699.1-1.5.594-1.7 2.378-.4 3.27.6.396 1.2.693 1.9.892 1.5.594 2.999 1.09 4.499 1.585.7.297 1.4.694 1.999 1.09 1.4.991 2 2.478 2 4.162.1 2.973-1.4 5.45-4.3 6.442-3.099 1.09-6.198.99-9.197-.297-2.2-.991-3.399-2.676-3.599-5.154v-.495h5.299v.297c.2 1.487 1.2 2.379 2.699 2.577 1 .099 2 0 2.8-.595 1.199-.99 1.099-2.675-.2-3.468-.8-.496-1.7-.793-2.6-1.09-1.3-.496-2.7-.892-3.999-1.388-1.8-.793-3.1-2.18-3.5-4.162-.599-3.27.9-5.847 4-6.937 2.9-.99 5.898-.99 8.797.198 2.2.892 3.3 2.676 3.4 4.955v.199c-1.7.099-3.4.099-5.099.099z"/><path fill="url(#paint5_linear)" d="M117.673 43.946h5.499v21.108h-5.499V43.946z"/></g><defs><linearGradient id="paint0_linear" x1="-15.594" x2="-15.412" y1="74.937" y2="41.456" gradientUnits="userSpaceOnUse"><stop stop-color="#DC9674"/><stop offset="1" stop-color="#A96540"/></linearGradient><linearGradient id="paint1_linear" x1="-15.594" x2="-15.412" y1="74.937" y2="41.456" gradientUnits="userSpaceOnUse"><stop stop-color="#DC9674"/><stop offset="1" stop-color="#A96540"/></linearGradient><linearGradient id="paint2_linear" x1="-15.594" x2="-15.412" y1="74.937" y2="41.456" gradientUnits="userSpaceOnUse"><stop stop-color="#DC9674"/><stop offset="1" stop-color="#A96540"/></linearGradient><linearGradient id="paint3_linear" x1="-15.594" x2="-15.412" y1="74.937" y2="41.456" gradientUnits="userSpaceOnUse"><stop stop-color="#DC9674"/><stop offset="1" stop-color="#A96540"/></linearGradient><linearGradient id="paint4_linear" x1="-15.594" x2="-15.412" y1="74.937" y2="41.456" gradientUnits="userSpaceOnUse"><stop stop-color="#DC9674"/><stop offset="1" stop-color="#A96540"/></linearGradient><linearGradient id="paint5_linear" x1="-15.594" x2="-15.412" y1="74.937" y2="41.456" gradientUnits="userSpaceOnUse"><stop stop-color="#DC9674"/><stop offset="1" stop-color="#A96540"/></linearGradient><filter id="filter0_i" width="144" height="33" x="18" y="38" color-interpolation-filters="sRGB" filterUnits="userSpaceOnUse"><feFlood flood-opacity="0" result="BackgroundImageFix"/><feBlend in="SourceGraphic" in2="BackgroundImageFix" result="shape"/><feColorMatrix in="SourceAlpha" result="hardAlpha" values="0 0 0 0 0 0 0 0 0 0 0 0 0 0 0 0 0 0 127 0"/><feOffset dy="1"/><feComposite in2="hardAlpha" k2="-1" k3="1" operator="arithmetic"/><feColorMatrix values="0 0 0 0 1 0 0 0 0 1 0 0 0 0 1 0 0 0 1 0"/><feBlend in2="shape" mode="soft-light" result="effect1_innerShadow"/></filter></defs></svg>