<svg xmlns="http://www.w3.org/2000/svg" width="185" height="108" fill="none" viewBox="0 0 185 108"><g filter="url(#filter0_i)"><path fill="url(#paint0_linear)" d="M155 51.176c-.799 0-1.597.1-2.396.1-12.181 0-23.363-4.566-31.849-12.011-.2-.199-.999-.894-.999-.894-2.396-2.084-4.992-3.772-8.386-3.474-2.296.199-4.393 1.092-4.693 4.17-.1.893-.499 1.488-1.597 1.885h-.1c-.499.199-.998.298-1.498.397v-2.978c-.599 0-.998 0-1.497-.099l.998-1.787.4-.794c.399.1.798.199 1.198.199 1.098 0 1.597-.397 2.396-.993l-1.697-.794h.099c.699 0 1.498.198 2.097.496.1.1.399.298.399.298.1-.298.3-.496.3-.794.299-1.588-1.298-2.382-2.696-2.58l.599-.994h-.998v-.595c.399-.397.699-.894.699-1.49 0-1.091-.899-1.885-1.897-1.885h-.4l.2.595c0-.496-.399-.893-.799-.992v-.397h.5v-.397h-.5v-.596h-.399v.496h-.499v.397h.499v.298c-.499.1-.799.497-.799.993l-.199-.596h-.4c-.898 0-1.597.596-1.797 1.39 0-1.588-.998-2.68-2.396-3.177l.2-.694h-2.097l-.3.694h-.998c.2-.198.3-.496.3-.794 0-.595-.4-.992-.899-1.19v-.299h.699v-.595h-.699V21H92.5v.695h-.699v.595h.699v.398c-.5.099-.899.595-.899 1.19 0 .299.1.596.3.795h-.998l-.2-.695h-2.097l.2.695a3.308 3.308 0 00-2.396 3.176c-.2-.794-.999-1.39-1.797-1.39h-.4l-.2.596c0-.496-.299-.893-.798-.992v-.298h.5v-.397h-.5v-.596h-.5v.496h-.499v.397h.5v.298c-.5.1-.799.497-.799.993l-.2-.397h-.4a1.89 1.89 0 00-1.896 1.886c0 .595.3 1.092.699 1.489v.695h-.999l.6.992c-1.398.199-2.896.894-2.696 2.581.1.298.2.596.3.794 0 0 .299-.297.399-.297.599-.398 1.397-.497 2.096-.497h.1l-1.697.794c.799.596 1.398.993 2.396.993.4 0 .799-.1 1.198-.199l.4.795.998 1.786c-.4 0-.899.1-1.498.1v2.978c-.499-.1-.998-.199-1.497-.398h-.1c-1.198-.397-1.498-.992-1.598-1.886-.3-3.077-2.396-4.07-4.692-4.169-3.395-.198-5.99 1.39-8.387 3.475 0 0-.798.694-.998.893-8.486 7.445-19.669 12.011-31.85 12.011-.798 0-1.597 0-2.395-.1H30v.2c0 2.084.899 3.87 3.395 3.87.798 0 1.697 0 2.496-.099.399 1.49 1.397 2.184 2.496 2.283.599.1 1.198.1 1.797 0 .599-.099 1.098-.198 1.597-.297.5 1.39 1.498 1.985 2.596 2.084.599 0 1.198 0 1.797-.1.5-.098 1.098-.297 1.598-.396.699 1.39 1.697 1.787 2.795 1.787.6 0 1.098-.1 1.697-.298.5-.199.999-.298 1.498-.496.4.694 1.098 1.19 1.897 1.488h-8.187v.497c0 .198-.1 1.39-1.398 1.39h-.499v9.926h.5c.199 0 1.397.1 1.397 1.39V75h89.657v-.496c0-.199.099-1.39 1.397-1.39h.5V62.989h-.5c-.199 0-1.397-.1-1.397-1.39v-.496h-8.187c.798-.199 1.497-.794 1.897-1.489.499.199.998.397 1.497.496.599.199 1.099.298 1.698.298 1.098 0 2.096-.397 2.795-1.787.499.1.998.298 1.598.397.599.1 1.198.199 1.797.1 1.098-.1 2.096-.596 2.596-2.085.499.1 1.098.199 1.597.298.599.1 1.198.1 1.797 0 1.098-.199 2.097-.794 2.496-2.283.799.1 1.697.1 2.496.1 2.496 0 3.494-1.788 3.395-3.872v-.199l.399.1zm-25.759-4.764c-.599.794-1.697 1.19-2.795.595-1.797-1.092-3.495-2.183-5.092-3.474-.2-.198-.4-.298-.599-.496.699-.1 1.298-.397 1.897-.894 2.096 1.589 4.293 2.978 6.589 4.269zm-25.659 7.345v-2.68c1.897 1.886 3.894 3.772 5.991 5.36.1.1.299.199.399.298-.799.695-1.897.894-2.895.1-1.198-.894-2.396-1.986-3.495-3.078zm3.095 3.97c-.798.696-1.996.795-2.995-.098l-.1-.1v-2.58c.899.893 1.897 1.687 2.796 2.58l.299.199zm-3.095-10.62c.799.794 1.498 1.687 2.297 2.481-.699.497-1.498.596-2.297.199v-2.68zm.899 3.672c.699 0 1.398-.297 1.997-.694a60.704 60.704 0 006.09 5.26c.2.1.299.298.499.398-.699.694-1.897.893-2.895.198-1.997-1.588-3.894-3.375-5.691-5.162zm3.095-.893c.699 0 1.398-.298 1.997-.794 1.897 1.787 3.893 3.375 5.99 4.963.2.199.399.298.599.397-.299.298-.699.497-1.098.695-.499.1-1.098 0-1.697-.397-2.097-1.489-3.994-3.176-5.791-4.864zm2.895-1.092c.699 0 1.398-.298 1.997-.794 1.897 1.688 3.794 3.176 5.891 4.566.299.199.499.397.798.496-.699.695-1.797.993-2.895.298-2.097-1.29-3.994-2.878-5.791-4.566zm8.487 3.276a62.445 62.445 0 01-5.691-4.467c.699 0 1.298-.397 1.897-.794 1.797 1.588 3.794 2.978 5.79 4.367l.899.596c-.699.596-1.797.893-2.895.298zm2.596-1.588c-1.997-1.39-3.894-2.78-5.691-4.269.699-.099 1.298-.397 1.897-.893 1.797 1.489 3.694 2.78 5.591 4.07.299.198.699.397.998.595-.599.794-1.697 1.092-2.795.497zm2.595-1.688c-1.797-1.092-3.494-2.382-5.191-3.673-.2-.099-.4-.297-.599-.397.699-.099 1.298-.397 1.897-.893a47.988 47.988 0 006.589 4.467c-.599.695-1.597 1.092-2.696.496zm-18.869-6.75h.099c1.498-.595 2.197-1.489 2.297-2.78.299-2.779 2.296-3.374 4.592-3.275 2.896.1 4.793 1.588 6.69 3.276.299.297.599.595.998.893.599.596 1.298 1.092 1.897 1.588-.799.695-1.797.894-2.795.1-.899-.794-1.798-1.589-2.696-2.482-.2.199-.499.298-.699.496a33.132 33.132 0 003.894 3.574c-.799.595-1.897.794-2.896.1-.199-.2-.399-.299-.599-.497-.699-.695-1.497-1.39-2.196-2.085-.3.1-.499.298-.799.397.899.894 1.797 1.787 2.796 2.68.399.298.798.695 1.098.993-.799.596-1.897.794-2.896 0-.399-.397-.898-.794-1.297-1.191-.5-.496-.999-.993-1.498-1.588-.3.099-.599.297-.799.397.899.992 1.897 1.886 2.896 2.878.299.298.699.596.998.894-.799.595-1.897.794-2.895 0l-1.797-1.787-1.099-1.092-.898.298c.998 1.092 1.997 2.084 2.995 3.077.299.298.599.596.898.794-.798.596-1.896.695-2.895-.1-.998-.992-1.997-2.084-2.995-3.076l-.899.297c1.198 1.39 2.496 2.78 3.894 4.07-.799.596-1.897.695-2.895-.198a28.755 28.755 0 01-2.396-2.68V42.64c.798-.298 1.397-.497 1.897-.596zm-3.794-3.871c-.4-.1-.699-.1-1.099-.199l.899-1.489c.1.1.2.298.399.397.2.1.3.1.5.1l-.699 1.19zm0-5.857c-.899-.1-1.698-.298-2.097-1.092h5.891l-.599 1.092h-3.195zm.099 1.29c.1.298.2.497.4.695l-.699 1.192c-.3.496-1.098-.1-.699-.497l.998-1.39zm-.299-.694l-1.298 1.687c-.4.397-1.098 0-.599-.496l.1-.1 1.098-1.19c.2 0 .499.099.699.099zm-1.897 2.481l-1.098 1.29-.799-.793 1.098-1.191c.1.198.2.297.3.397.2.198.4.198.499.297zm.5.298c.099.1.199.298.299.397.1.1.299.199.499.199l-.899 1.489c-.3-.199-.698-.397-.998-.695l1.098-1.39zm2.695.496c-.3.497-1.098.1-.899-.397l.699-1.19c.2.099.499.198.899.198l-.699 1.39zm-.599-3.275h.599c.2.397.599.695.898.695l.4-.695h.599l-.799 1.39c-1.198-.1-1.597-.695-1.697-1.39zm3.993 2.084a2.666 2.666 0 01-1.198.298c-.299 0-.599-.1-.898-.1l.199-.297.4-.695 1.497.794zm-.399-2.878c.998.099 2.596.595 2.396 1.886-.699-.397-1.497-.497-2.296-.497h-.899l.4-.794.399-.595zm-1.298-4.964c.699 0 1.298.596 1.298 1.29 0 .398-.2.696-.399.994h-1.398l.499-2.284zm-1.597-.496c.199 0 .399.199.399.397 0 .199-.2.397-.399.397-.2 0-.4-.198-.4-.397-.099-.198.1-.397.4-.397zm0 1.49c.399 0 .798-.2.898-.596l-.499 1.786h-.998l-.4-1.787c.2.298.5.596.999.596zm2.196 1.786v.595h-4.393v-.595h4.393zm-3.894-2.78l.599 2.284h-1.397a1.51 1.51 0 01-.4-.993c-.1-.695.5-1.29 1.198-1.29zm-2.396.695a2.677 2.677 0 01-2.695 2.68h-.7l1.399-5.36c1.198.397 1.996 1.49 1.996 2.68zm-2.496 3.375v.596h-6.59v-.596h6.59zm-.699-6.551h.8l-1.598 5.956h-.899l1.697-5.956zm-2.596-1.49c.3 0 .6.299.6.596 0 .298-.3.596-.6.596-.299 0-.599-.298-.599-.596 0-.297.3-.595.6-.595zm0 1.788c.2 0 .4-.1.6-.1l-.6 2.085-.599-2.085c.2.1.4.1.6.1zm-1.098.198l1.099 4.07 1.098-4.07h.699l-1.498 5.46H92.5l-1.498-5.46h.7zm-1.497-.496l1.597 5.956h-.799l-1.597-5.956h.799zm-1.198.595l1.497 5.36h-.799a2.677 2.677 0 01-2.695-2.68c0-1.29.799-2.382 1.997-2.68zm-2.496 3.276c.3 1.191 1.198 2.184 2.396 2.482v1.39h7.787v-1.39c1.198-.298 2.197-1.29 2.397-2.581 0 .595.299.992.698 1.39v.694H98.69c.1 1.092.6 1.688 1.198 1.986l-1.098 1.092-2.296 2.382c-1.298.1-2.596.199-3.894.199s-2.596-.1-3.794-.199l-2.296-2.382-.1-.1-.899-.992c.6-.298 1.098-.894 1.198-1.986h-1.098v-.595c.6-.397.799-.794.899-1.39zm-.7 9.232l-.898-1.49c.2 0 .4-.099.5-.198.1-.099.299-.198.299-.397l1.098 1.39c-.4.298-.699.496-.998.695zm-1.796-5.46h-3.195l-.6-1.092h5.891c-.3.794-1.198 1.092-2.096 1.092zm.998.496l1.198 1.192.1.099c.5.596-.3.993-.6.496l-1.297-1.687c.1 0 .4-.1.599-.1zm.1 2.184c.4.497-.5.993-.799.497l-.699-1.192c.2-.198.3-.397.4-.694l1.098 1.39zm2.097 1.688l-.999-1.29c.1 0 .3-.1.4-.2.2-.098.299-.198.299-.396l1.098 1.092c-.3.297-.499.595-.799.794zm-2.596-9.53c.698 0 1.198.596 1.198 1.29 0 .398-.2.696-.4.994h-1.397l.599-2.284zm-1.698-.496c.2 0 .4.199.4.397 0 .199-.2.397-.4.397s-.399-.198-.399-.397c0-.198.2-.397.4-.397zm0 1.49c.4 0 .8-.2.899-.596l-.5 1.786h-.998l-.499-1.787c.4.298.699.596 1.098.596zm2.197 1.786v.595h-4.393v-.595h4.393zm-5.092-1.49c0-.694.599-1.29 1.298-1.29l.599 2.284h-1.398c-.3-.298-.499-.695-.499-.993zm-.1 5.063c-.799 0-1.597.199-2.296.497-.2-1.39 1.298-1.787 2.396-1.886l.699 1.39h-.799zm.899 1.787c-.5 0-.799-.1-1.198-.298l1.597-.794.4.695.2.298c-.4.1-.7.1-1 .1zm1.098-.992l-.799-1.39h.6l.399.695c.399 0 .798-.199.898-.695h.6c-.1.695-.5 1.29-1.698 1.39zm1.098 1.886l-.699-1.29c.3 0 .6-.1.899-.2l.699 1.192c.2.397-.6.794-.899.297zm.4.794c.2 0 .3 0 .499-.1.1-.099.3-.198.4-.397l.898 1.49c-.3.099-.7.198-1.099.198l-.698-1.191zm-.4 2.382c2.296-.1 3.694-.596 5.392-2.283 1.497.198 2.895.298 4.392.298 1.498 0 2.896-.1 4.393-.298 1.698 1.687 2.996 2.184 5.392 2.283v17.67c-3.095 1.587-6.19 3.076-9.785 3.771-3.494-.695-6.589-2.184-9.684-3.772V39.364h-.1zm-1.098 18.364c-.999.893-2.197.695-2.995.1l.3-.2c.998-.793 1.896-1.687 2.795-2.58v2.58l-.1.1zM62.149 49.39a38.309 38.309 0 005.59-4.07c.6.496 1.199.794 1.898.893-1.797 1.49-3.695 2.978-5.691 4.269-1.099.595-2.197.297-2.796-.497.3-.198.699-.397.999-.595zm-3.495-1.092a48.01 48.01 0 006.59-4.467c.599.496 1.198.794 1.897.893-1.797 1.49-3.695 2.879-5.691 4.07-1.099.596-2.097.199-2.796-.496zm5.99 2.78c1.997-1.291 3.894-2.78 5.791-4.368.6.496 1.298.794 1.997.794a62.484 62.484 0 01-5.69 4.467c-1.099.595-2.197.297-2.796-.397.1-.1.399-.298.699-.497zm2.696 1.587c2.097-1.39 3.994-2.977 5.89-4.566.6.497 1.299.794 1.998.794-1.797 1.688-3.694 3.177-5.791 4.666-1.098.695-2.197.397-2.895-.298.2-.298.499-.397.798-.596zm2.696 1.39c2.097-1.489 4.093-3.176 5.99-4.963.6.496 1.298.695 1.997.794-1.797 1.688-3.694 3.375-5.79 4.864-.6.397-1.199.496-1.698.397-.4-.1-.799-.298-1.098-.695.2-.1.4-.198.599-.397zm2.895 1.39c2.197-1.688 4.194-3.474 6.19-5.36.6.397 1.298.694 1.997.694-1.797 1.787-3.694 3.574-5.79 5.162-.999.695-2.097.496-2.896-.198.2-.1.4-.199.5-.298zm9.086-5.758c-.799.398-1.598.298-2.296-.198.798-.794 1.597-1.588 2.296-2.482v2.68zm-5.99 6.85c2.096-1.688 4.093-3.474 5.99-5.46v2.68a52.918 52.918 0 01-3.495 3.177c-.998.794-2.096.595-2.895-.1.1-.099.2-.198.4-.297zM65.542 40.059c.3-.298.699-.596.998-.894 1.898-1.687 3.894-3.077 6.69-3.275 2.296-.1 4.293.496 4.593 3.275.1 1.39.798 2.284 2.296 2.78h.1c.599.198 1.198.298 1.797.397v3.276c-.799.893-1.598 1.786-2.496 2.68-.899.893-2.097.794-2.896.198 1.298-1.29 2.596-2.68 3.894-4.07l-.898-.297c-.899 1.092-1.897 2.084-2.996 3.077-.998.794-2.096.695-2.895.1.3-.299.6-.596.899-.795.998-.993 1.996-1.985 2.995-3.077l-.899-.298c-.3.298-.599.596-.798.893-.7.695-1.298 1.39-1.997 1.986-.999.794-2.097.695-2.896 0 .3-.298.7-.596.999-.894a39.477 39.477 0 002.895-2.878c-.3-.1-.599-.298-.799-.397l-1.497 1.489c-.4.397-.899.893-1.398 1.29-.998.794-2.097.596-2.895 0 .399-.298.798-.695 1.098-.993.998-.893 1.897-1.786 2.795-2.68-.3-.1-.499-.298-.798-.397-.7.695-1.398 1.39-2.197 2.085-.2.198-.4.297-.599.496-.998.794-2.097.596-2.895-.1a33.146 33.146 0 003.894-3.573c-.2-.198-.5-.298-.8-.496-.898.893-1.796 1.687-2.695 2.482-.998.694-2.096.496-2.795-.1.898-.297 1.497-.794 2.196-1.29zm-2.596 2.084c.6.497 1.198.794 1.897.894-1.797 1.39-3.694 2.78-5.69 3.97-1.099.596-2.197.199-2.796-.595 2.296-1.29 4.493-2.68 6.59-4.269zM36.59 54.055c-.898.1-1.797.1-2.795.1-.799-.1-1.498-.298-1.897-.894-.2-.298-.4-.596-.4-.993h1.498c8.187 0 15.875-1.985 22.564-5.46.5.596 1.098 1.093 1.697 1.291-6.19 3.276-13.178 5.36-20.666 5.956zm5.891 2.085c-.898.198-1.697.297-2.596.397h-.1c-1.098 0-2.096-.298-2.496-1.688a51.66 51.66 0 0020.567-6.154c.5.595 1.099.992 1.698 1.191-5.092 2.978-10.883 5.063-17.073 6.254zm5.89 1.489l-2.396.595h-.1c-1.098.1-2.096-.099-2.595-1.39 6.19-1.19 11.88-3.374 17.172-6.352.5.595 1.099.992 1.797 1.19-4.293 2.482-8.885 4.468-13.877 5.957zm5.891.893c-.699.298-1.497.596-2.196.794-1.098.199-2.097.1-2.796-1.092 4.892-1.489 9.585-3.474 13.878-6.154.5.595 1.098.992 1.797 1.092-3.395 2.184-6.889 3.97-10.683 5.36zm.899.596c3.794-1.49 7.388-3.375 10.683-5.46.499.596 1.098.893 1.797 1.092a71.56 71.56 0 01-6.59 3.871c-.699.298-1.397.298-1.897 0-3.494 1.191-3.794.894-3.993.497zm3.295 1.886c3.594-1.589 6.988-3.475 10.283-5.658a3.49 3.49 0 002.796.992c.798.894 1.996 1.39 3.194 1.191.8.894 2.097 1.39 3.395.993 1.098 1.092 2.995 1.489 4.593.1l.2-.298c2.196 1.091 4.392 2.183 6.788 2.977H57.956a.55.55 0 01.5-.297zm80.071 2.978v8.239c-1.198.198-1.697 1.091-1.797 1.786h-87.86c-.199-1.19-1.097-1.687-1.796-1.786v-8.24c1.198-.198 1.697-1.091 1.797-1.786h87.859c.2 1.092 1.098 1.588 1.797 1.787zm-42.631-2.78c2.396-.794 4.492-1.787 6.789-2.978l.199.199c1.598 1.39 3.495.992 4.593-.1 1.298.398 2.496-.099 3.395-.992 1.298.298 2.496-.298 3.194-1.191a3.49 3.49 0 002.796-.993c3.195 2.184 6.689 4.07 10.284 5.658.199.1.399.1.599.199h-31.85v.198zm33.646-1.191c-.499.298-1.198.298-1.997 0l-1.797-.893h-.3c-2.496-1.192-4.792-2.581-7.088-4.07.699-.1 1.298-.497 1.797-1.092 3.394 2.184 6.889 4.07 10.683 5.46-.599.099-.999.397-1.298.595zm4.093-.596c-.799-.297-1.497-.496-2.296-.794a62.113 62.113 0 01-10.583-5.36c.699-.199 1.298-.596 1.797-1.092a62.133 62.133 0 0013.878 6.155c-.699 1.19-1.698 1.29-2.796 1.091zm6.09-1.19c-.898-.2-1.697-.398-2.496-.596-4.992-1.39-9.584-3.475-13.877-5.956.699-.199 1.298-.596 1.797-1.191a55.624 55.624 0 0017.172 6.353c-.599 1.29-1.497 1.489-2.596 1.39zm5.991-1.688c-.899-.1-1.797-.199-2.596-.397-6.19-1.191-11.981-3.276-17.173-6.254.699-.199 1.298-.596 1.698-1.191a51.66 51.66 0 0020.567 6.154c-.399 1.29-1.398 1.688-2.496 1.688zm7.987-3.276c-.399.596-1.198.794-1.897.893-.898 0-1.897-.099-2.795-.099-7.488-.595-14.477-2.68-20.667-5.956.699-.198 1.198-.695 1.697-1.29 6.789 3.474 14.477 5.46 22.564 5.46h1.497c0 .396-.199.694-.399.992z"/><path fill="url(#paint1_linear)" d="M91.601 46.908h-1.897v1.29h1.897v-1.29z"/><path fill="url(#paint2_linear)" d="M101.885 56.735V39.96c-1.897-.1-3.694-.894-4.892-2.284-1.298.199-2.696.199-4.094.199-1.397 0-2.795-.1-4.093-.199-1.298 1.29-2.995 2.184-4.892 2.284v16.775c2.895 1.49 5.89 2.879 9.085 3.475 2.896-.596 5.89-1.986 8.886-3.475zM84.313 40.853h.3c1.697-.298 3.095-.993 4.293-2.085 1.298.1 2.596.199 3.893.199 1.298 0 2.596-.1 3.894-.199 1.198 1.092 2.596 1.886 4.293 2.085h.3v.496c-1.797-.297-3.395-.893-4.792-2.184-1.198.1-2.397.199-3.695.199-1.198 0-2.496-.1-3.694-.199-1.397 1.29-2.895 1.886-4.792 2.184v-.496zm13.379 6.055v-.893h1.497v4.864h.6v.794h-2.097v-.794h.699v-3.97h-.7zm-1.098 3.97v.795h-3.295v-3.474h2.596v-1.39h-2.596v-.894h3.394v3.177h-2.596v1.787h2.497zm-7.788-1.786v-3.177H92.3v5.758h-3.494v-.794h2.696v-1.787h-2.696zm-3.095-2.184v-.893h1.498v4.864h.599v.794H85.71v-.794h.699v-3.97h-.7zm-1.398 8.636c2.596 1.39 5.491 2.68 8.387 3.276 2.895-.596 5.79-1.985 8.486-3.276v.496c-2.696 1.39-5.391 2.68-8.486 3.276-2.996-.595-5.691-1.886-8.387-3.276v-.496z"/><path fill="url(#paint3_linear)" d="M130.14 71.625l.898-2.879h.4l.898 2.879h1.698l-1.298-3.573 1.198-3.574h-1.698l-.798 2.78h-.4l-.798-2.78h-1.698l1.298 3.574-1.398 3.573h1.698z"/><path fill="url(#paint4_linear)" d="M107.875 71.625h1.498v-5.559h1.697v-1.588h-4.792v1.588h1.597v5.559z"/><path fill="url(#paint5_linear)" d="M103.782 69.342h-1.597v.695h-1.698v-3.97h1.698v.694h1.597v-2.283H98.99v7.147h4.792v-2.283z"/><path fill="url(#paint6_linear)" d="M115.363 69.441h3.295v-4.963h-4.792v7.147h1.497v-2.184zm0-3.375h1.698v1.886h-1.698v-1.886z"/><path fill="url(#paint7_linear)" d="M65.244 64.478H60.45v7.147h4.793v-7.147zm-1.498 5.559h-1.697v-4.07h1.697v4.07z"/><path fill="url(#paint8_linear)" d="M122.851 69.938h1.698l.1 1.687h1.497l-.699-7.048h-3.694l-.699 7.048h1.498l.299-1.688zm.3-3.872h.998l.2 2.382h-1.398l.2-2.382z"/><path fill="url(#paint9_linear)" d="M73.131 69.342h-1.498v.695h-1.697v-3.97h1.697v.694h1.498v-2.283h-4.692v7.147h4.692v-2.283z"/><path fill="url(#paint10_linear)" d="M95.895 69.342h-1.498v.695H92.7v-3.97h1.697v.694h1.498v-2.283h-4.793v7.147h4.793v-2.283z"/><path fill="url(#paint11_linear)" d="M54.161 69.441h3.295v-4.963h-4.792v7.147h1.497v-2.184zm0-3.375h1.698v1.886H54.16v-1.886z"/><path fill="url(#paint12_linear)" d="M88.007 64.478h-4.792v7.147h4.792v-7.147zm-1.597 5.559h-1.697v-4.07h1.697v4.07z"/><path fill="url(#paint13_linear)" d="M77.724 66.066h2.695v-1.588h-4.193v7.147h1.498v-5.559z"/></g><defs><linearGradient id="paint0_linear" x1="29.394" x2="159.741" y1="21.989" y2="43.332" gradientUnits="userSpaceOnUse"><stop stop-color="#E89E75"/><stop offset="1" stop-color="#C47E5C"/></linearGradient><linearGradient id="paint1_linear" x1="29.394" x2="159.741" y1="21.989" y2="43.332" gradientUnits="userSpaceOnUse"><stop stop-color="#E89E75"/><stop offset="1" stop-color="#C47E5C"/></linearGradient><linearGradient id="paint2_linear" x1="29.394" x2="159.741" y1="21.989" y2="43.332" gradientUnits="userSpaceOnUse"><stop stop-color="#E89E75"/><stop offset="1" stop-color="#C47E5C"/></linearGradient><linearGradient id="paint3_linear" x1="29.394" x2="159.741" y1="21.989" y2="43.332" gradientUnits="userSpaceOnUse"><stop stop-color="#E89E75"/><stop offset="1" stop-color="#C47E5C"/></linearGradient><linearGradient id="paint4_linear" x1="29.394" x2="159.741" y1="21.989" y2="43.332" gradientUnits="userSpaceOnUse"><stop stop-color="#E89E75"/><stop offset="1" stop-color="#C47E5C"/></linearGradient><linearGradient id="paint5_linear" x1="29.394" x2="159.741" y1="21.989" y2="43.332" gradientUnits="userSpaceOnUse"><stop stop-color="#E89E75"/><stop offset="1" stop-color="#C47E5C"/></linearGradient><linearGradient id="paint6_linear" x1="29.394" x2="159.741" y1="21.989" y2="43.332" gradientUnits="userSpaceOnUse"><stop stop-color="#E89E75"/><stop offset="1" stop-color="#C47E5C"/></linearGradient><linearGradient id="paint7_linear" x1="29.394" x2="159.741" y1="21.989" y2="43.332" gradientUnits="userSpaceOnUse"><stop stop-color="#E89E75"/><stop offset="1" stop-color="#C47E5C"/></linearGradient><linearGradient id="paint8_linear" x1="29.394" x2="159.741" y1="21.989" y2="43.332" gradientUnits="userSpaceOnUse"><stop stop-color="#E89E75"/><stop offset="1" stop-color="#C47E5C"/></linearGradient><linearGradient id="paint9_linear" x1="29.394" x2="159.741" y1="21.989" y2="43.332" gradientUnits="userSpaceOnUse"><stop stop-color="#E89E75"/><stop offset="1" stop-color="#C47E5C"/></linearGradient><linearGradient id="paint10_linear" x1="29.394" x2="159.741" y1="21.989" y2="43.332" gradientUnits="userSpaceOnUse"><stop stop-color="#E89E75"/><stop offset="1" stop-color="#C47E5C"/></linearGradient><linearGradient id="paint11_linear" x1="29.394" x2="159.741" y1="21.989" y2="43.332" gradientUnits="userSpaceOnUse"><stop stop-color="#E89E75"/><stop offset="1" stop-color="#C47E5C"/></linearGradient><linearGradient id="paint12_linear" x1="29.394" x2="159.741" y1="21.989" y2="43.332" gradientUnits="userSpaceOnUse"><stop stop-color="#E89E75"/><stop offset="1" stop-color="#C47E5C"/></linearGradient><linearGradient id="paint13_linear" x1="29.394" x2="159.741" y1="21.989" y2="43.332" gradientUnits="userSpaceOnUse"><stop stop-color="#E89E75"/><stop offset="1" stop-color="#C47E5C"/></linearGradient><filter id="filter0_i" width="125" height="54" x="30" y="21" color-interpolation-filters="sRGB" filterUnits="userSpaceOnUse"><feFlood flood-opacity="0" result="BackgroundImageFix"/><feBlend in="SourceGraphic" in2="BackgroundImageFix" result="shape"/><feColorMatrix in="SourceAlpha" result="hardAlpha" values="0 0 0 0 0 0 0 0 0 0 0 0 0 0 0 0 0 0 127 0"/><feOffset dy="1"/><feComposite in2="hardAlpha" k2="-1" k3="1" operator="arithmetic"/><feColorMatrix values="0 0 0 0 1 0 0 0 0 1 0 0 0 0 1 0 0 0 1 0"/><feBlend in2="shape" mode="soft-light" result="effect1_innerShadow"/></filter></defs></svg>