<svg xmlns="http://www.w3.org/2000/svg" width="185" height="108" fill="none" viewBox="0 0 185 108"><g filter="url(#filter0_i)"><path fill="url(#paint0_linear)" d="M17 46.266c.598-3.35 2.79-5.714 5.083-8.079 1.196-1.28 2.392-2.463 3.488-3.744C28.163 31.39 29.06 27.941 27.664 24h.1c1.794 2.069 3.29 4.236 3.688 6.995.398 2.365-.3 4.532-1.794 6.404-1.097 1.478-2.392 2.759-3.489 4.138-1.295 1.576-2.79 3.054-3.986 4.729-1.994 2.759-2.392 5.714-1.296 8.965 0 .1.1.198.1.395-1.794-2.07-3.29-4.237-3.788-6.897 0-.099-.1-.295-.1-.394C17 47.547 17 46.955 17 46.266z"/><path fill="url(#paint1_linear)" d="M136.502 49.911H167v2.956h-5.382v10.542h-6.08V52.867h-13.056v2.562h6.478v2.955h-6.578v4.926h-5.98c.1-4.335.1-8.867.1-13.399z"/><path fill="url(#paint2_linear)" d="M95.837 49.911h4.485c.2 0 .399.197.598.296 2.891 1.97 5.681 4.04 8.572 6.01.199.098.398.197.598.394v-6.7h4.086V63.41c-.897 0-1.794-.099-2.591 0-1.196.098-2.193-.296-3.19-1.084-2.591-2.069-5.282-4.04-7.873-6.01-.1-.098-.299-.197-.499-.394v7.39h-4.086c-.1-4.336-.1-8.868-.1-13.4z"/><path fill="url(#paint3_linear)" d="M131.319 58.187h-7.774v2.365h10.166v2.857h-16.146v-13.4h16.046v2.858h-9.966v2.364h7.774c-.1.986-.1 1.872-.1 2.956z"/><path fill="url(#paint4_linear)" d="M79.392 63.409h-6.379c-.1 0-.299-.099-.398-.197-.1-.099-.1-.197-.2-.296-.299-.59-.498-1.379-1.096-1.773-.498-.296-1.296-.099-1.993-.099h-5.88c-.4 0-.599.099-.798.493-.3.591-.498 1.478-1.097 1.773-.498.296-1.395.099-2.093.099h-1.694l.3-.591c2.291-4.138 4.584-8.276 6.876-12.513.2-.295.399-.492.797-.492h5.482c.3 0 .499.098.698.394a818.703 818.703 0 017.076 12.808c.3.197.3.295.399.394zm-14.75-5.123h5.381c-.897-1.774-1.694-3.449-2.69-5.222-.898 1.773-1.795 3.448-2.692 5.222z"/><path fill="url(#paint5_linear)" d="M27.366 64c-2.094-2.463-3.888-5.025-3.888-8.374 0-2.365 1.097-4.237 2.492-6.01 1.595-1.872 3.29-3.547 4.884-5.419a29.72 29.72 0 002.193-2.759c1.794-2.758 2.192-5.812 1.096-9.064l.299.296a17.253 17.253 0 012.89 4.63c1.097 2.66.897 5.222-.598 7.685-1.096 1.872-2.492 3.35-3.986 4.926-1.196 1.183-2.293 2.365-3.29 3.646C26.968 56.61 25.97 59.763 27.367 64z"/><path fill="url(#paint6_linear)" d="M48.694 52.867h-5.282V50.01h16.645v2.857h-5.283v10.542h-6.08V52.867z"/><path fill="url(#paint7_linear)" d="M77.498 49.911h16.246v2.858h-4.883V63.31h-5.98V52.77h-5.283c-.1-.887-.1-1.872-.1-2.858z"/></g><defs><linearGradient id="paint0_linear" x1="16.273" x2="166.326" y1="24.733" y2="64.534" gradientUnits="userSpaceOnUse"><stop stop-color="#E89E75"/><stop offset="1" stop-color="#C47E5C"/></linearGradient><linearGradient id="paint1_linear" x1="16.273" x2="166.326" y1="24.733" y2="64.534" gradientUnits="userSpaceOnUse"><stop stop-color="#E89E75"/><stop offset="1" stop-color="#C47E5C"/></linearGradient><linearGradient id="paint2_linear" x1="16.273" x2="166.326" y1="24.733" y2="64.534" gradientUnits="userSpaceOnUse"><stop stop-color="#E89E75"/><stop offset="1" stop-color="#C47E5C"/></linearGradient><linearGradient id="paint3_linear" x1="16.273" x2="166.326" y1="24.733" y2="64.534" gradientUnits="userSpaceOnUse"><stop stop-color="#E89E75"/><stop offset="1" stop-color="#C47E5C"/></linearGradient><linearGradient id="paint4_linear" x1="16.273" x2="166.326" y1="24.733" y2="64.534" gradientUnits="userSpaceOnUse"><stop stop-color="#E89E75"/><stop offset="1" stop-color="#C47E5C"/></linearGradient><linearGradient id="paint5_linear" x1="16.273" x2="166.326" y1="24.733" y2="64.534" gradientUnits="userSpaceOnUse"><stop stop-color="#E89E75"/><stop offset="1" stop-color="#C47E5C"/></linearGradient><linearGradient id="paint6_linear" x1="16.273" x2="166.326" y1="24.733" y2="64.534" gradientUnits="userSpaceOnUse"><stop stop-color="#E89E75"/><stop offset="1" stop-color="#C47E5C"/></linearGradient><linearGradient id="paint7_linear" x1="16.273" x2="166.326" y1="24.733" y2="64.534" gradientUnits="userSpaceOnUse"><stop stop-color="#E89E75"/><stop offset="1" stop-color="#C47E5C"/></linearGradient><filter id="filter0_i" width="150" height="40" x="17" y="24" color-interpolation-filters="sRGB" filterUnits="userSpaceOnUse"><feFlood flood-opacity="0" result="BackgroundImageFix"/><feBlend in="SourceGraphic" in2="BackgroundImageFix" result="shape"/><feColorMatrix in="SourceAlpha" result="hardAlpha" values="0 0 0 0 0 0 0 0 0 0 0 0 0 0 0 0 0 0 127 0"/><feOffset dy="1"/><feComposite in2="hardAlpha" k2="-1" k3="1" operator="arithmetic"/><feColorMatrix values="0 0 0 0 1 0 0 0 0 1 0 0 0 0 1 0 0 0 1 0"/><feBlend in2="shape" mode="soft-light" result="effect1_innerShadow"/></filter></defs></svg>