<svg xmlns="http://www.w3.org/2000/svg" width="185" height="108" fill="none" viewBox="0 0 185 108"><g filter="url(#filter0_i)"><path fill="url(#paint0_linear)" d="M111.081 76.8c0-.202-.1-.503-.1-.804.2 0 .401 0 .501.1.502.1.803-.1 1.004-.502.301-.603.502-1.206.201-1.909-.502-1.105-.903-2.21-1.305-3.314-.1-.1-.1-.302-.1-.402.903-.201.903-.201 1.204.603.301.904.703 1.807 1.004 2.812.1-.1.1-.2.1-.301.301-.804.602-1.708.903-2.511.301-.704.301-.704 1.104-.603v.1c-.702 1.808-1.405 3.717-2.107 5.525-.301.703-.703 1.205-1.405 1.406-.402-.2-.703-.2-1.004-.2z"/><path fill="url(#paint1_linear)" d="M129.748 52.19c1.004-1.306 1.807-2.51 2.811-3.716 1.204-1.507 2.509-3.014 4.114-4.118 1.004-.704 2.208-1.306 3.513-1.407 1.706-.1 2.81.804 3.011 2.511.201 1.206-.1 2.31-.502 3.416-1.003 2.912-2.107 5.825-3.111 8.738-.401 1.206-.903 2.41-1.305 3.616-.1.302-.301.703.101 1.005.401.301.702 0 1.003-.302 1.004-.703 1.606-1.707 2.208-2.712.402-.703.904-1.406 1.305-2.109.201-.301.301-.502.703-.402.301.1.401.402.401.804 0 .1-.1.2-.1.301-1.205 2.21-2.509 4.32-4.416 6.027-1.004.904-2.008 1.607-3.413 1.707-1.304.1-2.007-.402-2.208-1.707-.1-1.306.201-2.612.603-3.817 1.104-3.114 2.308-6.127 3.512-9.241.402-1.205.903-2.31 1.205-3.516.1-.3.1-.703.1-1.105-.1-.502-.402-.803-.903-.703-.603.1-1.205.302-1.606.703-1.104.905-2.108 1.809-3.011 2.813-2.71 3.013-4.516 6.63-6.223 10.346-.702 1.607-1.204 3.314-1.806 4.921-.201.704-.402.804-1.104.804-.803 0-1.505 0-2.208-.1-.602-.1-.703-.201-.502-.804 1.305-4.118 2.71-8.236 4.015-12.455.502-1.507.903-3.013 1.304-4.52.101-.301.101-.603.101-.804 0-.401-.201-.502-.502-.3-.301.2-.602.3-.803.602-.903 1.105-1.806 2.31-2.81 3.415-.201.301-.402.502-.602.803-.101.1-.301.1-.402.1-.1 0-.2-.2-.2-.4 0-.302.1-.604.2-.905 1.205-2.41 2.911-4.42 5.119-5.926.502-.301 1.003-.502 1.505-.703 1.405-.302 2.409.502 2.509 1.908.101 1.206-.301 2.41-.602 3.616s-.702 2.31-1.004 3.516v.1z"/><path fill="url(#paint2_linear)" d="M113.389 55.907c-.1.2-.2.301-.401.502-1.606 2.31-3.412 4.52-5.52 6.428-1.305 1.105-2.609 2.01-4.316 2.411-.301.1-.702.1-1.003.1-1.305 0-2.208-.703-2.309-2.008-.1-1.306.201-2.512.502-3.717.904-3.515 2.309-6.83 3.613-10.245.301-.804.602-1.708.904-2.612.1-.2-.101-.502-.101-.803-.301.1-.602 0-.803.2a12.102 12.102 0 00-1.605 1.608c-.603.803-1.105 1.607-1.606 2.41-.201.201-.301.503-.502.703-.101.1-.402.201-.602.1-.1-.1-.201-.4-.201-.602 0-.1 0-.2.1-.301 1.104-2.41 2.61-4.62 4.717-6.228.904-.703 1.907-1.205 3.112-1.205 1.304 0 2.208.803 2.107 2.11-.1.803-.2 1.707-.502 2.51-1.104 3.215-2.308 6.429-3.512 9.543a33.078 33.078 0 00-1.205 3.816c-.1.302-.1.704-.1 1.105.1.503.602.904 1.104.704.602-.201 1.104-.503 1.606-.804 1.806-1.306 3.111-3.013 4.516-4.72 2.409-3.215 4.015-6.831 5.219-10.648l.903-2.41a.756.756 0 01.703-.503h3.011c.401 0 .501.301.301.804l-.904 2.712c-1.304 4.017-2.609 8.136-3.914 12.153-.301.804-.401 1.608-.501 2.512 0 .2.1.401.2.703.201-.1.502-.1.703-.201.301-.201.502-.402.803-.703a20.272 20.272 0 002.91-4.119c.101-.1.101-.3.201-.401.201-.201.401-.503.602-.302.201.1.201.402.201.703 0 .201-.101.402-.201.603-1.204 2.712-2.91 5.022-5.319 6.73-.703.502-1.506.904-2.509.904-.903 0-1.506-.402-1.506-1.306 0-1.105 0-2.31.301-3.415.302-1.507.703-2.913 1.104-4.42 0-.1.101-.3.101-.401h-.402z"/><path fill="url(#paint3_linear)" d="M83.28 58.016c.101 1.004.101 2.009.302 2.913.702 3.214 4.315 4.52 7.125 2.511 1.707-1.306 2.51-3.114 2.51-5.223 0-1.708-.603-3.214-1.506-4.52-1.104-1.607-2.308-3.114-3.412-4.62-1.104-1.507-2.008-3.114-2.309-4.922-.602-3.616.803-6.228 3.714-8.237 2.007-1.306 4.315-1.707 6.724-1.507 1.606.101 3.212.503 4.717 1.306.703.402.903.603.703 1.407-.301 1.305-.703 2.51-1.004 3.716l-.602 2.11c-.1.3-.201.602-.602.502-.402-.1-.502-.302-.502-.704 0-1.205-.1-2.41-.1-3.616 0-.3-.1-.703-.201-1.004-.402-1.406-1.305-2.21-2.81-2.511-2.51-.402-4.918.904-5.721 3.214-.502 1.507-.2 3.013.602 4.32.803 1.204 1.807 2.31 2.71 3.414.903 1.105 1.907 2.21 2.71 3.415 2.81 4.018 2.409 8.538-1.004 12.054-3.111 3.214-6.825 4.018-11.04 2.812-.803-.2-1.706-.603-2.509-1.004-.702-.302-1.004-.804-.903-1.607.301-2.01.702-4.018 1.004-5.927 0-.3.2-.502.3-.703.101-.2.402-.301.603-.301.2 0 .401.301.502.502.1.1.1.302.1.502 0 .703 0 1.206-.1 1.708z"/><path fill="url(#paint4_linear)" d="M53.774 49.88l-7.628 7.634-2.007-2.01.2-.2c2.41-2.41 4.919-4.922 7.327-7.332 1.405-1.407 3.513-1.407 4.818 0 1.104 1.205 1.204 3.013.2 4.218-.1.201-.2.302-.401.402l-7.326 7.333-.201.2-2.007-2.009 7.627-7.633-.602-.603z"/><path fill="url(#paint5_linear)" d="M49.358 60.828c.703-.703 1.305-1.406 2.007-2.009l7.628 7.634c.2-.2.3-.401.502-.703-2.51-2.51-5.018-5.022-7.528-7.533l2.108-2.11.2.201 7.327 7.333c1.305 1.306 1.405 3.214.201 4.62-1.305 1.407-3.412 1.507-4.817.201a69258.75 69258.75 0 01-7.327-7.332l-.301-.302z"/><path fill="url(#paint6_linear)" d="M72.341 42.95c.703.702 1.305 1.406 2.007 2.008 0 0 0 .1-.1.1-2.51 2.512-5.018 5.023-7.527 7.434-1.004 1.004-2.51 1.305-3.714.703-1.907-.904-2.509-3.315-1.304-4.922.2-.201.401-.402.502-.603l7.025-7.03.3-.302 2.008 2.009-3.814 3.816c-1.304 1.306-2.61 2.512-3.914 3.817l.602.603 3.814-3.817c1.606-1.306 2.81-2.51 4.115-3.817z"/><path fill="url(#paint7_linear)" d="M69.13 39.635l-2.008 2.009-3.814-3.817-3.813-3.817c-.201.2-.301.401-.402.602 2.51 2.411 5.018 5.023 7.527 7.534l-2.107 2.11-.201-.202-7.326-7.332c-1.807-1.808-1.104-4.822 1.304-5.525 1.205-.401 2.309-.2 3.111.703l7.728 7.735z"/><path fill="url(#paint8_linear)" d="M69.732 60.125l-2.008-2.009c2.51-2.51 5.119-5.122 7.628-7.633-.301-.201-.401-.402-.602-.603-2.51 2.511-5.018 5.022-7.527 7.634l-2.108-2.11.1-.1c2.51-2.511 4.918-5.022 7.427-7.433 1.606-1.607 4.215-1.205 5.32.804.602 1.205.501 2.712-.502 3.716a280.378 280.378 0 01-7.728 7.734c.1 0 .1 0 0 0z"/><path fill="url(#paint9_linear)" d="M69.13 60.728l-2.008 2.009-7.627-7.634c-.201.201-.301.402-.502.603l7.627 7.633-2.107 2.11-.1-.1-7.528-7.534c-1.405-1.406-1.204-3.616.301-4.821 1.305-1.105 3.212-1.005 4.517.2 1.605 1.608 3.211 3.114 4.717 4.722.802.904 1.806 1.808 2.71 2.812z"/><path fill="url(#paint10_linear)" d="M48.656 40.338l2.007 2.009c-2.51 2.51-5.119 5.022-7.628 7.633l.602.603 7.628-7.634 2.007 2.01c-1.706 1.707-3.412 3.314-5.118 5.021-.803.804-1.606 1.608-2.51 2.411-1.003 1.005-2.107 1.306-3.412.804-1.304-.402-2.007-1.407-2.208-2.813-.1-1.004.1-1.808.803-2.51a271.93 271.93 0 007.829-7.534z"/><path fill="url(#paint11_linear)" d="M49.358 39.735c.703-.703 1.405-1.306 2.108-2.009 2.509 2.511 5.118 5.022 7.627 7.634.2-.2.301-.402.502-.603-2.51-2.51-5.118-5.122-7.628-7.633.703-.704 1.406-1.306 2.008-2.01 0 0 .1 0 .1.101l7.527 7.533a3.257 3.257 0 01.201 4.42c-1.305 1.507-3.513 1.607-4.918.2l-5.219-5.222c-.802-.804-1.605-1.607-2.308-2.41z"/><path fill="url(#paint12_linear)" d="M129.648 69.768h.803v.804c.402-.603.903-.904 1.606-.904.702 0 1.104.2 1.405.904l.301-.302c.502-.502 1.305-.803 1.907-.502.502.2.803.603.803 1.105v3.515h-.803v-.502-2.611c0-.302-.1-.703-.502-.904-.401-.1-.803 0-1.104.301-.502.402-.602 1.004-.602 1.607v2.11h-.803v-.603-2.41c0-.302-.1-.704-.502-.905-.401-.1-.803-.1-1.003.201-.302.301-.502.804-.603 1.205-.1.703 0 1.306-.1 2.01v.501h-.803v-4.62z"/><path fill="url(#paint13_linear)" d="M89.403 74.388H88.6v-.502-2.51c0-.403 0-.804-.502-1.005-.401-.1-.903 0-1.204.401-.201.402-.402.904-.402 1.407-.1.703 0 1.406 0 2.109h-.803v-.502-2.612c0-.402 0-.803-.501-.904-.402-.1-.803 0-1.105.302-.401.401-.501 1.004-.501 1.506v2.11h-.803v-4.62h.803v.803c.602-.804 1.304-1.105 2.107-.804.402.1.703.402.803.904l.301-.301c.502-.502 1.305-.804 1.907-.502.502.2.803.502.803 1.004-.1 1.306-.1 2.511-.1 3.716z"/><path fill="url(#paint14_linear)" d="M106.264 71.978c0 1.707-1.205 2.812-2.911 2.51-.502-.1-1.003-.4-1.204-.903-.502-1.004-.502-2.009.1-2.913.502-.804 1.606-1.205 2.61-.804.903.201 1.405.904 1.405 2.11zm-.904 0v-.402c-.1-.803-.501-1.205-1.204-1.306-.702-.1-1.305.302-1.405 1.105-.1.502 0 1.005.1 1.507.201.602.803.904 1.405.803.703-.1 1.104-.703 1.104-1.707z"/><path fill="url(#paint15_linear)" d="M125.232 72.078c-.1 1.206.402 1.808 1.506 1.708.401 0 .903-.1 1.405-.201 0 .2.1.402.1.603-.903.3-1.806.401-2.71.1-.301-.1-.502-.301-.702-.502-.703-.904-.602-2.712.2-3.516.603-.502 1.606-.703 2.309-.402.803.302 1.003 1.005 1.003 1.708 0 .301-.1.502-.401.402-.903.1-1.807.1-2.71.1zm2.208-.602c0-.804-.502-1.206-1.104-1.105-.602 0-1.003.502-1.003 1.105h2.107z"/><path fill="url(#paint16_linear)" d="M121.92 68.06v1.608h1.305v.703h-1.305v2.913c0 .3.201.401.502.502h.703c.2.602.1.703-.502.703h-.301c-.904 0-1.305-.302-1.305-1.206v-2.31-.502h-1.004v-.603h1.004v-.803c.1-.904.1-.904.903-1.004z"/><path fill="url(#paint17_linear)" d="M116.501 74.388v-.703c.401 0 .702.1 1.003.1.201 0 .502 0 .602-.1.201-.1.402-.401.402-.602 0-.201-.201-.402-.402-.502-.301-.201-.602-.201-.903-.302-.602-.2-.903-.603-.903-1.105 0-.603.301-1.004.903-1.205.602-.201 1.305-.201 1.907-.1v.602c-.401 0-.803-.1-1.204 0-.301 0-.602.201-.703.502-.1.402.201.603.502.703l.903.302c.402.2.803.502.803 1.004s-.201 1.005-.702 1.206c-.603.401-1.405.401-2.208.2z"/><path fill="url(#paint18_linear)" d="M110.278 70.37h-1.405c-.301 0-.602.202-.602.503s.201.502.401.703l.904.301c.501.201.803.503.803 1.005 0 .502-.201 1.004-.703 1.205-.703.402-1.505.402-2.308.301v-.703c.401 0 .702.1 1.104.1.2 0 .501 0 .602-.1.2-.1.401-.401.401-.602 0-.201-.201-.402-.401-.502-.301-.201-.602-.202-.903-.302-.703-.2-1.004-.602-1.004-1.205 0-.603.401-1.105 1.004-1.206.501-.1 1.104-.1 1.605-.1.301 0 .402.402.502.603z"/><path fill="url(#paint19_linear)" d="M137.778 74.388v-.703c.301 0 .602.1.903.1.2 0 .401 0 .602-.1.301-.1.602-.301.602-.602 0-.302-.201-.503-.502-.603l-.903-.301c-.502-.201-.703-.503-.803-1.005 0-.502.201-.904.602-1.205.603-.402 1.305-.402 2.008-.201.1 0 .2.402.301.603-.502 0-.904-.1-1.305-.1-.401 0-.703.2-.703.501-.1.402.201.603.502.703.301.101.602.201.803.302.502.2.803.502.803 1.004s-.201 1.005-.702 1.206c-.603.301-1.205.401-1.907.301 0 .2-.101.1-.301.1z"/><path fill="url(#paint20_linear)" d="M97.331 69.768c0 .301 0 .502-.1.804-.903-.201-1.807-.402-2.208.602-.401.703-.401 1.607.1 2.21.603.703 1.405.402 2.108.2 0 .202 0 .403.1.704-.803.301-1.606.402-2.308.1-.2-.1-.401-.2-.602-.401-.703-.904-.703-1.909-.301-2.813.3-.904 1.003-1.306 2.007-1.306.301-.2.703-.1 1.204-.1z"/><path fill="url(#paint21_linear)" d="M101.045 69.668c0 .3 0 .502-.101.703-1.003.1-1.405.502-1.405 1.607v2.31h-.903v-4.62h.803v.803c.401-.502.803-.904 1.606-.803z"/><path fill="url(#paint22_linear)" d="M92.213 74.388h-.803v-3.917c-.301 0-.502 0-.703-.1v-.603h1.506v4.62z"/><path fill="url(#paint23_linear)" d="M91.811 68.964c-.3 0-.501-.2-.501-.502 0-.301.2-.602.602-.602.3 0 .502.2.602.502-.1.402-.401.602-.703.602z"/></g><defs><linearGradient id="paint0_linear" x1="39.496" x2="148.075" y1="31.843" y2="49.207" gradientUnits="userSpaceOnUse"><stop stop-color="#C47E5C"/><stop offset="1" stop-color="#A96540"/></linearGradient><linearGradient id="paint1_linear" x1="39.496" x2="148.075" y1="31.843" y2="49.207" gradientUnits="userSpaceOnUse"><stop stop-color="#C47E5C"/><stop offset="1" stop-color="#A96540"/></linearGradient><linearGradient id="paint2_linear" x1="39.496" x2="148.075" y1="31.843" y2="49.207" gradientUnits="userSpaceOnUse"><stop stop-color="#C47E5C"/><stop offset="1" stop-color="#A96540"/></linearGradient><linearGradient id="paint3_linear" x1="39.496" x2="148.075" y1="31.843" y2="49.207" gradientUnits="userSpaceOnUse"><stop stop-color="#C47E5C"/><stop offset="1" stop-color="#A96540"/></linearGradient><linearGradient id="paint4_linear" x1="39.496" x2="148.075" y1="31.843" y2="49.207" gradientUnits="userSpaceOnUse"><stop stop-color="#C47E5C"/><stop offset="1" stop-color="#A96540"/></linearGradient><linearGradient id="paint5_linear" x1="39.496" x2="148.075" y1="31.843" y2="49.207" gradientUnits="userSpaceOnUse"><stop stop-color="#C47E5C"/><stop offset="1" stop-color="#A96540"/></linearGradient><linearGradient id="paint6_linear" x1="39.496" x2="148.075" y1="31.843" y2="49.207" gradientUnits="userSpaceOnUse"><stop stop-color="#C47E5C"/><stop offset="1" stop-color="#A96540"/></linearGradient><linearGradient id="paint7_linear" x1="39.496" x2="148.075" y1="31.843" y2="49.207" gradientUnits="userSpaceOnUse"><stop stop-color="#C47E5C"/><stop offset="1" stop-color="#A96540"/></linearGradient><linearGradient id="paint8_linear" x1="39.496" x2="148.075" y1="31.843" y2="49.207" gradientUnits="userSpaceOnUse"><stop stop-color="#C47E5C"/><stop offset="1" stop-color="#A96540"/></linearGradient><linearGradient id="paint9_linear" x1="39.496" x2="148.075" y1="31.843" y2="49.207" gradientUnits="userSpaceOnUse"><stop stop-color="#C47E5C"/><stop offset="1" stop-color="#A96540"/></linearGradient><linearGradient id="paint10_linear" x1="39.496" x2="148.075" y1="31.843" y2="49.207" gradientUnits="userSpaceOnUse"><stop stop-color="#C47E5C"/><stop offset="1" stop-color="#A96540"/></linearGradient><linearGradient id="paint11_linear" x1="39.496" x2="148.075" y1="31.843" y2="49.207" gradientUnits="userSpaceOnUse"><stop stop-color="#C47E5C"/><stop offset="1" stop-color="#A96540"/></linearGradient><linearGradient id="paint12_linear" x1="39.496" x2="148.075" y1="31.843" y2="49.207" gradientUnits="userSpaceOnUse"><stop stop-color="#C47E5C"/><stop offset="1" stop-color="#A96540"/></linearGradient><linearGradient id="paint13_linear" x1="39.496" x2="148.075" y1="31.843" y2="49.207" gradientUnits="userSpaceOnUse"><stop stop-color="#C47E5C"/><stop offset="1" stop-color="#A96540"/></linearGradient><linearGradient id="paint14_linear" x1="39.496" x2="148.075" y1="31.843" y2="49.207" gradientUnits="userSpaceOnUse"><stop stop-color="#C47E5C"/><stop offset="1" stop-color="#A96540"/></linearGradient><linearGradient id="paint15_linear" x1="39.496" x2="148.075" y1="31.843" y2="49.207" gradientUnits="userSpaceOnUse"><stop stop-color="#C47E5C"/><stop offset="1" stop-color="#A96540"/></linearGradient><linearGradient id="paint16_linear" x1="39.496" x2="148.075" y1="31.843" y2="49.207" gradientUnits="userSpaceOnUse"><stop stop-color="#C47E5C"/><stop offset="1" stop-color="#A96540"/></linearGradient><linearGradient id="paint17_linear" x1="39.496" x2="148.075" y1="31.843" y2="49.207" gradientUnits="userSpaceOnUse"><stop stop-color="#C47E5C"/><stop offset="1" stop-color="#A96540"/></linearGradient><linearGradient id="paint18_linear" x1="39.496" x2="148.075" y1="31.843" y2="49.207" gradientUnits="userSpaceOnUse"><stop stop-color="#C47E5C"/><stop offset="1" stop-color="#A96540"/></linearGradient><linearGradient id="paint19_linear" x1="39.496" x2="148.075" y1="31.843" y2="49.207" gradientUnits="userSpaceOnUse"><stop stop-color="#C47E5C"/><stop offset="1" stop-color="#A96540"/></linearGradient><linearGradient id="paint20_linear" x1="39.496" x2="148.075" y1="31.843" y2="49.207" gradientUnits="userSpaceOnUse"><stop stop-color="#C47E5C"/><stop offset="1" stop-color="#A96540"/></linearGradient><linearGradient id="paint21_linear" x1="39.496" x2="148.075" y1="31.843" y2="49.207" gradientUnits="userSpaceOnUse"><stop stop-color="#C47E5C"/><stop offset="1" stop-color="#A96540"/></linearGradient><linearGradient id="paint22_linear" x1="39.496" x2="148.075" y1="31.843" y2="49.207" gradientUnits="userSpaceOnUse"><stop stop-color="#C47E5C"/><stop offset="1" stop-color="#A96540"/></linearGradient><linearGradient id="paint23_linear" x1="39.496" x2="148.075" y1="31.843" y2="49.207" gradientUnits="userSpaceOnUse"><stop stop-color="#C47E5C"/><stop offset="1" stop-color="#A96540"/></linearGradient><filter id="filter0_i" width="104" height="46" x="40" y="31" color-interpolation-filters="sRGB" filterUnits="userSpaceOnUse"><feFlood flood-opacity="0" result="BackgroundImageFix"/><feBlend in="SourceGraphic" in2="BackgroundImageFix" result="shape"/><feColorMatrix in="SourceAlpha" result="hardAlpha" values="0 0 0 0 0 0 0 0 0 0 0 0 0 0 0 0 0 0 127 0"/><feOffset dy="1"/><feComposite in2="hardAlpha" k2="-1" k3="1" operator="arithmetic"/><feColorMatrix values="0 0 0 0 1 0 0 0 0 1 0 0 0 0 1 0 0 0 1 0"/><feBlend in2="shape" mode="soft-light" result="effect1_innerShadow"/></filter></defs></svg>