<svg xmlns="http://www.w3.org/2000/svg" width="185" height="108" fill="none" viewBox="0 0 185 108"><g filter="url(#filter0_i)"><path fill="url(#paint0_linear)" d="M112.164 67a1379.352 1379.352 0 00-7.15-12.405c-2.483-4.366-5.065-8.732-7.548-13.099-.1-.1-.1-.297-.199-.496h9.435c.298 0 .497.1.596.397 1.49 2.68 3.079 5.359 4.568 8.038.1.1.199.298.298.496.1-.198.199-.297.298-.397 1.589-2.679 3.079-5.458 4.668-8.137.199-.298.298-.397.695-.397h9.435c-.099.199-.198.298-.298.496-4.866 8.336-9.633 16.672-14.5 25.008-.099.198-.099.397-.298.496.1 0 .1 0 0 0z"/><path fill="url(#paint1_linear)" d="M49 50.428h22.843c-.497 2.877-1.987 4.862-4.569 6.251a885.128 885.128 0 015.66 9.924h-9.236c-.297 0-.496-.1-.595-.397l-4.767-8.336c-.199-.297-.398-.397-.795-.397H49v-7.045z"/><path fill="url(#paint2_linear)" d="M49 41.1h14.5c4.072 0 7.25 2.48 8.243 6.35.1.199.1.397.1.695H49.099C49 45.763 49 43.382 49 41.099z"/><path fill="url(#paint3_linear)" d="M49 59.657h8.343v6.946H49v-6.946z"/><path fill="url(#paint4_linear)" d="M89.223 66.603h-8.541V48.244h-7.549v-.397-6.252c0-.396.1-.396.497-.396H96.77v7.045h-7.448c-.1 6.153-.1 12.206-.1 18.359z"/><path fill="url(#paint5_linear)" d="M127.757 50.428H136v16.076h-8.243V50.427z"/><path fill="url(#paint6_linear)" d="M136 41.1v6.946h-8.243v-6.947H136z"/></g><defs><linearGradient id="paint0_linear" x1="48.578" x2="136.791" y1="41.476" y2="62.355" gradientUnits="userSpaceOnUse"><stop stop-color="#C47E5C"/><stop offset="1" stop-color="#FFC5A5"/></linearGradient><linearGradient id="paint1_linear" x1="48.578" x2="136.791" y1="41.476" y2="62.355" gradientUnits="userSpaceOnUse"><stop stop-color="#C47E5C"/><stop offset="1" stop-color="#FFC5A5"/></linearGradient><linearGradient id="paint2_linear" x1="48.578" x2="136.791" y1="41.476" y2="62.355" gradientUnits="userSpaceOnUse"><stop stop-color="#C47E5C"/><stop offset="1" stop-color="#FFC5A5"/></linearGradient><linearGradient id="paint3_linear" x1="48.578" x2="136.791" y1="41.476" y2="62.355" gradientUnits="userSpaceOnUse"><stop stop-color="#C47E5C"/><stop offset="1" stop-color="#FFC5A5"/></linearGradient><linearGradient id="paint4_linear" x1="48.578" x2="136.791" y1="41.476" y2="62.355" gradientUnits="userSpaceOnUse"><stop stop-color="#C47E5C"/><stop offset="1" stop-color="#FFC5A5"/></linearGradient><linearGradient id="paint5_linear" x1="48.578" x2="136.791" y1="41.476" y2="62.355" gradientUnits="userSpaceOnUse"><stop stop-color="#C47E5C"/><stop offset="1" stop-color="#FFC5A5"/></linearGradient><linearGradient id="paint6_linear" x1="48.578" x2="136.791" y1="41.476" y2="62.355" gradientUnits="userSpaceOnUse"><stop stop-color="#C47E5C"/><stop offset="1" stop-color="#FFC5A5"/></linearGradient><filter id="filter0_i" width="87" height="26" x="49" y="41" color-interpolation-filters="sRGB" filterUnits="userSpaceOnUse"><feFlood flood-opacity="0" result="BackgroundImageFix"/><feBlend in="SourceGraphic" in2="BackgroundImageFix" result="shape"/><feColorMatrix in="SourceAlpha" result="hardAlpha" values="0 0 0 0 0 0 0 0 0 0 0 0 0 0 0 0 0 0 127 0"/><feOffset dy="1"/><feComposite in2="hardAlpha" k2="-1" k3="1" operator="arithmetic"/><feColorMatrix values="0 0 0 0 1 0 0 0 0 1 0 0 0 0 1 0 0 0 1 0"/><feBlend in2="shape" mode="soft-light" result="effect1_innerShadow"/></filter></defs></svg>