<svg xmlns="http://www.w3.org/2000/svg" width="185" height="108" fill="none" viewBox="0 0 185 108"><g filter="url(#filter0_i)"><path fill="url(#paint0_linear)" d="M77.305 61.796c.2.597.4.996.6 1.494.997 2.688 2.594 3.086 4.99 1.394.897-.598 1.995-.996 2.993-1.295 2.794-.597 5.489-1.294 8.283-1.593 4.99-.498 10.08-.697 14.371 2.689.699.597 1.697.995 2.595 1.095.599 0 1.597-.498 1.796-1.095.699-1.992-2.095-5.876-4.391-5.876-1.197 0-2.495.697-3.692.697-2.894-.1-5.888-.398-8.782-.697-.4 0-.799-.199-1.198-.298 0-.2.1-.399.1-.697 1.596.199 3.093.298 4.69.597 1.597.2 2.595-.398 2.595-1.792 0-1.394-1.796-2.49-3.194-1.992-1.197.398-2.495.398-3.692.598-.699-2.39 1.197-2.988 2.295-3.983.3-.3 1.597.398 2.395.896.998.697 1.897 1.693 2.994 2.19.899.399 2.196.498 2.894.1.899-.597 1.398-1.792 1.897-2.689-1.996-.398-3.793-.796-6.188-1.294 1.996-1.494 2.994-2.788 1.597-4.481 1.098-.299 2.395-.2 2.994-.896 1.197-1.096 1.896-2.59 2.894-3.983-.1-.2-.1-.399-.2-.598-2.095.498-4.291.996-6.387 1.494-2.295.498-4.49.896-6.886 1.394 0-3.087-.698-4.182-2.894-4.88-1.697-.497-3.692.498-4.291 2.191-.799 2.092.698 2.39 2.195 2.888.2.1.4.398.6.498 0 .299-.1.498-.1.797H79.6c-.699 0-1.897.199-2.096.597-1.397 2.888.1 4.68 3.194 4.282h.598c.1.2.2.299.3.498-.799.796-2.296 1.493-2.296 2.29 0 2.888-2.295 4.182-3.792 6.074-.998 1.394-2.495 1.494-3.593.598-.798-.598-.898-1.992-1.197-3.087-.1-.498.1-.996.2-1.494-.2 0-.4 0-.6-.1-.1.698-.399 1.494-.299 2.092.5 2.49.998 4.979 1.697 7.369.399 1.394 1.996 1.593 3.193.398 1.098-.598 1.697-1.494 2.395-2.39zm23.952-16.63c-2.096 1.793-3.693 3.187-5.09 4.382-.599-.697-1.197-1.394-1.896-2.39 2.096-.498 4.291-1.195 6.986-1.992zm-17.265 5.577c.2-.299.698-.399.698-.697 1.098-4.382 4.691-1.793 7.186-2.888.2 2.788.4 5.078.599 7.369-.2 0-.3.1-.5.1-.598-.897-1.297-1.793-1.995-2.789.3-.498.798-.996.998-1.494.1-.497.1-1.294-.2-1.692-.3-.299-1.297-.399-1.597-.2-1.497 1.395-2.894 2.789-4.191 4.382-.799.996-1.497 2.19-3.493 1.693.898-1.295 1.696-2.59 2.495-3.784zm.1 6.373a189.718 189.718 0 012.994-4.182c1.097.796 1.996 1.493 3.493 2.589h-4.99c.299 1.194.299 2.489.898 2.987.499.498 1.696.299 2.595.2 1.097-.1 2.095-.499 3.293-.897-.799 1.394-.799 1.493-6.687 2.091-2.295.299-4.69.498-7.385.697 2.595-4.979 2.695-5.078 5.789-3.485z"/><path fill="url(#paint1_linear)" d="M114.73 27.74c-1.298 4.282-11.477 8.465-14.671 5.875.799-1.294 1.298-2.887 3.393-2.887.4 0 1.198-.797 1.098-.996-.499-1.195-.898-2.589-1.696-3.485-.998-.996-2.296-1.195-3.294.398-.2.299-.598.398-.998.598-.2-.2-.399-.3-.598-.498.898-1.394 1.896-2.789 2.894-4.382h-1.797V18.48c3.992.995 5.888 0 7.186-3.486.299-.697.798-1.394 1.397-1.991 1.098-1.095 2.295-1.992 3.493-3.087-.1-.1-.2-.299-.299-.398-2.296 1.195-4.591 2.29-6.787 3.684-3.193 2.091-8.383-.697-9.68-4.182 1.397.1 2.694.398 3.992.299.998 0 2.495-.2 2.794-.697.799-1.594 1.098-3.386 1.597-5.477-3.493 2.39-6.786 3.385-10.678 2.887.299-.497.698-.796.798-1.194.1-1.096.3-2.29.1-3.287-.1-.298-1.497-.697-2.096-.497-1.198.199-2.295.697-2.295 2.39-.1 3.086-.4 3.186-3.593 3.286-1.797.1-2.196.597-1.797 2.29.5 1.792 1.298 2.19 2.994 1.394.4-.2.899-.299 1.697-.598-1.098 3.884-4.391 4.68-7.285 6.373-.5-1.394-.998-2.489-1.398-3.584-.2.1-.399.1-.598.199.2.896.399 1.792.599 2.589.698 3.784.798 4.082 4.39 2.49 2.096-.897 3.094.796 4.691.995 1.297.2 2.595.797 2.296-1.494-.1-.497.399-1.195.399-1.195-.699-.498-1.697-1.194-1.697-1.294.699-1.494 1.497-2.888 2.295-4.282 1.997 2.19 3.893 4.382 5.988 6.672-3.892.896-2.894 3.385-1.696 5.875-1.497.1-2.595.199-3.593.299-.599 2.788 1.497 3.485 3.792 4.58a93.618 93.618 0 01-4.091 1.095c-.1.2-.2.399-.2.598 1.098.597 2.196 1.693 3.194 1.593 1.097-.1 2.095-1.294 3.393-2.19-.799 3.883-1.198 3.983-4.69 2.987-.6-.2-1.198-.1-1.797-.2 0 .2-.1.3-.1.499 1.098.597 2.196 1.095 3.593 1.792-.699.597-1.198 1.095-1.796 1.394-.6.299-1.298.398-1.996.598.898 1.593 2.095 1.294 3.293.697 1.796-.897 3.493-1.195 5.289.1 1.198.796 2.595 1.194 3.892 1.791 2.994 1.196 4.99.2 6.387-2.588.599-1.195 1.597-2.29 2.695-3.187 1.597-1.494 2.295-3.286 1.597-5.278z"/><path fill="url(#paint2_linear)" d="M74.212 32.819c2.195-.797 4.29-1.793 6.287-2.689 0 1.295-.2 2.29.1 3.187.3.896.998 1.693 1.796 2.888-2.096.199-3.692.298-5.29.398-1.197.1-1.995 1.493-1.696 3.186.2 1.394 1.198 1.096 1.996.896.998-.298 1.896-.697 2.894-.995 3.294-1.195 7.086-1.295 9.481-3.685-.2-1.593-.3-3.286-2.195-3.385.399-.1.798-.2 1.197-.399.599-.298 1.597-.597 1.697-1.095.2-.597 0-1.693-.5-2.19-.398-.498-1.397-.897-1.995-.698-1.896.498-3.693 1.195-5.589 1.892-.1-.199-.2-.398-.2-.697 1.597-.597 3.194-1.394 4.89-1.792 1.697-.398 3.494-.498 5.39-.697-1.597-2.689-3.593-.1-5.49-1.295.899-.995 1.697-1.792 2.097-2.19-.3-.697-.4-1.395-.799-1.892-.798-.797-1.696-2.191-2.495-2.191-1.597 0-1.297 1.394-.898 2.49.1.298 0 .597 0 1.095-1.198-.2-2.295-.399-3.393-.498-.5 0-1.397.199-1.397.398-.1 1.095-.2 2.39.3 3.286.298.498 1.795.498 2.694.399.798-.1 1.497-.598 2.195-.996.1.199.2.398.3.498-.5.298-.899.697-1.497.796-3.094.498-6.188 1.195-9.381 1.394-1.697.1-2.895.498-3.194 2.191-.1.797-.1 2.091.4 2.49.299.597 1.596.199 2.295-.1zm10.778 3.585c-.2-2.092.599-3.187 2.395-3.685-.1 1.593-.699 2.888-2.395 3.685zm2.295-5.577c-.898.996-1.696 1.793-2.495 2.689-.898-1.992-.3-2.59 2.495-2.689z"/><path fill="url(#paint3_linear)" d="M96.866 91.769c.898.597 1.896.996 2.994.996 1.197.1 2.295-.2 3.393-.697 1.896-.996 3.393-2.39 4.491-4.183.798-1.394 1.397-2.987 1.497-4.68.1-1.892-.1-3.684-.599-5.477-1.397-4.68-4.291-8.165-8.682-10.356-1.697-.896-3.493-1.394-5.39-1.593-.299 0-.698-.1-.997-.1 3.193.996 5.788 2.69 7.584 5.477 1.797 2.788 2.295 5.875 1.797 9.161-.1 0-.2-.1-.3-.1-1.497-.597-2.994-.696-4.49-.198-1.198.398-2.196 1.195-3.094 2.19-.3.3-.5.598-.7.897l-.598 1.493c-.4 1.295-.4 2.689.2 3.983.599 1.295 1.597 2.39 2.894 3.187z"/><path fill="url(#paint4_linear)" d="M79.9 78.824c1.397-1.992 3.293-3.386 5.589-4.382.2-.1.399-.199.599-.199v.398c0 .1 0 .2.1.3.299 1.593.997 2.887 2.295 3.783.898.697 1.896 1.096 2.994 1.295.399.1.898.199 1.297.199.499 0 1.098-.1 1.597-.2 1.597-.398 2.894-1.194 3.692-2.688.699-1.294.998-2.689.998-4.182-.1-1.793-.798-3.386-2.195-4.481-1.697-1.394-3.593-2.091-5.788-2.29-.999-.1-2.096 0-3.094.199-.5.1-.998.199-1.497.398a13.808 13.808 0 00-4.99 3.186c-3.892 3.784-5.689 8.465-5.09 13.941.2 1.793.699 3.486 1.397 5.079.1.199.2.398.3.498v-.1c-.4-1.792-.5-3.684-.2-5.477.1-1.991.799-3.684 1.996-5.277z"/><path fill="url(#paint5_linear)" d="M106.546 91.271s0-.1.1-.1c-.1 0-.1 0-.1.1-2.195 1.992-4.79 3.286-7.784 3.684-1.297.2-2.595.1-3.892-.199-1.797-.398-3.393-1.095-4.89-2.19-.3-.2-.5-.399-.799-.598.3-.2.6-.498.799-.697 1.097-.996 1.696-2.29 1.896-3.784.1-.996 0-1.992-.3-2.987-.1-.498-.299-.897-.498-1.394a5.07 5.07 0 00-1.298-1.594c-1.098-.995-2.295-1.493-3.792-1.493a7.306 7.306 0 00-3.294.796c-1.796.897-3.093 2.191-3.592 4.183-.4 1.394-.3 2.788 0 4.182a10.846 10.846 0 002.395 4.78c.399.398.698.896 1.197 1.195 2.396 1.891 5.19 2.987 8.284 3.385 1.796.2 3.493.1 5.19-.299 4.39-.896 7.783-3.286 10.378-6.97z"/><path fill="url(#paint6_linear)" d="M75.552 100.248l2.704-2.613c.756.755.648 1.345.247 1.801l.2.2.998-.897-2.994-3.087-.998.897.2.199c.606-.407 1.275-.221 1.895.398l-2.794 2.689c-.22.219-.594-.2-.798-.3l-.2.2 1.597 1.693.2-.199c-.27-.388-.373-.821-.257-.981z"/><path fill="url(#paint7_linear)" d="M82.695 100.631l-.2-.099c-.998.796-2.395 1.991-3.393 2.788-.212.211-.731.465-.998.199l-.1.199 1.597.896.1-.199c-.2-.099-.3-.199-.4-.299-.392-.391.565-.862.799-1.095l1.497.896c-.085.466-.085 1.808-.799 1.096l-.1.199 1.797.996.1-.2c-.228-.227-.4-.297-.4-.697l.5-4.68zm-1.098 2.689l-1.298-.697 1.597-1.295-.3 1.992z"/><path fill="url(#paint8_linear)" d="M85.988 102.424c.258 0 .499.375.499.597l-.998 3.386c0 .356-.605.392-.799.199l-.1.199 2.096.598.1-.2c-.31 0-.599-.306-.599-.597l.998-3.386c0-.416.644-.298.899-.298l.1-.2-2.096-.597-.1.299z"/><path fill="url(#paint9_linear)" d="M93.573 107.303c-.446-.666-1.016-1.252-1.497-1.892.596-.396 1.088-1.086 1.596-1.593.211-.211.525-.199.799-.199v-.2l-1.797-.099v.199h.3c.186 0 .21.388.1.498-.5.498-.946 1.169-1.597 1.494h-.1l.1-1.693c0-.384.292-.299.599-.299v-.199l-1.996-.1v.199c.278 0 .598.07.598.399l-.1 3.485c0 .376-.442.299-.698.299v.199l1.996.099v-.199c-.29 0-.599-.043-.599-.398l.1-1.693h.1c.6.798 1.343 1.486 1.796 2.39h1.397v-.199c-.64 0-.628-.03-1.097-.498z"/><path fill="url(#paint10_linear)" d="M99.061 102.424c-.562 0-1.274.077-1.696.498-1.245 1.241-1.167 3.306.3 4.281.564.376 1.252.36 1.895.2.618-.206 1.035-.553 1.398-1.096.894-1.339-.227-3.883-1.897-3.883zm-.3 4.58c-1.185-.591-1.826-2-1.396-3.286.237-.474.409-.752.898-.996 2.303-1.148 3.023 5.542.499 4.282z"/><path fill="url(#paint11_linear)" d="M106.446 103.619c-.526.366-.999.698-1.497.995l.2-5.377-.1-.1-3.094 1.893.599 1.194.2-.099c0-.873.058-1.153.698-1.792l.998-.598-.199 5.377.1.1 3.293-2.091-.699-1.394c-.109.052-.26.158-.26.158s.26 1.292-.239 1.734z"/><path fill="url(#paint12_linear)" d="M112.135 97.943l-4.192-1.594-.199.2 1.996 3.983c.357.356-.1.683-.1.995l.2.2 1.197-1.394-.199-.2c-.245.245-.52.478-.799.2-.224-.225-.357-.614-.499-.897l1.098-1.294 1.098.398c.357 0 .075.448 0 .598l.199.199 1.398-1.494-.2-.2c-.21.21-.731.567-.998.3zm-2.794 1.195l-.899-1.793 1.897.697-.998 1.096z"/></g><defs><linearGradient id="paint0_linear" x1="70" x2="47.077" y1="108" y2="18.371" gradientUnits="userSpaceOnUse"><stop stop-color="#A36141"/><stop offset="1" stop-color="#E89E75"/></linearGradient><linearGradient id="paint1_linear" x1="70" x2="47.077" y1="108" y2="18.371" gradientUnits="userSpaceOnUse"><stop stop-color="#A36141"/><stop offset="1" stop-color="#E89E75"/></linearGradient><linearGradient id="paint2_linear" x1="70" x2="47.077" y1="108" y2="18.371" gradientUnits="userSpaceOnUse"><stop stop-color="#A36141"/><stop offset="1" stop-color="#E89E75"/></linearGradient><linearGradient id="paint3_linear" x1="70" x2="47.077" y1="108" y2="18.371" gradientUnits="userSpaceOnUse"><stop stop-color="#A36141"/><stop offset="1" stop-color="#E89E75"/></linearGradient><linearGradient id="paint4_linear" x1="70" x2="47.077" y1="108" y2="18.371" gradientUnits="userSpaceOnUse"><stop stop-color="#A36141"/><stop offset="1" stop-color="#E89E75"/></linearGradient><linearGradient id="paint5_linear" x1="70" x2="47.077" y1="108" y2="18.371" gradientUnits="userSpaceOnUse"><stop stop-color="#A36141"/><stop offset="1" stop-color="#E89E75"/></linearGradient><linearGradient id="paint6_linear" x1="70" x2="47.077" y1="108" y2="18.371" gradientUnits="userSpaceOnUse"><stop stop-color="#A36141"/><stop offset="1" stop-color="#E89E75"/></linearGradient><linearGradient id="paint7_linear" x1="70" x2="47.077" y1="108" y2="18.371" gradientUnits="userSpaceOnUse"><stop stop-color="#A36141"/><stop offset="1" stop-color="#E89E75"/></linearGradient><linearGradient id="paint8_linear" x1="70" x2="47.077" y1="108" y2="18.371" gradientUnits="userSpaceOnUse"><stop stop-color="#A36141"/><stop offset="1" stop-color="#E89E75"/></linearGradient><linearGradient id="paint9_linear" x1="70" x2="47.077" y1="108" y2="18.371" gradientUnits="userSpaceOnUse"><stop stop-color="#A36141"/><stop offset="1" stop-color="#E89E75"/></linearGradient><linearGradient id="paint10_linear" x1="70" x2="47.077" y1="108" y2="18.371" gradientUnits="userSpaceOnUse"><stop stop-color="#A36141"/><stop offset="1" stop-color="#E89E75"/></linearGradient><linearGradient id="paint11_linear" x1="70" x2="47.077" y1="108" y2="18.371" gradientUnits="userSpaceOnUse"><stop stop-color="#A36141"/><stop offset="1" stop-color="#E89E75"/></linearGradient><linearGradient id="paint12_linear" x1="70" x2="47.077" y1="108" y2="18.371" gradientUnits="userSpaceOnUse"><stop stop-color="#A36141"/><stop offset="1" stop-color="#E89E75"/></linearGradient><filter id="filter0_i" width="45" height="107" x="70" y="1" color-interpolation-filters="sRGB" filterUnits="userSpaceOnUse"><feFlood flood-opacity="0" result="BackgroundImageFix"/><feBlend in="SourceGraphic" in2="BackgroundImageFix" result="shape"/><feColorMatrix in="SourceAlpha" result="hardAlpha" values="0 0 0 0 0 0 0 0 0 0 0 0 0 0 0 0 0 0 127 0"/><feOffset dy="1"/><feComposite in2="hardAlpha" k2="-1" k3="1" operator="arithmetic"/><feColorMatrix values="0 0 0 0 1 0 0 0 0 1 0 0 0 0 1 0 0 0 1 0"/><feBlend in2="shape" mode="soft-light" result="effect1_innerShadow"/></filter></defs></svg>