<svg xmlns="http://www.w3.org/2000/svg" width="185" height="108" fill="none" viewBox="0 0 185 108"><g filter="url(#filter0_i)"><path fill="url(#paint0_linear)" d="M97.966 34.714h-.064V45.7l.087-.03c3.207-1.095 3.34-2.153 3.34-6.02 0-.352.002-.68.005-.986v-.004c.016-1.73.025-2.773-.556-3.351-.457-.454-1.251-.621-2.812-.595z"/><path fill="url(#paint1_linear)" d="M74.397 75.25a1.54 1.54 0 00.316 1.04 1.06 1.06 0 00.824.363 1.04 1.04 0 00.818-.364 1.839 1.839 0 000-2.079 1.042 1.042 0 00-.818-.364 1.058 1.058 0 00-.824.364 1.54 1.54 0 00-.316 1.04z"/><path fill="url(#paint2_linear)" d="M72.169 75.075h-.823v-1.188h.823a.593.593 0 01.406 1.007.593.593 0 01-.406.181z"/><path fill="url(#paint3_linear)" d="M86.949 74.922h-.752v-1.035h.752c.383 0 .577.174.577.517 0 .344-.194.518-.577.518z"/><path fill="url(#paint4_linear)" d="M92.846 76.612h-.455v-2.725h.455c.66 0 1.243.359 1.243 1.363 0 1.003-.583 1.362-1.243 1.362z"/><path fill="url(#paint5_linear)" d="M98.305 74.917h-.732v-1.03h.732a.499.499 0 01.567.517c0 .333-.22.513-.567.513z"/><path fill="url(#paint6_linear)" d="M98.33 76.612h-.757v-1.265h.757c.475 0 .716.21.716.63 0 .425-.24.635-.716.635z"/><path fill="url(#paint7_linear)" d="M92.28 60.292l-.005 2.572c-.026 2.887-.164 3.93-.617 4.649a1.593 1.593 0 01-1.182.751 1.858 1.858 0 01-.26.019 1.12 1.12 0 01-.932-.429c-.516-.675-.599-1.947-.599-5.689v-.822c.005-3.466.092-4.776.602-5.7.264-.482.695-.85 1.212-1.035a1.01 1.01 0 011.164.144c.524.567.617 1.944.617 5.54z"/><path fill="url(#paint8_linear)" d="M110.678 35.416l.183-.015.012.057.59 2.912-1.455.38.67-3.334z"/><path fill="url(#paint9_linear)" d="M101.356 56.233c0 1.022-.755 1.866-1.924 2.148l-1.54.329.002-6.386 1.473-.547a1.527 1.527 0 011.422.043c.378.263.57.768.573 1.501l-.002.946-.004 1.965z"/><path fill="url(#paint10_linear)" fill-rule="evenodd" d="M61 80.09V27.908L123 19v70l-62-8.91zm42.188-38.492c0 3.282-1.283 4.507-2.437 5.08l-4.866 1.727V32.749h3.583a3.37 3.37 0 012.671 1.095l.001.001c.664.709.939 1.573 1.048 3.299v4.454zm8.588 34.281c.138.487.342.774.767.774a.595.595 0 00.485-.205.647.647 0 00.138-.425c0-.313-.245-.492-.674-.697a2.178 2.178 0 01-.604-.368.782.782 0 01-.266-.63.884.884 0 01.261-.65.848.848 0 01.619-.262.941.941 0 01.93.574l-.363.235a.59.59 0 00-.567-.379.433.433 0 00-.429.446.466.466 0 00.209.415l.011.007c.077.053.14.097.193.126l.276.143c.167.076.325.171.471.282a.883.883 0 01.383.748c.007.27-.092.533-.276.732a1.021 1.021 0 01-.797.338 1.12 1.12 0 01-.752-.272 1.239 1.239 0 01-.404-.696l.389-.236zm-37.845-.63a1.856 1.856 0 01.466-1.341 1.57 1.57 0 012.28 0 1.857 1.857 0 01.465 1.342c.028.492-.14.976-.465 1.346a1.58 1.58 0 01-2.28 0 1.876 1.876 0 01-.466-1.346zm-3.035-1.792v3.585h.45v-1.536h.797a1.023 1.023 0 00.982-1.426 1.024 1.024 0 00-.982-.623h-1.247zm7.277 0h-.475l.956 3.585h.47l.742-2.463.741 2.463h.47l.956-3.585h-.475l-.726 2.92-.762-2.541h-.41l-.76 2.54-.727-2.919zm4.615 0v3.585h2.106v-.43h-1.656v-1.265h1.299v-.43h-1.299v-1.03h1.605v-.43h-2.055zm2.96 0v3.585h.45v-1.69h.536l1.048 1.69h.532l-1.069-1.72a.873.873 0 00.747-.918.935.935 0 00-.656-.913.929.929 0 00-.397-.034h-1.192zm3.234 0v3.585h2.107v-.43h-1.657v-1.265h1.3v-.43h-1.3v-1.03h1.606v-.43h-2.055zm2.96 0v3.585h.98a1.586 1.586 0 001.172-.476 1.79 1.79 0 00.475-1.316 1.772 1.772 0 00-.475-1.311 1.573 1.573 0 00-1.171-.482h-.982zm5.182 0v3.585h1.272a1.002 1.002 0 001.048-.634 1.01 1.01 0 00.067-.431.923.923 0 00-.578-.896.789.789 0 00.404-.702.89.89 0 00-1.007-.922h-1.206zm3.271 0h-.496l1.048 2.038v1.547h.45v-1.547l1.048-2.038h-.496l-.777 1.588-.777-1.588zm3.925 0v.43h1.032v3.155h.45v-3.155h1.033v-.43h-2.515zm3.598 0v3.585h.45v-2.791l1.615 2.791h.527v-3.585h-.45v2.802l-1.615-2.802h-.527zM73.105 56.49V39.54l.126-.026 3.514 7.898 1.83-.479 3.611-7.609.125.028v13.87l2.22-.787V32.749h-1.887l-4.759 11.275-.399.085-4.714-11.36H70.91v24.52l2.195-.779zm33.675-6.96l.063-.022 6.742-2.367v-2.57l-8.931 3.196v22.298h8.931V67.85l-6.805-.012V59.35l.052-.011 5.882-1.257v-2.461L106.78 56.9v-7.37zM93.104 68.655c.818-1.08 1.055-2.239 1.105-5.391l.002-1.92c.007-.484.01-1.036.01-1.74 0-4.556-.14-5.904-1.126-6.706a2.136 2.136 0 00-1.39-.487 3.68 3.68 0 00-1.258.252c-3.76 1.383-3.736 5.525-3.736 5.567l-.002 4.206c0 4.553.14 5.932 1.122 6.953a2.854 2.854 0 002.64.829 3.833 3.833 0 002.633-1.563zm-19.495 1.57a3.58 3.58 0 01-1.177-.157 2.371 2.371 0 01-.938-.56c-.64-.627-.777-1.404-.783-2.45l1.763-.362v.456c0 .763.096 1.011.261 1.182a.921.921 0 00.687.216 1.095 1.095 0 00.836-.33c.22-.249.314-.708.314-1.536 0-.53 0-.987-.26-1.21a.725.725 0 00-.615-.114c-1.127.219-1.849.158-2.272-.192-.534-.442-.639-1.343-.639-2.75a3.664 3.664 0 01.87-2.513c.48-.528 1.121-.88 1.822-1.001a2.421 2.421 0 011.997.345c.732.576.83 1.495.83 2.317v.154l-1.763.328v-.33c0-.582-.07-.87-.255-1.062a.702.702 0 00-.66-.12c-.978.221-1.091 1.067-1.091 1.686 0 .03 0 .08-.003.142-.01.348-.032 1.071.268 1.344a.43.43 0 00.36.104c.486-.072.796-.137.796-.137a2.112 2.112 0 011.738.344c.427.371.635 1.008.635 1.947 0 .912.004.964.006.999V67c0 1.06-.12 1.89-.712 2.493a2.886 2.886 0 01-2.015.73zm20.72-23.272v2.005L86.71 51.66V32.75h7.62v1.987h-5.35v5.904l4.558-.904v2.08L88.98 42.88v5.858l5.35-1.785zm14.675-3.204l.686-3.413 2.063-.54.563 2.777 1.452-.515-2.041-9.308h-1.97l-2.559 11.64 1.806-.64zm-25.85 21.785c0 1.6-.618 2.653-1.653 2.817-1.137.18-1.732-.29-1.736-5.44 0-1.455.184-3.353.59-4.083a2.225 2.225 0 011.207-1.025 1.022 1.022 0 011.122.12c.38.323.424 2.069.43 2.56l1.387-.304.535-.136v-1.194c-.022-1.34-.41-2.328-1.094-2.78a1.848 1.848 0 00-1.072-.333c-.46.02-.915.108-1.35.26-3.017 1.041-3.528 3.283-3.63 5.55v3.423c0 3.922.553 5.701 3.695 5.203 1.817-.288 3.448-.937 3.448-5.65l.001-.348v-.176l-1.88.412v1.124zm23.221-32.784h-1.721v12.543l1.721-.61V32.748zM102.2 49.596c-.589-.413-1.479-.396-2.72.054L95.9 50.904l-.016 19.151h2.016v-8.894l.228-.046c2.131-.432 5.049-1.023 5.087-4.59v-1.87l.001-1.734c0-1.757-.332-2.844-1.017-3.325z" clip-rule="evenodd"/></g><defs><linearGradient id="paint0_linear" x1="46.536" x2="48.429" y1="97.352" y2="26.379" gradientUnits="userSpaceOnUse"><stop stop-color="#DC9674"/><stop offset="1" stop-color="#A96540"/></linearGradient><linearGradient id="paint1_linear" x1="46.536" x2="48.429" y1="97.352" y2="26.379" gradientUnits="userSpaceOnUse"><stop stop-color="#DC9674"/><stop offset="1" stop-color="#A96540"/></linearGradient><linearGradient id="paint2_linear" x1="46.536" x2="48.429" y1="97.352" y2="26.379" gradientUnits="userSpaceOnUse"><stop stop-color="#DC9674"/><stop offset="1" stop-color="#A96540"/></linearGradient><linearGradient id="paint3_linear" x1="46.536" x2="48.429" y1="97.352" y2="26.379" gradientUnits="userSpaceOnUse"><stop stop-color="#DC9674"/><stop offset="1" stop-color="#A96540"/></linearGradient><linearGradient id="paint4_linear" x1="46.536" x2="48.429" y1="97.352" y2="26.379" gradientUnits="userSpaceOnUse"><stop stop-color="#DC9674"/><stop offset="1" stop-color="#A96540"/></linearGradient><linearGradient id="paint5_linear" x1="46.536" x2="48.429" y1="97.352" y2="26.379" gradientUnits="userSpaceOnUse"><stop stop-color="#DC9674"/><stop offset="1" stop-color="#A96540"/></linearGradient><linearGradient id="paint6_linear" x1="46.536" x2="48.429" y1="97.352" y2="26.379" gradientUnits="userSpaceOnUse"><stop stop-color="#DC9674"/><stop offset="1" stop-color="#A96540"/></linearGradient><linearGradient id="paint7_linear" x1="46.536" x2="48.429" y1="97.352" y2="26.379" gradientUnits="userSpaceOnUse"><stop stop-color="#DC9674"/><stop offset="1" stop-color="#A96540"/></linearGradient><linearGradient id="paint8_linear" x1="46.536" x2="48.429" y1="97.352" y2="26.379" gradientUnits="userSpaceOnUse"><stop stop-color="#DC9674"/><stop offset="1" stop-color="#A96540"/></linearGradient><linearGradient id="paint9_linear" x1="46.536" x2="48.429" y1="97.352" y2="26.379" gradientUnits="userSpaceOnUse"><stop stop-color="#DC9674"/><stop offset="1" stop-color="#A96540"/></linearGradient><linearGradient id="paint10_linear" x1="46.536" x2="48.429" y1="97.352" y2="26.379" gradientUnits="userSpaceOnUse"><stop stop-color="#DC9674"/><stop offset="1" stop-color="#A96540"/></linearGradient><filter id="filter0_i" width="62" height="70" x="61" y="19" color-interpolation-filters="sRGB" filterUnits="userSpaceOnUse"><feFlood flood-opacity="0" result="BackgroundImageFix"/><feBlend in="SourceGraphic" in2="BackgroundImageFix" result="shape"/><feColorMatrix in="SourceAlpha" result="hardAlpha" values="0 0 0 0 0 0 0 0 0 0 0 0 0 0 0 0 0 0 127 0"/><feOffset dy="1"/><feComposite in2="hardAlpha" k2="-1" k3="1" operator="arithmetic"/><feColorMatrix values="0 0 0 0 1 0 0 0 0 1 0 0 0 0 1 0 0 0 1 0"/><feBlend in2="shape" mode="soft-light" result="effect1_innerShadow"/></filter></defs></svg>