<svg xmlns="http://www.w3.org/2000/svg" width="185" height="108" fill="none" viewBox="0 0 185 108"><g filter="url(#filter0_i)"><path fill="url(#paint0_linear)" d="M100.956 40.222c.613-.2 1.225-.6 1.838-.6 1.737-.1 3.473-.1 5.311 0 1.43 0 2.349.7 2.962 2.1.919 2.4.715 4.7-.204 7-.409 1-1.226 1.2-1.941.4-.408-.4-.715-1-.817-1.6-.51-1.6-.613-3.2.102-4.8 0 .9-.102 1.8.102 2.6.205 1.1.511 2.1.92 3.1.306.7.919.6 1.225-.1.919-2.1 1.022-4.2 0-6.3-.306-.6-1.021-.9-1.532-1.3-.408.5-1.021.9-1.225 1.5-.715 2-.92 4.2.102 6 1.328 2.3 1.43 4.8 1.838 7.2.715 4.7 1.328 9.4 1.941 14 .408 2.7.612 5.4 1.021 8.1.409 2.6-1.94 4.6-4.392 4.6-3.779.1-7.558 0-11.234 0-.92 0-1.022-.4-1.022-1.1v-2.3c0-.5 0-.9-.715-.9-.612 0-.919.3-.919.9v2.8c0 .2-.204.3-.306.5-.102-.2-.307-.3-.307-.5-.102-.2 0-.5 0-.7-.204-.9.511-2.6-.408-2.6-1.124 0-.306 1.6-.51 2.5-.103.2.101.5 0 .7-.103.2-.41.4-.614.6-.102-.2-.408-.4-.408-.6-.102-.2 0-.5 0-.7-.204-.9.51-2.5-.51-2.5-.92 0-.205 1.6-.41 2.5-.101.2 0 .5 0 .7-.101.2-.203.4-.408.6-.102-.2-.306-.4-.306-.7v-2c-.102-.6.408-1.7-.817-1.6-1.022.1-.409 1.1-.51 1.7-.103.5-.103 1.1 0 1.7 0 .7-.307 1-1.022 1-3.881 0-7.762.1-11.643-.1-2.452-.1-4.494-2-4.086-4.4.409-2.5.511-5.1.817-7.6.511-3.9 1.124-7.7 1.635-11.6.408-2.6.714-5.3 1.02-7.9.103-.4.307-.7.511-1 1.635-2.4 1.328-4.9.818-7.5-.103-.3-.205-.5-.307-.7-.613-.9-1.225-.9-1.94-.1-.205.2-.409.5-.613.8-.92 1.9-.715 3.9-.204 5.9.102.4.51.7.817 1 .306-.4.817-.6 1.021-1.1.817-1.5.51-3.1.306-4.7 0-.2-.306-.4-.51-.6-.205.2-.307.4-.511.6-.306.3-.51.6-.817.8.102-.4.102-.7.204-1.1v-.2c.409-.4.715-.8 1.124-1.1.306.4.715.8.817 1.2.51 1.9.51 3.9-.409 5.7-.204.5-1.021 1.2-1.328 1.1-.51-.1-1.123-.8-1.327-1.3-.92-2.4-1.022-4.9.408-7.2.511-.8 1.226-1.3 2.043-1.3 2.247 0 4.392 0 6.639.2 2.042.2 3.268 1.8 3.268 3.8 0 1.8-.204 3.6-.409 5.3-.408 3.8-.817 7.5-1.225 11.3-.409 3.8-.92 7.6-1.328 11.4-.204 1.7-.409 3.4-.409 5.2 0 2 1.941 3.9 3.984 3.8.204 0 .51-.4.51-.6.102-.8.102-1.7 0-2.5-.102-.4-.408-.9-.817-1.2-2.45-1.5-2.349-4.3.102-5.9.613-.4.715-.9.715-1.7 0-10.3 0-20.6.102-31v-1c0-.9.715-1.1 1.022-.4.51.9 2.144.8 3.064 1 .817.2 1.43.8 1.43.8s.919-.7 2.042-.9c.715-.2 2.043-.2 2.451-.7.92-.9 1.124-.7 1.124.9v31c0 .9 0 1.5 1.021 2.2 2.247 1.5 2.145 3.8.102 5.6-.408.3-.919.7-1.021 1.2-.102 1 0 2 0 3 0 .1.409.2.613.2 2.553-.4 3.779-1.8 3.677-4.3-.103-2.7-.511-5.4-.715-8.1-.307-2.9-.613-5.9-1.022-8.8l-1.532-13.5c-.204-1.4-.408-2.9.511-4.2.102-.8.817-1.2 1.43-1.6-1.43 1.3-1.634 2.9-1.328 4.8.511 3.6.919 7.2 1.43 10.8.409 3.1.817 6.3 1.328 9.4.408 3.4.919 6.8 1.328 10.3.204 1.6.817 3.3-.205 4.9-.102.2-.102.5-.102.7.204-.1.511-.2.715-.4.919-1.1 1.226-2.5 1.021-3.9-.306-2.5-.612-4.9-1.021-7.4-.511-4-1.021-7.9-1.532-11.9-.511-3.8-1.021-7.7-1.43-11.5-.102-1.6-.511-3.3.409-4.9-.102-.4-.511-.7-.613-.9zm-12.46 36.6c.102 0 .102.1.204.1.306 0 .613 0 .92-.1 0-.3-.103-.6-.103-1-.204.3-.408.5-.613.8-.102.1-.306.2-.408.2.306-.6.715-1.3 1.021-1.9.102-.3.102-.7 0-.9-.102-.1-.51-.3-.715-.2-.204.1-.51.4-.51.7 0 .7.102 1.5.204 2.3zm.817-5.4c.102-.3.306-.7.306-1 0-.2-.204-.4-.408-.6-.102.2-.205.3-.205.5v.8c-.204-.2-.408-.4-.51-.6-.102.2-.205.5-.307.7 0 .3.102.7.102 1-.102.7.307 1 .92.8.204-.1.306-.6.408-1-.102-.2-.306-.4-.306-.6zm5.923-1.2c-.306-.2-.612-.3-.919-.5 0 .4-.102.7-.102 1.1.306-.1.613-.3 1.021-.6-.102.1-.102 0 0 0-.306.6-.715 1.2-.919 1.8-.102.2.205.6.205.9.408-.1 1.123-.2 1.123-.4-.102-.7.409-1.6-.409-2.3zm-.102 6.2c.817-.2.511-.8.511-1.3s.306-1.2-.51-1.3c-.307 0-.614.1-.92.2.102.4.306.9.409 1.3.204.4.408.8.51 1.1-.102 0-.204-.1-.408-.2s-.307-.2-.51-.4c-.103.2-.205.4-.205.5 0 .2.204.5.306.7.307-.2.613-.4.817-.6zm-1.021-22.6v14c0 .8.204 1.4 1.123 1.2.307-.1.511-.9.511-1.3v-27.1c0-.3.102-.7-.102-1-.102-.3-.51-.6-.817-.6-.204 0-.613.3-.715.6-.102.2 0 .5 0 .8v13.4zm-15.422 24.2c.204.5.613 1.5 1.021 2.4.102.3.51.4.817.6-.102-.3-.102-.6-.204-.8-.102-.7-.409-1.4-.306-2.1.306-2.9.715-5.7 1.021-8.6.51-4.5 1.123-8.9 1.634-13.4.51-4.1 1.021-8.3 1.532-12.4.204-1.2-.408-2.5-1.43-3-.102-.1-.306-.1-.51-.1 0 .2-.103.4 0 .6.817 1.6.51 3.3.306 4.9-.306 2.4-.715 4.8-.92 7.3-.612 5.1-1.225 10.3-1.94 15.4-.204 2.7-.612 5.7-1.021 9.2zm26.35-37.6c-1.021.6-1.634 1.3-1.634 2.3 0 .9 0 1.8.102 2.7.715 5.5 1.532 10.9 2.247 16.4.613 4.7 1.226 9.4 1.736 14.1.205 1.6.715 3.3-.408 4.8-.102.1 0 .2.102.4.102-.1.306-.1.409-.2 1.225-1.1 1.429-2.5 1.225-4l-1.225-9.6c-.511-3.9-1.022-7.8-1.43-11.7-.307-2.1-.511-4.2-.715-6.3-.307-2.8-1.43-5.6 0-8.4-.102-.2-.307-.4-.409-.5zm-24.614 3.6c0-1.2.102-2.5-1.225-3.3-.205-.1-.409-.1-.613-.2v.6c.102 1.6.51 3.2.306 4.8-.408 4.1-1.123 8.2-1.634 12.4-.817 6.1-1.532 12.1-2.349 18.2-.204 1.4 0 2.8.92 4 .203.2.51.4.816.6 0-.3-.102-.5-.102-.8-.102-.7-.306-1.4-.306-2.1.306-3.1.715-6.2 1.021-9.3l1.838-14.7c.511-3.5.92-6.8 1.328-10.2zm-7.251 33.1c.102.5-.102 1 .102 1.5.204.8.715 1.5 1.021 2.2.102.1.409.1.613.1 0-.1-.102-.3-.102-.4-.204-.8-.613-1.7-.51-2.5.101-1.8.408-3.5.612-5.3l1.838-14.7c.613-4.7 1.226-9.4 1.839-14 .204-1.3-.204-2.4-1.328-3.3-.102-.1-.408-.1-.613-.1 0 .2 0 .4.102.6.817 1.3.715 2.8.511 4.2l-1.532 11.4c-.613 4.3-1.123 8.6-1.736 12.9-.307 2.4-.51 4.9-.817 7.4zm30.027-36.8c-.307.2-.511.3-.715.4-.919.7-1.226 1.8-1.124 2.8.307 2.8.613 5.5 1.022 8.3.51 4.1 1.123 8.3 1.634 12.4.511 3.7.919 7.5 1.43 11.2.204 1.7.715 3.4-.307 5-.102.1 0 .3 0 .5.102-.1.307-.1.409-.2.204-.2.408-.5.613-.8.817-1.4.612-2.9.408-4.4-.51-4.2-1.123-8.5-1.634-12.7-.715-5.4-1.328-10.8-2.043-16.2-.204-1.9-.817-3.8.307-5.7.204-.1.102-.3 0-.6zm7.353 36.8c-.102-1-.306-2.1-.408-3.1-.511-4.3-.919-8.6-1.43-12.9-.715-5.5-1.532-11-2.247-16.5-.102-.9.204-1.9.306-2.8.103-.4.205-.9.307-1.3-.409.3-.919.6-1.226 1-.204.3-.306.7-.306 1.1 0 1.2-.102 2.3.102 3.5.511 4.2 1.123 8.4 1.634 12.6.817 5.8 1.634 11.7 2.349 17.5.204 1.4-.204 2.8-.306 4.2 0 .2-.102.4-.102.6.204-.1.51-.1.715-.3.612-1.1.612-2.3.612-3.6zm-33.601.2c-.102 1.3.204 2.5 1.225 3.4.102.1.307.1.511.2 0-.2 0-.3-.102-.4-.92-1.2-.613-2.5-.51-3.9.101-1.3.408-2.5.51-3.8l2.145-17.1c.51-4 1.123-8 1.532-12.1.102-1.2-.205-2.3-1.226-3.1-.102-.1-.306-.1-.51-.2 0 .2-.103.5-.103.6.715 1.2.613 2.5.51 3.7-.203 2.1-.51 4.2-.816 6.3-.51 3.9-1.022 7.7-1.532 11.6-.307 2.4-.613 4.7-.92 7.1-.102 2.7-.408 5.2-.714 7.7zm11.234-9.2c0 .3.307.8.511.9.613.1 1.021-.1.92-.8v-.7-27.1c0-.3.101-.7 0-1-.103-.2-.41-.5-.614-.5-.204 0-.612.2-.715.5-.102.2 0 .5 0 .8-.204 4.6-.102 24.7-.102 27.9zm3.166-14.3v-11.2-3c0-.2-.306-.5-.51-.7-.204.2-.409.4-.409.6-.102.3 0 .6 0 .8v27.1c0 .4.307.9.409 1.3.204-.5.51-.9.51-1.4v-13.5zm1.022.2v13.2c0 .5.306 1.1.51 1.6.817-.3.409-1 .409-1.5v-26.6c0-.3.102-.7 0-1-.102-.3-.306-.5-.51-.7-.103.2-.307.4-.41.6-.101.3 0 .6 0 .8v13.6zm5.106 21.3l.409.6c.51-.6 1.021-1.1 1.532-1.7-.306-.1-.613-.4-.92-.4-1.123-.3-1.02.5-1.02 1.5zm1.124-2.2c.306-.1.51-.3.817-.4-.51-.6-.92-1.1-1.43-1.7-.102.3-.306.6-.409.8-.102.7-.102 1.4 1.022 1.3zm-7.252-2.2v-.8c-.102-.2-.306-.4-.408-.6-.204.2-.51.3-.51.5-.103.5-.103 1.1 0 1.6 0 .2.306.3.51.5.102-.2.306-.4.408-.6v-.6zm-4.902 1c-.102-.3-.306-.6-.409-.9-.51.5-.919 1.1-1.43 1.6.205.1.41.4.716.4.817.2 1.02-.3 1.123-1.1zm5.924-.8c0 .1.204.9.306.9.92 0 .51-.7.613-1.2 0-.2.102-.4 0-.5-.102-.3-.306-.6-.51-.8-.103.3-.307.5-.41.8v.8zm-6.128 4.1c0-.9.102-1.6-.92-1.5-.306 0-.51.3-.816.4.408.5.919 1.1 1.327 1.6.204-.2.409-.4.409-.5zm5.106.9c.102 0 .102 0 .205-.1-.205-.4-.409-.9-.613-1.3-.204.5-.409.9-.51 1.4-.103.2-.103.5 0 .7.101.2.306.4.51.6.204-.2.408-.3.408-.5v-.8zm1.022-.5c0 .6-.102.9 0 1.2.102.2.306.4.408.6.205-.2.51-.4.51-.7.103-.5 0-1.1-.101-1.6 0-.1-.307-.2-.51-.3-.103 0-.307.2-.307.3v.5zm-1.532-1.3c.102-.2.204-.3.306-.4-.102-.1-.306-.2-.408-.1-.102 0-.205.2-.307.2.102.1.204.2.409.3zm2.553-.2c-.102-.2-.204-.3-.306-.3-.102 0-.307 0-.409.1.102.1.204.3.307.4l.408-.2zm.204-1.1c-.306-.2-.408-.2-.612-.3-.103 0-.205.1-.307.1l.307.3c.102 0 .204-.1.612-.1zm-2.45-.2h-.512v.2c.103 0 .205.1.307 0l.204-.2z"/><path fill="url(#paint1_linear)" d="M108.105 42.621c.307-.4.511-.9.817-1.3.307.3.613.6.817 1 .205.2.307.5.307.7.102.2 0 .5 0 .8-.205-.2-.409-.3-.511-.5-.204-.9-.613-1.2-1.43-.7z"/><path fill="url(#paint2_linear)" d="M103.2 22v-5.4c0-1 .1-1.1 1.1-1.1 1.4 0 1.4 0 1.5 1.4v3c0 .4 0 .9.1 1.3.1.3.4.4.6.2.7-.6.9-1.6.5-2.4-.4-.8-.3-1.1.6-1.4.5-.2.5-.5.5-.9.1-1 .1-1 1.1-1 1.6 0 1.6 0 1.6 1.5V28c0 .5-.2.7-.7.7-1.9.2-1.9.2-1.9-1.8v-4.5c0-.2-.1-.4-.2-.5-.1.1-.3.2-.4.3-1.1 1.6-2 3.3-1.9 5.4 0 1-.1 1-1 1h-.2c-1.2 0-1.2 0-1.2-1.2-.1-1.8-.1-3.6-.1-5.4z"/><path fill="url(#paint3_linear)" d="M75.2 20.8v-2c0-.9.2-1.6.8-2.3 1-1.2 3.1-1.8 4.6-1.1.7.3 1.4.7 1.9 1.4.3.5.5 1 .2 1.5-.2.4-.6.6-1.1.4-.4-.1-.5-.5-.4-.8.1-.2.1-.4.1-.5 0-.4-.3-.6-.6-.6-.4 0-.6.1-.7.5-.2.5.1 1.1.6 1.5.6.4 1.3.9 1.9 1.4.2.2.4.6.4.9 0 1.5.1 2.9 0 4.4-.1 2.6-3.4 4.5-5.7 3.2-.5-.3-1-.8-1.5-1.2-.5-.5-.6-1.2-.3-1.8.2-.3.5-.5.8-.4.2.1.4.3.6.5.1.1.1.3.1.5 0 .1-.1.3-.1.4 0 .3.5.8.8.7.4-.1.5-.5.5-.8-.1-.9-.5-1.5-1.3-1.9-.2-.1-.4-.2-.6-.2-.7-.3-.9-.5-.9-1.2V21c-.2-.2-.2-.2-.1-.2zm2.5-.4c0 .8-.1 1.7 0 2.5 0 .3 0 .7.2 1 .5 1 1.2 1.8 1.1 3 0 .3.5.4.6.1.1-.3.2-.7.2-1v-5c0-.5 0-1.1-.3-1.4-.5-.7-.8-1.5-.8-2.4 0-.2-.2-.4-.4-.6-.2.2-.5.3-.6.5-.1.2-.1.4-.1.6.1 1 .1 1.9.1 2.7z"/><path fill="url(#paint4_linear)" d="M116.6 15.5h3c.4 0 .6.1.6.6-.1 2.1-.2 4.2-.1 6.2.1 1.9-.1 3.7 0 5.5 0 .8 0 .8-.8.8h-.2c-1.4 0-1.6-.2-1.5-1.6 0-.8.1-1.6.1-2.4 0-.8-.4-1-1.1-.6-1.2.7-2 1.6-1.8 3.1v.5c0 1-.1 1.1-1.1 1.1-1.1 0-1.1 0-1.1-1.2v-2.2c0-.5.2-.7.7-.8.7-.2 1.4-.4 2-.7.5-.2.6-.8.1-1.1-.6-.4-1.1-.8-1.9-.9-.8-.1-.9-.2-.9-1v-4.4c0-.8.1-.8.9-.9 1-.1 2.1 0 3.1 0zm.9 3.9v-1.6c0-1.4-.1-1.4-1.5-1.4h-.2c-.7.1-.8.2-.8.8v3c0 .2.1.6.3.7.5.3 1 .6 1.5.8.5.2.7.1.7-.5v-1.8z"/><path fill="url(#paint5_linear)" d="M69.7 15.5h3.1c.5 0 .7.3.7.7.1.3.1.7 0 1-.3 1.3.1 2.5 0 3.8 0 .6 0 1.1-.1 1.7 0 .1-.2.2-.4.2-.6 0-1.2-.1-1.7.1-.7.2-1.3.6-1.9 1-.2.1-.3.5-.3.8 0 .2.4.3.6.4.3.1.7-.1.9.4.3.7-.1 1.3-.9 1.2-.3 0-.5-.1-.8-.2-.8-.3-.9-.2-.9.7v1c0 .4-.1.5-.5.6h-1.9c-.1 0-.3-.3-.3-.4 0-1.1.1-2.3.1-3.4v-4.2-3.1c0-.3.1-.5 0-.8-.1-1-.1-1.1 1-1.2 1.2-.4 2.2-.3 3.3-.3zm-1.5 4.2v2.4c0 .6.2.7.8.5.3-.1.5-.2.8-.4.7-.4 1-.9.9-1.7-.1-.9 0-1.8 0-2.7 0-1.2-.1-1.3-1.3-1.3h-.1c-1 0-1 .1-1.1 1v2.2z"/><path fill="url(#paint6_linear)" d="M87 20.5v3c0 .5.1.9.5 1.2.3.2.4.7.5 1 .1.3.1.6.2.8.1.2.4.3.6.3.1 0 .3-.2.4-.4.1-.2.1-.5.1-.7.1-.6.1-1.2.2-1.7 0-.2 0-.5.4-.5h1.6c.3 0 .5.2.5.5-.1 1.1-.2 2.3-.5 3.4-.3.9-.9 1.6-2 1.5h-.7c-1.9.2-3.1-.9-4.1-2.2-.2-.3-.2-.8-.1-1.2 0-.1.4-.4.5-.4.3 0 .6.2.8.4.1.2.1.5.1.8-.1.4-.2.8.3.9.4.1 1.1-.6 1-1-.1-.4-.4-.9-.7-1.2-.4-.4-1-.7-1.5-1-.1-.1-.3-.2-.3-.3v-3.9-1.7c0-.3.1-.6.1-.9.1-.8.6-1.2 1.3-1.5.8-.4 1.7-.6 2.6-.5.6 0 1.1.2 1.6.4 1.5.6 1.7 1.8 1.8 3.3 0 .4-.2.7-.7.6h-.2c-2 0-1.8.1-1.8-1.7 0-1.1-.4-1.5-1.4-1.3-.7.1-.9.3-.9 1-.2.9-.2 1.9-.2 3z"/><path fill="url(#paint7_linear)" d="M96.4 20.6v1.7c-.1 1.1.1 2.2.8 3.1.2.3.3.7.5 1.1.1.2.3.4.4.4.2-.1.5-.2.6-.4.1-.2.2-.5.2-.8v-1.3c0-.8 0-.8.9-.8h.6c.3 0 .8-.1.9.1.2.3.2.7.1 1-.1.8-.3 1.7-.5 2.5-.2 1.1-.8 1.6-1.9 1.6h-1.8c-1.3-.1-2.2-.9-3-1.8-.4-.4-.5-1-.2-1.6.2-.5.6-.6.9-.1.2.3.2.8.2 1.2 0 .5.3.7.6.7.6.1 1.2-.8.9-1.3-.3-.5-.8-.9-1.2-1.3-.2-.2-.4-.2-.7-.4-.5-.3-.7-.7-.7-1.3v-5.3c0-1.2.4-1.6 1.5-2.1.7-.3 1.5-.5 2.3-.5.9 0 1.7.4 2.5.8.2.1.4.5.6.7.3.5.5 1 .7 1.6.2.6 0 1.1-.6 1.2h-.6c-1.3 0-1.5 0-1.3-1.3v-.6c-.1-.9-1.2-1.4-2-.9-.2.2-.4.6-.4.9-.3 1.1-.2 2.1-.3 3.2z"/><path fill="url(#paint8_linear)" d="M66.37 35.859v-.1a.632.632 0 01.081-.02c.53-.104.794-.389.794-.854v-.396c0-.109-.04-.171-.118-.188a.944.944 0 00-.178-.012h-2.42c-.273 0-.414.137-.424.41H64v-1.614h.105c.01.274.151.41.425.41h2.346c.267 0 .408-.136.425-.41h.105v2.774H66.37z"/><path fill="url(#paint9_linear)" d="M65.68 39.178c-.495 0-.912-.157-1.25-.473a1.595 1.595 0 01-.52-1.22c0-.518.165-.94.495-1.268.332-.325.757-.488 1.275-.488.507 0 .929.16 1.264.483.337.322.506.737.506 1.243 0 .503-.17.917-.51 1.242-.334.321-.754.481-1.26.481zm-.02-.84c.409 0 .755-.05 1.038-.153.415-.15.622-.393.622-.73 0-.337-.203-.58-.61-.73-.282-.104-.625-.156-1.03-.156-.406 0-.749.052-1.03.156-.407.15-.61.393-.61.73 0 .332.2.574.602.725.28.106.62.159 1.018.159z"/><path fill="url(#paint10_linear)" d="M64.625 42.3a2.271 2.271 0 01-.418-.383 1.368 1.368 0 01-.231-.476 1.902 1.902 0 01-.061-.515c0-.516.166-.939.498-1.267.332-.33.756-.494 1.272-.494.504 0 .924.162 1.26.486.336.324.505.738.505 1.24 0 .207-.043.437-.13.689-.053.158-.08.263-.08.315 0 .054.023.1.068.137.01.01.055.039.137.088v.11h-1.15v-.125a4.31 4.31 0 00.156-.064c.248-.112.445-.256.593-.432.184-.218.276-.452.276-.703 0-.343-.2-.591-.603-.745-.276-.104-.62-.156-1.032-.156-1.04 0-1.56.317-1.56.95 0 .273.065.517.195.73.093.151.238.31.434.476l-.129.14z"/><path fill="url(#paint11_linear)" d="M67.296 45.84a.492.492 0 00-.032-.162c-.049-.109-.19-.225-.425-.349l-2.033-1.081c-.363-.194-.6-.353-.71-.479a.692.692 0 01-.181-.471c0-.164.048-.308.146-.43a.488.488 0 01.398-.195c.112 0 .205.034.278.102a.346.346 0 01.113.269.33.33 0 01-.088.237.305.305 0 01-.232.093.48.48 0 01-.135-.027.45.45 0 00-.124-.027c-.064 0-.095.035-.095.105 0 .172.22.369.659.588l.044.022 2.197-1.396c.147-.093.22-.248.22-.464h.11v1.758h-.11v-.088c0-.184-.05-.276-.152-.276-.068 0-.196.058-.385.176l-1.116.69 1.101.574a.77.77 0 00.332.105c.09 0 .15-.043.183-.129a.926.926 0 00.037-.247h.11v1.102h-.11z"/><path fill="url(#paint12_linear)" d="M67.3 48.768c-.016-.273-.157-.41-.424-.41h-2.232c-.175 0-.29.015-.341.044-.082.044-.122.143-.122.296v.02h-.076c-.096 0-.256.003-.481.011-.05.002-.2.012-.45.03v-.152c.2-.04.35-.092.455-.154.247-.146.371-.404.371-.774v-.935c0-.408-.102-.697-.305-.866-.108-.09-.28-.168-.52-.235v-.129l.996.054c0 .312.173.512.52.6.576.147 1.238.22 1.985.22.237 0 .392-.023.464-.068.099-.062.151-.201.156-.418h.11v2.866H67.3zm-2.736-1.206h2.385c.077 0 .13-.014.161-.044.054-.05.08-.193.08-.43 0-.235-.06-.377-.18-.424-.088-.034-.281-.058-.58-.07-1-.042-1.735-.169-2.205-.382v1.111c0 .133.048.21.144.227.044.008.109.012.195.012z"/><path fill="url(#paint13_linear)" d="M64 51.949v-1.594h.105c.01.296.08.444.21.444.036 0 .07-.007.1-.02l.564-.234V49.4l-.45-.176a.47.47 0 00-.17-.034c-.16 0-.244.13-.254.39H64v-1h.105c.005.16.111.284.32.37l2.98 1.224v.156L64.33 51.6c-.15.061-.225.171-.225.33v.019H64zm1.174-1.485l1.236-.51-1.236-.478v.988z"/><path fill="url(#paint14_linear)" d="M66.451 54.597a.794.794 0 01-.715-.386c-.137-.215-.205-.489-.205-.823v-.43H64.53c-.274 0-.415.137-.425.41H64v-1.615h.105c.01.273.151.41.425.41h2.346c.267 0 .408-.137.425-.41h.105v1.594c0 .833-.318 1.25-.955 1.25zm.005-.784c.205 0 .377-.036.515-.11a.449.449 0 00.264-.42v-.085c0-.16-.072-.24-.215-.24h-1.33c.008.227.038.402.09.526.093.22.318.33.676.33z"/><path fill="url(#paint15_linear)" d="M64.625 57.584a2.275 2.275 0 01-.418-.383 1.37 1.37 0 01-.231-.476 1.901 1.901 0 01-.062-.515c0-.516.167-.938.499-1.267.332-.329.756-.493 1.272-.493.504 0 .924.162 1.26.485.336.324.505.738.505 1.24 0 .207-.043.437-.13.69-.053.157-.08.262-.08.314 0 .054.023.1.068.137.01.01.055.039.137.088v.11h-1.15v-.125a4.31 4.31 0 00.156-.063c.248-.113.445-.257.593-.432.184-.219.276-.453.276-.704 0-.343-.2-.591-.603-.744-.276-.104-.62-.157-1.032-.157-1.04 0-1.56.317-1.56.95 0 .274.065.517.195.73.093.151.238.31.434.476l-.129.14z"/><path fill="url(#paint16_linear)" d="M66.395 60.547v-.11l.066-.01a.927.927 0 00.566-.265.81.81 0 00.218-.584v-.13H64.53c-.274 0-.415.138-.425.411H64v-1.616h.105c.01.273.151.41.425.41h2.715v-.13a.81.81 0 00-.218-.583.928.928 0 00-.566-.266 8.295 8.295 0 01-.066-.012v-.11h1.01v2.995h-1.01z"/><path fill="url(#paint17_linear)" d="M64.625 63.633a2.271 2.271 0 01-.418-.384 1.368 1.368 0 01-.231-.476 1.901 1.901 0 01-.062-.515c0-.516.167-.938.499-1.267.332-.329.756-.493 1.272-.493.504 0 .924.162 1.26.486.336.324.505.737.505 1.24 0 .207-.043.436-.13.688-.053.158-.08.263-.08.315 0 .054.023.1.068.137.01.01.055.04.137.088v.11h-1.15v-.125c.03-.011.083-.032.156-.063.248-.113.445-.257.593-.432.184-.218.276-.453.276-.703 0-.344-.2-.592-.603-.745-.276-.104-.62-.156-1.032-.156-1.04 0-1.56.316-1.56.95 0 .273.065.516.195.73.093.15.238.31.434.475l-.129.14z"/><path fill="url(#paint18_linear)" d="M64.974 66.496c-.3 0-.54-.123-.723-.369a1.28 1.28 0 01-.251-.796v-1.76h.105c.01.273.151.41.425.41h2.346c.267 0 .408-.137.425-.41h.105v1.206c0 .37-.01.622-.03.754-.045.305-.15.525-.317.662a.68.68 0 01-.44.154.68.68 0 01-.544-.252 1.338 1.338 0 01-.23-.483c-.084.278-.18.482-.285.61a.714.714 0 01-.586.274zm1.416-.97h.43c.179 0 .3-.045.361-.136.049-.075.073-.208.073-.398 0-.087-.017-.144-.053-.174-.036-.027-.098-.041-.186-.041h-1.15v.105c0 .216.034.373.1.469.08.117.222.175.425.175zm-1.736.125h.476c.23 0 .397-.09.5-.269.04-.066.06-.215.06-.447v-.158h-1.13c-.162 0-.265.012-.311.037-.07.037-.105.125-.105.263 0 .173.041.31.125.41a.47.47 0 00.385.164z"/><path fill="url(#paint19_linear)" d="M65.03 69.522L64 69.3v-2.859h.105c.01.274.151.41.425.41h2.346c.267 0 .408-.136.425-.41h.105v2.825H66.37v-.1a.632.632 0 01.08-.02c.513-.1.774-.386.784-.854l.01-.447c.001-.11-.038-.172-.118-.188a1.073 1.073 0 00-.178-.01h-1.145c.008.15.02.26.037.33.03.13.084.224.159.283.09.07.274.14.549.21v.107h-1.665v-.107c.272-.068.456-.138.552-.21.107-.081.172-.286.195-.613h-1.135c-.135 0-.226.018-.271.054-.057.046-.086.185-.086.42 0 .335.089.609.266.82.117.138.326.287.625.444v.137z"/><path fill="url(#paint20_linear)" d="M65.63 70.556h-1.1c-.274 0-.415.137-.425.41H64v-1.615h.105c.01.273.151.41.425.41h2.346c.267 0 .408-.137.425-.41h.105v1.616H67.3c-.017-.274-.158-.41-.425-.41h-1.001v1.198h1.001c.267 0 .408-.136.425-.41h.105v1.616H67.3c-.017-.273-.158-.41-.425-.41H64.53c-.274 0-.415.137-.425.41H64v-1.616h.105c.01.274.151.41.425.41h1.1v-1.198z"/><path fill="url(#paint21_linear)" d="M65.63 73.998h-1.1c-.274 0-.415.137-.425.41H64v-1.616h.105c.01.273.151.41.425.41h2.346c.267 0 .408-.136.425-.41h.105v1.616H67.3c-.017-.273-.158-.41-.425-.41h-1.001v1.199h1.001c.267 0 .408-.137.425-.41h.105v1.616H67.3c-.017-.274-.158-.41-.425-.41H64.53c-.274 0-.415.136-.425.41H64v-1.616h.105c.01.273.151.41.425.41h1.1v-1.199z"/><path fill="url(#paint22_linear)" d="M64 80.804V79.19h.105c.01.274.151.41.425.41h2.346c.267 0 .408-.136.425-.41h.105v1.614H67.3c-.017-.273-.158-.41-.425-.41H64.53c-.274 0-.415.137-.425.41H64zm.964-1.68c-.345 0-.599-.13-.761-.39-.136-.217-.203-.508-.203-.874v-1.617h.105c.01.274.151.41.425.41h2.346c.267 0 .408-.136.425-.41h.105v1.617H67.3c-.017-.274-.158-.41-.425-.41h-.991v.339c0 .361-.063.658-.188.891a.778.778 0 01-.733.444zm-.029-.79c.23 0 .412-.051.547-.152.151-.114.227-.282.227-.503v-.23H64.52a.923.923 0 00-.256.02c-.059.026-.088.096-.088.21 0 .436.253.654.76.654z"/><path fill="url(#paint23_linear)" d="M68.209 83.232a.552.552 0 01-.461-.236.814.814 0 01-.164-.508c0-.195.054-.365.164-.508a.552.552 0 01.461-.237c.098 0 .179.024.244.071a.256.256 0 01.108.22c0 .109-.056.163-.167.163-.071 0-.12-.051-.148-.154-.023-.083-.053-.124-.09-.124-.07 0-.12.082-.155.246a1.661 1.661 0 000 .647c.035.165.086.247.154.247.033 0 .056-.015.069-.046.006-.028.013-.056.022-.086.027-.099.077-.149.148-.149.111 0 .166.056.166.166a.256.256 0 01-.11.218.408.408 0 01-.241.07zM64 84.334v-1.617h.105c.01.274.151.41.425.41h2.05l-2.18-1.276c-.188.04-.287.173-.295.398H64v-1.617h.105c.01.274.151.41.425.41h2.346c.267 0 .408-.136.425-.41h.105v1.617H67.3c-.017-.274-.158-.41-.425-.41h-2.075l2.192 1.279c.192-.038.295-.171.308-.4h.105v1.615H67.3c-.017-.273-.158-.41-.425-.41H64.53c-.274 0-.415.137-.425.41H64z"/><path fill="url(#paint24_linear)" d="M73.123 91.825h-.151a1.509 1.509 0 00-.154-.454c-.147-.247-.405-.371-.776-.371h-2.62v-.105c.273-.01.41-.151.41-.425v-2.346c0-.267-.137-.408-.41-.425v-.105h1.616v.105c-.273.017-.41.158-.41.425v2.266c0 .283.137.424.41.424h.379c.273 0 .41-.141.41-.424v-2.266c0-.267-.137-.408-.41-.425v-.105h1.616v.105c-.274.017-.41.158-.41.425v2.232c0 .17.031.29.095.36.063.07.178.103.344.103h.02v.076c0 .096.004.256.012.481.001.05.011.2.029.45z"/><path fill="url(#paint25_linear)" d="M76.96 89.97L76.738 91H73.88v-.105c.274-.01.41-.151.41-.425v-2.346c0-.267-.136-.408-.41-.425v-.105h2.825v1.035h-.1a.632.632 0 01-.02-.08c-.1-.513-.385-.774-.854-.784l-.447-.01c-.109-.001-.172.038-.188.118-.006.032-.01.091-.01.178v1.145c.15-.008.26-.02.33-.037a.488.488 0 00.283-.159c.07-.09.14-.274.21-.549h.108v1.665h-.108c-.068-.272-.138-.456-.21-.552-.081-.107-.285-.172-.613-.195v1.135c0 .135.018.226.054.271.046.057.186.086.42.086.335 0 .609-.089.82-.266.139-.117.287-.326.445-.625h.136z"/><path fill="url(#paint26_linear)" d="M79.045 89.37v1.1c0 .274.136.415.41.425V91h-1.616v-.105c.273-.01.41-.151.41-.425v-2.346c0-.267-.137-.408-.41-.425v-.105h1.616v.105c-.274.017-.41.158-.41.425v1.001h1.198v-1.001c0-.267-.136-.408-.41-.425v-.105h1.617v.105c-.274.017-.41.158-.41.425v2.346c0 .274.136.415.41.425V91h-1.617v-.105c.274-.01.41-.151.41-.425v-1.1h-1.198z"/><path fill="url(#paint27_linear)" d="M85.345 88.605h-.11a7.251 7.251 0 00-.01-.066.928.928 0 00-.265-.566.81.81 0 00-.584-.218h-.13v2.715c0 .274.138.415.41.425V91h-1.615v-.105c.273-.01.41-.151.41-.425v-2.715h-.13a.81.81 0 00-.583.218.927.927 0 00-.266.566l-.012.066h-.11v-1.01h2.995v1.01z"/><path fill="url(#paint28_linear)" d="M89.1 88.549a.794.794 0 01-.386.715c-.215.137-.49.205-.823.205h-.43v1.001c0 .274.137.415.41.425V91h-1.615v-.105c.273-.01.41-.151.41-.425v-2.346c0-.267-.137-.408-.41-.425v-.105h1.594c.833 0 1.25.318 1.25.955zm-.784-.005c0-.205-.037-.377-.11-.515a.449.449 0 00-.42-.264h-.085c-.16 0-.24.072-.24.215v1.33c.227-.008.402-.038.525-.09.22-.093.33-.318.33-.676z"/><path fill="url(#paint29_linear)" d="M93.272 91h-1.595v-.105c.296-.01.445-.08.445-.21a.256.256 0 00-.02-.1l-.234-.564h-1.145l-.176.45a.47.47 0 00-.034.17c0 .16.13.244.39.254V91h-1v-.105c.16-.005.284-.111.37-.32l1.224-2.98h.156l1.27 3.075c.061.15.171.225.329.225h.02V91zm-1.485-1.174l-.51-1.236-.479 1.236h.99z"/><path fill="url(#paint30_linear)" d="M97.346 91h-1.614v-.105c.272-.01.407-.151.407-.425v-2.324c0-.12-.01-.2-.029-.24-.03-.061-.097-.092-.2-.092h-.33c-.122 0-.192.082-.21.247-.016.144-.024.614-.024 1.408 0 .775-.1 1.269-.3 1.482-.087.093-.225.14-.415.14a.558.558 0 01-.393-.142.504.504 0 01-.152-.384c0-.112.028-.204.083-.275a.306.306 0 01.257-.12c.084 0 .158.027.222.08a.254.254 0 01.098.206c0 .037-.015.09-.044.158a.462.462 0 00-.042.132c0 .077.037.115.11.115.172 0 .283-.318.332-.952.016-.215.024-.591.024-1.128v-.677c0-.159-.041-.266-.124-.322-.057-.037-.176-.063-.357-.078v-.11h2.7v.105c-.273.017-.41.158-.41.425v2.346c0 .274.137.415.41.425V91z"/><path fill="url(#paint31_linear)" d="M101.078 90.036c0 .345-.13.599-.391.761-.216.136-.508.203-.874.203h-1.616v-.105c.273-.01.41-.151.41-.425v-2.346c0-.267-.136-.408-.41-.425v-.105h1.616v.105c-.273.017-.41.158-.41.425v.991h.34c.361 0 .658.063.891.188a.778.778 0 01.444.733zm-.791.029c0-.23-.051-.412-.151-.547-.114-.151-.282-.227-.503-.227h-.23v1.189c0 .142.007.227.02.256.026.059.096.088.21.088.436 0 .654-.253.654-.76z"/><path fill="url(#paint32_linear)" d="M103.143 89.37v1.1c0 .274.136.415.41.425V91h-1.616v-.105c.273-.01.41-.151.41-.425v-2.346c0-.267-.137-.408-.41-.425v-.105h1.616v.105c-.274.017-.41.158-.41.425v1.001h1.199v-1.001c0-.267-.137-.408-.411-.425v-.105h1.617v.105c-.274.017-.411.158-.411.425v2.346c0 .274.137.415.411.425V91h-1.617v-.105c.274-.01.411-.151.411-.425v-1.1h-1.199z"/><path fill="url(#paint33_linear)" d="M110.999 91h-1.614v-.105c.273-.01.41-.151.41-.425v-2.346c0-.267-.137-.408-.41-.425v-.105h1.614v.105c-.274.017-.411.158-.411.425v2.346c0 .274.137.415.411.425V91zm-1.68-.964c0 .345-.13.599-.391.761-.216.136-.507.203-.874.203h-1.616v-.105c.274-.01.41-.151.41-.425v-2.346c0-.267-.136-.408-.41-.425v-.105h1.616v.105c-.273.017-.41.158-.41.425v.991h.339c.362 0 .659.063.892.188a.778.778 0 01.444.733zm-.791.029c0-.23-.051-.412-.151-.547-.114-.151-.282-.227-.503-.227h-.23v1.189c0 .142.007.227.02.256.026.059.096.088.21.088.436 0 .654-.253.654-.76z"/><path fill="url(#paint34_linear)" d="M114.477 86.791a.552.552 0 01-.237.461.813.813 0 01-.508.164.812.812 0 01-.507-.164.552.552 0 01-.237-.461.4.4 0 01.071-.244.255.255 0 01.219-.108c.109 0 .164.056.164.167 0 .071-.051.12-.154.148-.083.023-.124.053-.124.09 0 .07.082.12.246.155a1.666 1.666 0 00.647 0c.165-.035.247-.086.247-.154 0-.033-.016-.056-.047-.069a2.452 2.452 0 01-.085-.022c-.099-.027-.149-.077-.149-.148 0-.111.055-.166.166-.166.091 0 .164.036.217.11a.41.41 0 01.071.241zM115.578 91h-1.616v-.105c.273-.01.41-.151.41-.425v-2.05l-1.277 2.18c.041.188.174.287.398.295V91h-1.616v-.105c.273-.01.41-.151.41-.425v-2.346c0-.267-.137-.408-.41-.425v-.105h1.616v.105c-.273.017-.41.158-.41.425v2.075l1.279-2.192c-.037-.192-.171-.295-.4-.308v-.105h1.616v.105c-.273.017-.41.158-.41.425v2.346c0 .274.137.415.41.425V91z"/><path fill="url(#paint35_linear)" d="M121 81.194v1.697h-.105c-.01-.248-.063-.372-.161-.372a.116.116 0 00-.073.025l-1.26.972.139.134h.93c.274 0 .415-.137.425-.41H121v1.616h-.105c-.01-.273-.151-.41-.425-.41h-2.346c-.267 0-.409.136-.425.41h-.105V83.24h.105c.016.273.158.41.425.41h1.126l-1.175-1.16c-.054-.053-.107-.08-.161-.08-.132 0-.203.127-.215.38h-.105v-1.44h.105c0 .174.022.314.066.42.067.16.205.343.415.55l.669.656 1.77-1.411a1.73 1.73 0 00.183-.156.34.34 0 00.093-.215H121z"/><path fill="url(#paint36_linear)" d="M119.32 77.294c.495 0 .912.158 1.25.474.347.322.52.729.52 1.22 0 .518-.165.94-.495 1.267-.332.326-.757.489-1.275.489-.508 0-.929-.162-1.264-.484-.337-.322-.506-.736-.506-1.243 0-.502.17-.917.511-1.242.333-.32.753-.481 1.259-.481zm.02.84c-.409 0-.755.051-1.038.153-.415.15-.622.394-.622.73 0 .337.203.58.61.73.282.105.625.157 1.03.157.406 0 .749-.052 1.031-.156.406-.15.61-.394.61-.73 0-.333-.201-.574-.603-.726-.28-.105-.619-.158-1.018-.158z"/><path fill="url(#paint37_linear)" d="M119.369 75.581h1.101c.274 0 .415-.136.425-.41H121v1.616h-.105c-.01-.273-.151-.41-.425-.41h-2.346c-.267 0-.409.137-.425.41h-.105v-1.616h.105c.016.274.158.41.425.41h1.001v-1.198h-1.001c-.267 0-.409.136-.425.41h-.105v-1.616h.105c.016.273.158.41.425.41h2.346c.274 0 .415-.137.425-.41H121v1.616h-.105c-.01-.274-.151-.41-.425-.41h-1.101v1.198z"/><path fill="url(#paint38_linear)" d="M121.825 69.035v.151c-.198.04-.35.092-.454.154-.247.147-.371.405-.371.776v2.62h-.105c-.01-.273-.151-.41-.425-.41h-2.346c-.267 0-.409.137-.425.41h-.105V71.12h.105c.016.273.158.41.425.41h2.266c.283 0 .424-.137.424-.41v-.379c0-.273-.141-.41-.424-.41h-2.266c-.267 0-.409.137-.425.41h-.105v-1.616h.105c.016.274.158.41.425.41h2.231c.171 0 .292-.031.362-.095.068-.063.102-.178.102-.344v-.02h.076c.096 0 .256-.004.481-.012.05-.001.2-.011.449-.03z"/><path fill="url(#paint39_linear)" d="M119.97 65.648l1.03.222v2.859h-.105c-.01-.274-.151-.41-.425-.41h-2.346c-.267 0-.409.136-.425.41h-.105v-2.825h1.035v.1a.6.6 0 01-.08.02c-.513.1-.774.385-.784.854l-.01.447c-.001.109.038.171.118.188.032.006.092.01.178.01h1.145a2.11 2.11 0 00-.037-.33.489.489 0 00-.159-.283c-.091-.07-.274-.14-.549-.21v-.108h1.665v.108c-.272.068-.456.138-.552.21-.107.081-.172.285-.195.613h1.135c.135 0 .226-.018.271-.054.057-.046.086-.186.086-.42 0-.335-.089-.609-.266-.82-.117-.139-.326-.287-.625-.445v-.136z"/><path fill="url(#paint40_linear)" d="M119.369 64.013h1.101c.274 0 .415-.137.425-.41H121v1.616h-.105c-.01-.273-.151-.41-.425-.41h-2.346c-.267 0-.409.137-.425.41h-.105v-1.616h.105c.016.273.158.41.425.41h1.001v-1.199h-1.001c-.267 0-.409.137-.425.41h-.105v-1.616h.105c.016.274.158.41.425.41h2.346c.274 0 .415-.136.425-.41H121v1.617h-.105c-.01-.274-.151-.41-.425-.41h-1.101v1.198z"/><path fill="url(#paint41_linear)" d="M118.605 58.163v.11l-.066.01a.927.927 0 00-.566.265.81.81 0 00-.218.584v.13h2.715c.274 0 .415-.138.425-.411H121v1.616h-.105c-.01-.273-.151-.41-.425-.41h-2.715v.13c0 .237.073.432.218.583a.926.926 0 00.566.266l.066.012v.11h-1.011v-2.995h1.011z"/><path fill="url(#paint42_linear)" d="M119.369 56.487h1.101c.274 0 .415-.137.425-.41H121v1.616h-.105c-.01-.274-.151-.41-.425-.41h-2.346c-.267 0-.409.136-.425.41h-.105v-1.616h.105c.016.273.158.41.425.41h1.001v-1.2h-1.001c-.267 0-.409.138-.425.411h-.105v-1.616h.105c.016.273.158.41.425.41h2.346c.274 0 .415-.137.425-.41H121v1.616h-.105c-.01-.273-.151-.41-.425-.41h-1.101v1.199z"/><path fill="url(#paint43_linear)" d="M121 49.08v1.614h-.105c-.01-.273-.151-.41-.425-.41h-2.346c-.267 0-.409.137-.425.41h-.105v-1.613h.105c.016.273.158.41.425.41h2.346c.274 0 .415-.137.425-.41H121zm-.964 1.68c.345 0 .599.13.761.391.135.216.203.508.203.874v1.616h-.105c-.01-.273-.151-.41-.425-.41h-2.346c-.267 0-.409.137-.425.41h-.105v-1.616h.105c.016.273.158.41.425.41h.991v-.34c0-.36.063-.657.188-.89a.778.778 0 01.733-.445zm.029.791c-.23 0-.412.05-.547.152-.151.114-.227.281-.227.503v.23h1.189a.915.915 0 00.256-.02c.059-.026.088-.096.088-.21 0-.436-.253-.655-.759-.655z"/><path fill="url(#paint44_linear)" d="M116.791 46.052a.55.55 0 01.461.237.815.815 0 01.164.508.815.815 0 01-.164.508.55.55 0 01-.461.237.404.404 0 01-.244-.071.255.255 0 01-.108-.22c0-.109.056-.163.166-.163.072 0 .122.05.149.153.023.083.053.125.091.125.068 0 .119-.082.154-.247a1.675 1.675 0 000-.647c-.035-.164-.086-.246-.154-.246a.07.07 0 00-.069.046 1.045 1.045 0 01-.022.086c-.027.099-.077.148-.149.148-.11 0-.166-.055-.166-.166 0-.09.037-.163.11-.217a.41.41 0 01.242-.07zm4.209-1.1v1.616h-.105c-.01-.274-.151-.41-.425-.41h-2.051l2.181 1.276c.188-.04.287-.173.295-.398H121v1.616h-.105c-.01-.273-.151-.41-.425-.41h-2.346c-.267 0-.409.137-.425.41h-.105v-1.616h.105c.016.274.158.41.425.41h2.075l-2.192-1.279c-.192.038-.295.171-.308.4h-.105v-1.616h.105c.016.274.158.41.425.41h2.346c.274 0 .415-.136.425-.41H121z"/><path fill="url(#paint45_linear)" d="M120.089 40.362c.355 0 .618.144.789.432.138.233.207.54.207.923 0 .286-.048.535-.144.747a2.023 2.023 0 01-.461.613l-.161-.154c.174-.174.294-.32.361-.437.093-.163.139-.344.139-.545 0-.242-.081-.425-.244-.549-.146-.11-.345-.166-.596-.166-.24 0-.413.056-.517.168-.104.113-.156.29-.156.533v.185h-.201c0-.264-.022-.456-.065-.576-.075-.207-.287-.31-.635-.31-.436 0-.655.189-.655.566 0 .21.104.419.311.625.133.134.345.266.634.396v.115l-1.145-.052v-.114c.134-.01.2-.074.2-.19a.964.964 0 00-.061-.255 2.457 2.457 0 01-.139-.764c0-.319.056-.574.169-.767.138-.239.355-.358.652-.358.441 0 .719.273.835.82h.009c.067-.288.153-.496.257-.625.141-.174.347-.261.617-.261z"/><path fill="url(#paint46_linear)" d="M121 36.484v1.594h-.105c-.01-.296-.08-.444-.21-.444a.255.255 0 00-.1.02l-.564.233v1.145l.449.176a.473.473 0 00.171.035c.16 0 .244-.13.254-.391H121v1h-.105c-.005-.16-.111-.284-.32-.37l-2.981-1.223v-.157l3.076-1.27c.15-.061.225-.17.225-.329v-.02H121zm-1.174 1.484l-1.236.51 1.236.479v-.989z"/><path fill="url(#paint47_linear)" d="M121 32.86v1.613h-.105c-.01-.271-.151-.407-.425-.407h-2.324c-.12 0-.2.01-.239.029-.062.03-.093.098-.093.2v.33c0 .122.082.192.247.21.144.016.614.024 1.408.024.775 0 1.269.1 1.482.3.093.087.139.225.139.415a.56.56 0 01-.141.394.505.505 0 01-.384.15.435.435 0 01-.275-.082.306.306 0 01-.12-.257c0-.084.027-.158.08-.222a.256.256 0 01.206-.097.44.44 0 01.158.044.468.468 0 00.132.041c.077 0 .115-.037.115-.11 0-.172-.318-.283-.952-.332a17.414 17.414 0 00-1.128-.024h-.677c-.159 0-.266.041-.322.124-.037.057-.063.176-.078.357h-.11v-2.7h.105c.016.273.158.41.425.41h2.346c.274 0 .415-.137.425-.41H121z"/><path fill="url(#paint48_linear)" fill-rule="evenodd" d="M115 34H70v49a2 2 0 002 2h41a2 2 0 002-2V34zm-46-1v50a3 3 0 003 3h41a3 3 0 003-3V33H69z" clip-rule="evenodd"/><path fill="url(#paint49_linear)" fill-rule="evenodd" d="M61.077 19c0 .215-.087.408-.277.624-.2.226-.475.434-.806.685l-.007.005c-.315.238-.683.517-.966.852-.294.349-.521.784-.521 1.334V27h1c0-.62.26-1.27.625-1.767.18-.246.375-.44.555-.567.083-.059.241-.098.397-.123V85c0 5.523 4.477 10 10 10h42.846c5.523 0 10-4.477 10-10V24.543c.156.025.314.064.397.123.18.127.375.32.555.567.365.498.625 1.147.625 1.767h1v-4.5c0-.472-.248-.89-.51-1.222-.269-.341-.619-.672-.938-.969l-.084-.078c-.298-.277-.563-.524-.763-.757-.235-.273-.282-.42-.282-.474h-1v66a9 9 0 01-9 9H71.077a9 9 0 01-9-9V19h-1zm63.82 4.85c.213.15.417.342.603.561V22.5c0-.128-.074-.322-.295-.603-.214-.271-.509-.553-.834-.856l-.09-.084c-.118-.11-.239-.222-.358-.336v2.92c.36.06.784.174.974.309zm-64.261-2.773l-.046.034c-.33.25-.606.464-.805.7-.19.224-.285.44-.285.689v1.911c.186-.22.39-.411.603-.561.19-.135.614-.25.974-.308v-2.81c-.149.124-.3.238-.441.345z" clip-rule="evenodd"/><path fill="url(#paint50_linear)" fill-rule="evenodd" d="M60.029 19.362l-.479.292A3.243 3.243 0 0058 22.421v3.416c0 1.06.486 2.062 1.318 2.718.06.047.119.085.178.116l.533.282V85c0 6.075 4.924 11 11 11h42.942c6.076 0 11-4.925 11-11V28.953l.533-.282c.059-.03.118-.069.178-.116A3.464 3.464 0 00127 25.837V22.42c0-1.13-.588-2.178-1.55-2.767l-.479-.292V12H60.029v7.362zM125.97 11v7.801a4.243 4.243 0 012.029 3.62v3.416a4.463 4.463 0 01-1.699 3.504 2.142 2.142 0 01-.33.215V85c0 6.627-5.372 12-12 12H71.029c-6.628 0-12-5.373-12-12V29.556a2.163 2.163 0 01-.33-.215A4.463 4.463 0 0157 25.837V22.42c0-1.48.77-2.85 2.029-3.62V11h66.942z" clip-rule="evenodd"/></g><defs><linearGradient id="paint0_linear" x1="57" x2="57.469" y1="65.5" y2="-.005" gradientUnits="userSpaceOnUse"><stop stop-color="#A96849"/><stop offset="1" stop-color="#E89E75"/></linearGradient><linearGradient id="paint1_linear" x1="57" x2="57.469" y1="65.5" y2="-.005" gradientUnits="userSpaceOnUse"><stop stop-color="#A96849"/><stop offset="1" stop-color="#E89E75"/></linearGradient><linearGradient id="paint2_linear" x1="57" x2="57.469" y1="65.5" y2="-.005" gradientUnits="userSpaceOnUse"><stop stop-color="#A96849"/><stop offset="1" stop-color="#E89E75"/></linearGradient><linearGradient id="paint3_linear" x1="57" x2="57.469" y1="65.5" y2="-.005" gradientUnits="userSpaceOnUse"><stop stop-color="#A96849"/><stop offset="1" stop-color="#E89E75"/></linearGradient><linearGradient id="paint4_linear" x1="57" x2="57.469" y1="65.5" y2="-.005" gradientUnits="userSpaceOnUse"><stop stop-color="#A96849"/><stop offset="1" stop-color="#E89E75"/></linearGradient><linearGradient id="paint5_linear" x1="57" x2="57.469" y1="65.5" y2="-.005" gradientUnits="userSpaceOnUse"><stop stop-color="#A96849"/><stop offset="1" stop-color="#E89E75"/></linearGradient><linearGradient id="paint6_linear" x1="57" x2="57.469" y1="65.5" y2="-.005" gradientUnits="userSpaceOnUse"><stop stop-color="#A96849"/><stop offset="1" stop-color="#E89E75"/></linearGradient><linearGradient id="paint7_linear" x1="57" x2="57.469" y1="65.5" y2="-.005" gradientUnits="userSpaceOnUse"><stop stop-color="#A96849"/><stop offset="1" stop-color="#E89E75"/></linearGradient><linearGradient id="paint8_linear" x1="57" x2="57.469" y1="65.5" y2="-.005" gradientUnits="userSpaceOnUse"><stop stop-color="#A96849"/><stop offset="1" stop-color="#E89E75"/></linearGradient><linearGradient id="paint9_linear" x1="57" x2="57.469" y1="65.5" y2="-.005" gradientUnits="userSpaceOnUse"><stop stop-color="#A96849"/><stop offset="1" stop-color="#E89E75"/></linearGradient><linearGradient id="paint10_linear" x1="57" x2="57.469" y1="65.5" y2="-.005" gradientUnits="userSpaceOnUse"><stop stop-color="#A96849"/><stop offset="1" stop-color="#E89E75"/></linearGradient><linearGradient id="paint11_linear" x1="57" x2="57.469" y1="65.5" y2="-.005" gradientUnits="userSpaceOnUse"><stop stop-color="#A96849"/><stop offset="1" stop-color="#E89E75"/></linearGradient><linearGradient id="paint12_linear" x1="57" x2="57.469" y1="65.5" y2="-.005" gradientUnits="userSpaceOnUse"><stop stop-color="#A96849"/><stop offset="1" stop-color="#E89E75"/></linearGradient><linearGradient id="paint13_linear" x1="57" x2="57.469" y1="65.5" y2="-.005" gradientUnits="userSpaceOnUse"><stop stop-color="#A96849"/><stop offset="1" stop-color="#E89E75"/></linearGradient><linearGradient id="paint14_linear" x1="57" x2="57.469" y1="65.5" y2="-.005" gradientUnits="userSpaceOnUse"><stop stop-color="#A96849"/><stop offset="1" stop-color="#E89E75"/></linearGradient><linearGradient id="paint15_linear" x1="57" x2="57.469" y1="65.5" y2="-.005" gradientUnits="userSpaceOnUse"><stop stop-color="#A96849"/><stop offset="1" stop-color="#E89E75"/></linearGradient><linearGradient id="paint16_linear" x1="57" x2="57.469" y1="65.5" y2="-.005" gradientUnits="userSpaceOnUse"><stop stop-color="#A96849"/><stop offset="1" stop-color="#E89E75"/></linearGradient><linearGradient id="paint17_linear" x1="57" x2="57.469" y1="65.5" y2="-.005" gradientUnits="userSpaceOnUse"><stop stop-color="#A96849"/><stop offset="1" stop-color="#E89E75"/></linearGradient><linearGradient id="paint18_linear" x1="57" x2="57.469" y1="65.5" y2="-.005" gradientUnits="userSpaceOnUse"><stop stop-color="#A96849"/><stop offset="1" stop-color="#E89E75"/></linearGradient><linearGradient id="paint19_linear" x1="57" x2="57.469" y1="65.5" y2="-.005" gradientUnits="userSpaceOnUse"><stop stop-color="#A96849"/><stop offset="1" stop-color="#E89E75"/></linearGradient><linearGradient id="paint20_linear" x1="57" x2="57.469" y1="65.5" y2="-.005" gradientUnits="userSpaceOnUse"><stop stop-color="#A96849"/><stop offset="1" stop-color="#E89E75"/></linearGradient><linearGradient id="paint21_linear" x1="57" x2="57.469" y1="65.5" y2="-.005" gradientUnits="userSpaceOnUse"><stop stop-color="#A96849"/><stop offset="1" stop-color="#E89E75"/></linearGradient><linearGradient id="paint22_linear" x1="57" x2="57.469" y1="65.5" y2="-.005" gradientUnits="userSpaceOnUse"><stop stop-color="#A96849"/><stop offset="1" stop-color="#E89E75"/></linearGradient><linearGradient id="paint23_linear" x1="57" x2="57.469" y1="65.5" y2="-.005" gradientUnits="userSpaceOnUse"><stop stop-color="#A96849"/><stop offset="1" stop-color="#E89E75"/></linearGradient><linearGradient id="paint24_linear" x1="57" x2="57.469" y1="65.5" y2="-.005" gradientUnits="userSpaceOnUse"><stop stop-color="#A96849"/><stop offset="1" stop-color="#E89E75"/></linearGradient><linearGradient id="paint25_linear" x1="57" x2="57.469" y1="65.5" y2="-.005" gradientUnits="userSpaceOnUse"><stop stop-color="#A96849"/><stop offset="1" stop-color="#E89E75"/></linearGradient><linearGradient id="paint26_linear" x1="57" x2="57.469" y1="65.5" y2="-.005" gradientUnits="userSpaceOnUse"><stop stop-color="#A96849"/><stop offset="1" stop-color="#E89E75"/></linearGradient><linearGradient id="paint27_linear" x1="57" x2="57.469" y1="65.5" y2="-.005" gradientUnits="userSpaceOnUse"><stop stop-color="#A96849"/><stop offset="1" stop-color="#E89E75"/></linearGradient><linearGradient id="paint28_linear" x1="57" x2="57.469" y1="65.5" y2="-.005" gradientUnits="userSpaceOnUse"><stop stop-color="#A96849"/><stop offset="1" stop-color="#E89E75"/></linearGradient><linearGradient id="paint29_linear" x1="57" x2="57.469" y1="65.5" y2="-.005" gradientUnits="userSpaceOnUse"><stop stop-color="#A96849"/><stop offset="1" stop-color="#E89E75"/></linearGradient><linearGradient id="paint30_linear" x1="57" x2="57.469" y1="65.5" y2="-.005" gradientUnits="userSpaceOnUse"><stop stop-color="#A96849"/><stop offset="1" stop-color="#E89E75"/></linearGradient><linearGradient id="paint31_linear" x1="57" x2="57.469" y1="65.5" y2="-.005" gradientUnits="userSpaceOnUse"><stop stop-color="#A96849"/><stop offset="1" stop-color="#E89E75"/></linearGradient><linearGradient id="paint32_linear" x1="57" x2="57.469" y1="65.5" y2="-.005" gradientUnits="userSpaceOnUse"><stop stop-color="#A96849"/><stop offset="1" stop-color="#E89E75"/></linearGradient><linearGradient id="paint33_linear" x1="57" x2="57.469" y1="65.5" y2="-.005" gradientUnits="userSpaceOnUse"><stop stop-color="#A96849"/><stop offset="1" stop-color="#E89E75"/></linearGradient><linearGradient id="paint34_linear" x1="57" x2="57.469" y1="65.5" y2="-.005" gradientUnits="userSpaceOnUse"><stop stop-color="#A96849"/><stop offset="1" stop-color="#E89E75"/></linearGradient><linearGradient id="paint35_linear" x1="57" x2="57.469" y1="65.5" y2="-.005" gradientUnits="userSpaceOnUse"><stop stop-color="#A96849"/><stop offset="1" stop-color="#E89E75"/></linearGradient><linearGradient id="paint36_linear" x1="57" x2="57.469" y1="65.5" y2="-.005" gradientUnits="userSpaceOnUse"><stop stop-color="#A96849"/><stop offset="1" stop-color="#E89E75"/></linearGradient><linearGradient id="paint37_linear" x1="57" x2="57.469" y1="65.5" y2="-.005" gradientUnits="userSpaceOnUse"><stop stop-color="#A96849"/><stop offset="1" stop-color="#E89E75"/></linearGradient><linearGradient id="paint38_linear" x1="57" x2="57.469" y1="65.5" y2="-.005" gradientUnits="userSpaceOnUse"><stop stop-color="#A96849"/><stop offset="1" stop-color="#E89E75"/></linearGradient><linearGradient id="paint39_linear" x1="57" x2="57.469" y1="65.5" y2="-.005" gradientUnits="userSpaceOnUse"><stop stop-color="#A96849"/><stop offset="1" stop-color="#E89E75"/></linearGradient><linearGradient id="paint40_linear" x1="57" x2="57.469" y1="65.5" y2="-.005" gradientUnits="userSpaceOnUse"><stop stop-color="#A96849"/><stop offset="1" stop-color="#E89E75"/></linearGradient><linearGradient id="paint41_linear" x1="57" x2="57.469" y1="65.5" y2="-.005" gradientUnits="userSpaceOnUse"><stop stop-color="#A96849"/><stop offset="1" stop-color="#E89E75"/></linearGradient><linearGradient id="paint42_linear" x1="57" x2="57.469" y1="65.5" y2="-.005" gradientUnits="userSpaceOnUse"><stop stop-color="#A96849"/><stop offset="1" stop-color="#E89E75"/></linearGradient><linearGradient id="paint43_linear" x1="57" x2="57.469" y1="65.5" y2="-.005" gradientUnits="userSpaceOnUse"><stop stop-color="#A96849"/><stop offset="1" stop-color="#E89E75"/></linearGradient><linearGradient id="paint44_linear" x1="57" x2="57.469" y1="65.5" y2="-.005" gradientUnits="userSpaceOnUse"><stop stop-color="#A96849"/><stop offset="1" stop-color="#E89E75"/></linearGradient><linearGradient id="paint45_linear" x1="57" x2="57.469" y1="65.5" y2="-.005" gradientUnits="userSpaceOnUse"><stop stop-color="#A96849"/><stop offset="1" stop-color="#E89E75"/></linearGradient><linearGradient id="paint46_linear" x1="57" x2="57.469" y1="65.5" y2="-.005" gradientUnits="userSpaceOnUse"><stop stop-color="#A96849"/><stop offset="1" stop-color="#E89E75"/></linearGradient><linearGradient id="paint47_linear" x1="57" x2="57.469" y1="65.5" y2="-.005" gradientUnits="userSpaceOnUse"><stop stop-color="#A96849"/><stop offset="1" stop-color="#E89E75"/></linearGradient><linearGradient id="paint48_linear" x1="57" x2="57.469" y1="65.5" y2="-.005" gradientUnits="userSpaceOnUse"><stop stop-color="#A96849"/><stop offset="1" stop-color="#E89E75"/></linearGradient><linearGradient id="paint49_linear" x1="57" x2="57.469" y1="65.5" y2="-.005" gradientUnits="userSpaceOnUse"><stop stop-color="#A96849"/><stop offset="1" stop-color="#E89E75"/></linearGradient><linearGradient id="paint50_linear" x1="57" x2="57.469" y1="65.5" y2="-.005" gradientUnits="userSpaceOnUse"><stop stop-color="#A96849"/><stop offset="1" stop-color="#E89E75"/></linearGradient><filter id="filter0_i" width="71" height="86" x="57" y="11" color-interpolation-filters="sRGB" filterUnits="userSpaceOnUse"><feFlood flood-opacity="0" result="BackgroundImageFix"/><feBlend in="SourceGraphic" in2="BackgroundImageFix" result="shape"/><feColorMatrix in="SourceAlpha" result="hardAlpha" values="0 0 0 0 0 0 0 0 0 0 0 0 0 0 0 0 0 0 127 0"/><feOffset dy="1"/><feComposite in2="hardAlpha" k2="-1" k3="1" operator="arithmetic"/><feColorMatrix values="0 0 0 0 1 0 0 0 0 1 0 0 0 0 1 0 0 0 1 0"/><feBlend in2="shape" mode="soft-light" result="effect1_innerShadow"/></filter></defs></svg>