<svg xmlns="http://www.w3.org/2000/svg" width="185" height="107" fill="none" viewBox="0 0 185 107"><g filter="url(#filter0_i)"><path fill="url(#paint0_linear)" d="M25 60.413V39h21.28v7.361H32.314v14.052H25z"/><path fill="url(#paint1_linear)" d="M32.98 68.443v-7.36h13.966V47.03l-.002-.001h7.982v21.413H32.98z"/><path fill="url(#paint2_linear)" fill-rule="evenodd" d="M32.98 47.03v13.383h13.3V47.03h-13.3z" clip-rule="evenodd"/><path fill="url(#paint3_linear)" d="M64.124 49.99a1.31 1.31 0 00-.104-.553.99.99 0 00-.283-.353 1.142 1.142 0 00-.416-.18 2.2 2.2 0 00-.494-.053H61.58v2.397h1.222c.143 0 .293-.016.452-.046a1.19 1.19 0 00.43-.18.95.95 0 00.318-.38c.081-.163.123-.383.123-.651zm1.522 5.321c.029.072.032.131.006.177-.03.05-.072.072-.136.072H64.5a.466.466 0 01-.208-.036c-.049-.023-.094-.078-.133-.167l-1.378-2.98h-1.203v2.944c0 .16-.075.24-.227.24h-.872c-.159 0-.234-.076-.234-.224V47.9c0-.151.075-.226.234-.226h2.62c.306 0 .602.042.888.13.286.086.543.227.767.41.224.187.406.425.543.72.136.292.204.645.204 1.058 0 .213-.022.425-.074.642a2.4 2.4 0 01-.24.612c-.115.193-.258.37-.433.533a1.87 1.87 0 01-.653.383l1.543 3.15z"/><path fill="url(#paint4_linear)" d="M71.1 54.47c.52 0 .917-.144 1.183-.436.273-.288.41-.74.41-1.358v-4.764c0-.157.078-.24.234-.24h.884c.088 0 .146.024.172.07.03.042.042.098.042.17l-.013 4.764c0 .239-.013.474-.042.707a2.774 2.774 0 01-.169.694 2.35 2.35 0 01-1.086 1.211c-.237.128-.49.223-.767.282a4.007 4.007 0 01-.848.088c-1.242 0-2.09-.442-2.545-1.32a2.779 2.779 0 01-.273-.775 4.616 4.616 0 01-.082-.887v-4.764c0-.157.072-.24.221-.24h.885c.152 0 .224.083.224.24v4.764c0 .589.133 1.034.397 1.339.263.304.653.455 1.173.455z"/><path fill="url(#paint5_linear)" d="M79.243 55.667a8.353 8.353 0 01-1.745-.187 2.577 2.577 0 01-.534-.16c-.13-.056-.208-.108-.228-.163a.382.382 0 01-.006-.203l.104-.488c.026-.102.058-.16.104-.177a.467.467 0 01.218 0c.146.016.318.033.507.052.185.02.377.04.566.056.188.013.37.03.546.042.178.01.331.017.468.017 1.004 0 1.508-.35 1.508-1.048 0-.213-.023-.39-.068-.527a.81.81 0 00-.238-.35 1.202 1.202 0 00-.432-.226 5.067 5.067 0 00-.663-.154 13.56 13.56 0 01-.998-.24 2.858 2.858 0 01-.842-.366 1.7 1.7 0 01-.579-.629c-.142-.265-.214-.595-.214-.998 0-.753.24-1.326.715-1.722.475-.397 1.128-.596 1.963-.596.11 0 .254.003.433.013.175.006.364.02.565.04.202.022.4.052.608.097.202.043.393.099.566.17.133.056.208.112.227.168a.376.376 0 01.01.203l-.12.484c-.023.095-.059.154-.107.174-.046.02-.127.026-.234.02a16.314 16.314 0 00-.881-.109 9.834 9.834 0 00-1.008-.049c-.504 0-.855.095-1.053.282-.202.183-.303.445-.303.776 0 .193.026.343.075.458a.647.647 0 00.244.278c.11.072.254.131.43.174.178.042.396.088.652.137.339.073.667.148.982.236.312.089.592.213.829.38.244.167.436.39.582.665.146.278.214.641.214 1.093 0 .455-.074.829-.234 1.13a2.017 2.017 0 01-.63.73 2.66 2.66 0 01-.914.4 4.946 4.946 0 01-1.085.117z"/><path fill="url(#paint6_linear)" d="M87.077 55.667a8.268 8.268 0 01-1.125-.078 6.455 6.455 0 01-.621-.108 2.577 2.577 0 01-.533-.16c-.13-.056-.208-.109-.228-.164a.354.354 0 01-.003-.203l.104-.488c.023-.102.055-.16.1-.177a.47.47 0 01.219 0c.146.016.318.033.507.052.185.02.377.04.565.056.192.013.37.03.547.042.178.01.334.017.468.017 1.004 0 1.508-.35 1.508-1.048 0-.213-.023-.39-.068-.527a.784.784 0 00-.238-.35c-.11-.095-.25-.17-.432-.226a5.067 5.067 0 00-.663-.154c-.345-.069-.68-.15-.998-.24a2.858 2.858 0 01-.842-.366 1.701 1.701 0 01-.579-.629c-.143-.265-.214-.595-.214-.998 0-.753.24-1.326.715-1.722.475-.397 1.128-.596 1.963-.596.11 0 .254.003.433.013.175.006.367.02.565.04.202.022.4.052.608.097.202.043.393.099.566.17.133.056.208.112.227.168a.377.377 0 01.01.203l-.12.484c-.023.095-.059.154-.104.174a.598.598 0 01-.238.02 16.314 16.314 0 00-.88-.109 9.832 9.832 0 00-1.008-.049c-.504 0-.855.095-1.053.282-.202.183-.303.445-.303.776 0 .193.026.343.075.458a.634.634 0 00.247.278c.107.072.25.131.426.174.179.042.397.088.657.137.334.073.663.148.978.236.312.089.592.213.829.38.244.167.435.39.582.665.146.278.214.641.214 1.093 0 .455-.075.829-.234 1.13a2.017 2.017 0 01-.63.73 2.66 2.66 0 01-.914.4 4.904 4.904 0 01-1.085.117z"/><path fill="url(#paint7_linear)" d="M92.762 47.909c0-.157.075-.24.224-.24h.897c.15 0 .221.083.221.24v7.425c0 .151-.071.226-.22.226h-.898c-.15 0-.224-.075-.224-.226V47.91z"/><path fill="url(#paint8_linear)" d="M100.303 50.796l-.484-1.712h-.049l-.468 1.689-.5 1.71h1.995l-.494-1.687zm-2.36 4.515a.396.396 0 01-.117.196.328.328 0 01-.201.053h-.92c-.14 0-.186-.079-.13-.24l2.382-7.386a.51.51 0 01.108-.19c.039-.039.114-.059.22-.059h1.028c.11 0 .185.02.224.063a.468.468 0 01.098.186l2.428 7.413c.036.14 0 .213-.12.213h-1.037c-.095 0-.16-.02-.192-.06a.7.7 0 01-.104-.189l-.494-1.71h-2.643l-.53 1.71z"/><path fill="url(#paint9_linear)" d="M106.759 50.131h-.036v5.203c0 .15-.075.226-.224.226h-.849c-.159 0-.234-.076-.234-.226v-7.436c0-.144.072-.213.221-.213h.673c.182 0 .299.04.361.118.059.079.127.174.205.285l1.485 2.328 1.7 2.672h.036V47.92c0-.078.016-.14.046-.177.032-.039.091-.059.178-.059h.849c.149 0 .224.076.224.236v7.426c0 .14-.075.213-.224.213h-.673a.445.445 0 01-.241-.053.53.53 0 01-.149-.173l-2.558-3.932-.79-1.27z"/><path fill="url(#paint10_linear)" d="M122.235 51.69c0-.553-.049-1.018-.15-1.385-.097-.367-.23-.658-.406-.87a1.385 1.385 0 00-.618-.453 2.25 2.25 0 00-.786-.134h-1.223v5.54h1.141c.267 0 .524-.036.768-.108.243-.072.461-.206.646-.406.192-.197.342-.472.459-.825.11-.35.169-.802.169-1.359zm-4.258 3.873c-.101 0-.169-.02-.205-.059-.036-.039-.052-.095-.052-.167v-7.425c0-.151.071-.223.221-.223h2.395c.654 0 1.19.105 1.616.314.423.207.761.491 1.008.845.247.357.422.773.52 1.25.097.476.146.98.146 1.507a7.85 7.85 0 01-.14 1.529c-.097.478-.263.9-.51 1.257-.241.36-.579.645-1.008.855-.429.213-.972.317-1.632.317h-2.359z"/><path fill="url(#paint11_linear)" d="M126.626 47.909c0-.157.075-.24.225-.24h.897c.149 0 .221.083.221.24v7.425c0 .151-.072.226-.221.226h-.897c-.15 0-.225-.075-.225-.226V47.91z"/><path fill="url(#paint12_linear)" d="M134.945 49.99c0-.222-.036-.405-.104-.553a.994.994 0 00-.283-.353 1.142 1.142 0 00-.416-.18 2.2 2.2 0 00-.494-.053h-1.249v2.397h1.223c.143 0 .292-.016.451-.046.156-.033.3-.091.43-.18a.945.945 0 00.318-.38c.081-.163.124-.383.124-.651zm1.521 5.321c.029.072.032.131.006.177-.029.05-.071.072-.136.072h-1.014a.465.465 0 01-.208-.036c-.049-.023-.095-.078-.134-.167l-1.378-2.98h-1.203v2.944c0 .16-.078.24-.227.24h-.871c-.16 0-.234-.076-.234-.224V47.9c0-.151.074-.226.234-.226h2.62c.302 0 .601.042.89.13.283.086.54.227.764.41.225.187.403.425.543.72.137.292.205.645.205 1.058 0 .213-.026.425-.075.642-.052.212-.13.415-.24.612-.111.193-.257.37-.433.533a1.862 1.862 0 01-.653.383l1.544 3.15z"/><path fill="url(#paint13_linear)" d="M139.053 47.909c0-.157.078-.24.238-.24h4.339c.15 0 .224.076.224.23v.737c0 .14-.078.212-.237.212h-3.221v2.044h2.854c.159 0 .237.068.237.212v.737c0 .14-.078.213-.237.213h-2.854v2.34h3.302c.143 0 .215.076.215.23v.72c0 .144-.075.216-.224.216h-4.398c-.16 0-.238-.072-.238-.216V47.91z"/><path fill="url(#paint14_linear)" d="M146.523 51.686c0-.507.039-1.005.117-1.496.081-.491.234-.93.465-1.313.234-.383.556-.694.969-.933.412-.236.959-.357 1.635-.357.139 0 .302.006.487.016.189.017.377.036.576.063.195.026.386.062.575.104.189.043.361.098.52.16a.438.438 0 01.195.145c.033.055.042.13.026.226l-.104.484c-.016.072-.042.125-.081.154-.042.036-.117.043-.228.026-.289-.039-.601-.075-.936-.108-.335-.03-.657-.046-.962-.046-.4 0-.722.076-.965.226a1.46 1.46 0 00-.56.616 2.73 2.73 0 00-.253.91 9.076 9.076 0 00.01 2.19c.048.341.136.639.273.888.13.249.318.445.559.59.24.14.552.212.936.212.348 0 .67-.016.969-.05.299-.032.611-.065.929-.107.111-.017.186-.007.228.026.039.03.068.085.094.167l.091.449c.049.176-.019.304-.198.38a2.318 2.318 0 01-.501.16c-.192.046-.39.085-.591.114a7.352 7.352 0 01-1.089.082c-.66 0-1.2-.111-1.613-.337a2.568 2.568 0 01-.965-.897 3.644 3.644 0 01-.478-1.274 8.008 8.008 0 01-.13-1.47z"/><path fill="url(#paint15_linear)" d="M159.477 48.635c0 .144-.082.213-.238.213h-1.872v6.486a.29.29 0 01-.042.16c-.026.047-.085.07-.172.07h-.885c-.149 0-.224-.076-.224-.23v-6.486h-1.863c-.094 0-.159-.016-.188-.052-.033-.036-.046-.089-.046-.16v-.737c0-.072.013-.128.046-.167.029-.04.091-.06.175-.06h5.084c.15 0 .225.076.225.227v.736z"/><path fill="url(#paint16_linear)" d="M60.246 61.203c0-.079.013-.131.043-.154.026-.023.071-.036.133-.036h.331c.101 0 .153.062.153.19v7.508c0 .072-.01.118-.03.144-.019.023-.06.036-.123.036h-.331c-.062 0-.107-.013-.133-.036-.03-.026-.043-.072-.043-.144v-7.508z"/><path fill="url(#paint17_linear)" d="M69.24 68.727c0 .111-.045.164-.142.164h-.293a.39.39 0 01-.188-.033.36.36 0 01-.117-.131l-3.41-5.357-.758-1.237h-.035l.016 6.584c0 .069-.013.118-.033.141-.02.023-.058.033-.123.033h-.296c-.062 0-.107-.01-.133-.033-.03-.023-.043-.072-.043-.14v-7.56c0-.04.01-.073.036-.1.023-.029.059-.042.108-.042h.34c.072 0 .128.017.163.05.04.029.075.065.108.107l3.504 5.52.647 1.022h.026l.01-6.506c0-.081.012-.134.038-.157.02-.023.065-.036.127-.036h.283c.104 0 .156.066.156.194l.01 7.517z"/><path fill="url(#paint18_linear)" d="M76.996 61.029c.088 0 .111.046.082.13l-2.49 7.603a.252.252 0 01-.062.095c-.026.026-.078.036-.146.036h-.413c-.11 0-.179-.039-.202-.118l-2.49-7.602c-.016-.043-.019-.076-.003-.102.01-.03.049-.042.11-.042h.352c.065 0 .11.013.143.036a.204.204 0 01.071.108l1.674 5.058c.082.272.156.524.238.76.061.21.123.41.182.603.058.193.107.337.146.432h.036c.032-.095.078-.24.136-.432.059-.194.12-.393.182-.603.072-.23.15-.478.238-.746l1.641-5.085c.02-.085.088-.131.198-.131h.377z"/><path fill="url(#paint19_linear)" d="M79.74 65.1v3.172h3.54c.068 0 .117.013.14.04.022.029.035.075.035.137v.288c0 .062-.013.105-.035.124-.023.02-.072.03-.14.03h-4.034c-.072 0-.117-.01-.143-.03-.023-.02-.036-.062-.036-.124v-7.56c0-.053.013-.095.036-.121.026-.03.071-.043.143-.043h3.95c.07 0 .116.013.14.036.025.023.035.062.035.118v.298c0 .062-.01.105-.036.13-.023.024-.068.034-.14.034H79.74v2.864h3.101c.072 0 .117.01.143.03.023.02.033.062.033.124v.275c0 .066-.01.109-.033.135-.026.03-.071.042-.143.042H79.74z"/><path fill="url(#paint20_linear)" d="M87.603 69a7.84 7.84 0 01-.617-.026 8.285 8.285 0 01-.602-.062 6.335 6.335 0 01-.55-.102 3.085 3.085 0 01-.435-.13c-.094-.04-.13-.102-.094-.19l.036-.227c.006-.062.045-.088.117-.072.179.026.38.05.595.069.214.016.425.033.637.052.208.017.393.03.559.04.166.013.29.016.364.016.614 0 1.089-.124 1.424-.373.334-.249.5-.612.5-1.087 0-.298-.029-.55-.088-.747a1.152 1.152 0 00-.289-.494 1.426 1.426 0 00-.55-.308 7.318 7.318 0 00-.854-.21c-.37-.062-.702-.134-1.001-.212-.3-.079-.56-.193-.777-.34a1.433 1.433 0 01-.51-.57c-.118-.233-.176-.537-.176-.917 0-.698.208-1.235.624-1.608.42-.37 1.027-.556 1.83-.556.117 0 .26.006.436.02a9.432 9.432 0 011.131.143c.188.043.354.089.497.144.04.017.062.04.072.072a.59.59 0 010 .108l-.052.19c0 .03-.007.06-.026.089-.023.026-.062.039-.124.03-.299-.04-.61-.08-.926-.119a8.467 8.467 0 00-1.034-.059c-.328 0-.608.033-.835.105-.231.072-.41.174-.55.305-.14.13-.234.291-.295.481-.059.19-.088.4-.088.629 0 .275.039.497.114.658a.885.885 0 00.341.393c.153.101.341.173.569.225.23.053.497.109.803.164.354.06.68.135.975.216.296.085.546.207.76.364.212.157.38.367.501.628.12.262.182.606.182 1.035 0 .42-.065.773-.201 1.058a1.72 1.72 0 01-.553.687c-.234.174-.51.301-.826.373-.312.076-.65.115-1.014.115z"/><path fill="url(#paint21_linear)" d="M91.998 61.635c-.072 0-.117-.013-.14-.042-.026-.027-.036-.072-.036-.135v-.285c0-.058.01-.098.036-.12.023-.024.068-.037.14-.037h4.752c.072 0 .12.013.143.036.023.023.033.063.033.121v.285c0 .063-.01.108-.033.135-.022.03-.071.042-.143.042H94.71l-.01 7.082c0 .069-.01.118-.03.14-.019.024-.06.037-.123.037h-.331c-.062 0-.107-.013-.133-.036-.03-.023-.043-.072-.043-.14v-7.083h-2.041z"/><path fill="url(#paint22_linear)" d="M105.667 68.714c0 .072-.01.118-.03.144-.019.023-.061.033-.123.033h-.319c-.065 0-.107-.01-.136-.033-.026-.026-.039-.072-.039-.144v-6.31l-.036-.013-.449 1.048-1.947 4.086c-.039.089-.097.131-.175.131h-.296a.196.196 0 01-.189-.118l-2.005-4.194-.403-.94h-.036v6.31c0 .072-.006.118-.026.144-.02.023-.062.033-.123.033h-.296c-.065 0-.108-.01-.137-.033-.026-.026-.042-.072-.042-.144V61.16c0-.098.039-.144.12-.144h.387c.072 0 .117.007.143.023.023.017.045.056.072.121l2.064 4.417.611 1.379h.026l.624-1.402 2.064-4.374a.33.33 0 01.101-.128c.036-.026.091-.036.169-.036h.296c.087 0 .13.046.13.144v7.554z"/><path fill="url(#paint23_linear)" d="M108.907 65.1v3.172h3.537c.072 0 .12.013.14.04.026.029.039.075.039.137v.288c0 .062-.013.105-.039.124-.02.02-.068.03-.14.03h-4.031c-.071 0-.12-.01-.143-.03-.022-.02-.035-.062-.035-.124v-7.56a.19.19 0 01.035-.121c.023-.03.072-.043.143-.043h3.95c.071 0 .117.013.14.036.026.023.035.062.035.118v.298c0 .062-.009.105-.035.13-.023.024-.069.034-.14.034h-3.456v2.864h3.102c.071 0 .117.01.143.03.022.02.032.062.032.124v.275c0 .066-.01.109-.032.135-.026.03-.072.042-.143.042h-3.102z"/><path fill="url(#paint24_linear)" d="M120.317 68.727c0 .111-.046.164-.143.164h-.293a.397.397 0 01-.188-.033.363.363 0 01-.117-.131l-3.41-5.357-.757-1.237h-.033l.013 6.584c0 .069-.013.118-.032.141-.017.023-.059.033-.121.033h-.299c-.058 0-.107-.01-.133-.033-.029-.023-.042-.072-.042-.14v-7.56c0-.04.009-.073.035-.1.023-.029.059-.042.105-.042h.344c.072 0 .127.017.163.05a.57.57 0 01.107.107l3.504 5.52.65 1.022h.023l.013-6.506c0-.081.01-.134.036-.157.019-.023.065-.036.126-.036h.283c.104 0 .156.066.156.194l.01 7.517z"/><path fill="url(#paint25_linear)" d="M122.427 61.635c-.072 0-.117-.013-.143-.042-.023-.027-.033-.072-.033-.135v-.285c0-.058.01-.098.033-.12.026-.024.071-.037.143-.037h4.752c.072 0 .12.013.143.036.023.023.033.063.033.121v.285c0 .063-.01.108-.033.135-.023.03-.071.042-.143.042h-2.041l-.01 7.082c0 .069-.01.118-.029.14-.023.024-.062.037-.127.037h-.328c-.062 0-.108-.013-.134-.036-.029-.023-.042-.072-.042-.14v-7.083h-2.041z"/><path fill="url(#paint26_linear)" d="M135.877 64.497c.072 0 .118.01.144.03.022.019.032.061.032.124v.271c0 .066-.01.112-.032.138-.026.03-.072.043-.144.043h-2.984l-.009 3.61c0 .073-.01.119-.03.145-.019.023-.061.033-.123.033h-.322a.24.24 0 01-.14-.033c-.032-.026-.048-.072-.048-.144V61.17c0-.055.013-.095.035-.118.026-.026.072-.036.143-.036h3.891c.072 0 .117.01.143.036.023.023.036.063.036.118v.295c0 .065-.013.111-.036.13-.026.027-.071.037-.143.037h-3.397v2.865h2.984z"/><path fill="url(#paint27_linear)" d="M143.26 61.203c0-.079.013-.131.042-.154.026-.023.071-.036.133-.036h.332c.104 0 .152.062.152.19l-.009 4.872c0 .252-.013.494-.036.724-.023.229-.078.451-.166.664-.211.54-.543.927-.991 1.16-.449.232-.966.35-1.557.35-.611 0-1.138-.118-1.58-.357-.442-.236-.754-.616-.943-1.14a2.932 2.932 0 01-.162-.671 6.599 6.599 0 01-.039-.73v-4.872c0-.079.013-.131.039-.154.029-.023.074-.036.139-.036h.329c.101 0 .153.062.153.19v4.908c0 .714.165 1.267.5 1.666.335.403.855.603 1.564.603.686 0 1.202-.187 1.563-.56.358-.37.537-.94.537-1.71v-4.907z"/><path fill="url(#paint28_linear)" d="M151.974 68.727c0 .111-.045.164-.139.164h-.296a.413.413 0 01-.192-.033.39.39 0 01-.114-.131l-3.41-5.357-.754-1.237h-.035l.013 6.584c0 .069-.013.118-.03.141-.019.023-.061.033-.123.033h-.299c-.059 0-.108-.01-.134-.033-.029-.023-.042-.072-.042-.14v-7.56c0-.04.01-.073.036-.1.023-.029.058-.042.107-.042h.341a.25.25 0 01.166.05c.036.029.072.065.108.107l3.5 5.52.651 1.022h.019l.013-6.506c0-.081.013-.134.039-.157.02-.023.065-.036.127-.036h.283c.104 0 .156.066.156.194l.009 7.517z"/><path fill="url(#paint29_linear)" d="M159.291 65.03c0-.57-.042-1.05-.123-1.437a3.587 3.587 0 00-.325-.96 1.864 1.864 0 00-.452-.579 1.647 1.647 0 00-.52-.294 1.876 1.876 0 00-.514-.108 5.408 5.408 0 00-.435-.017h-1.687v6.637h1.592c.111 0 .247 0 .413-.007.166 0 .338-.032.517-.088.182-.053.367-.144.549-.272a1.73 1.73 0 00.495-.55c.146-.246.266-.553.354-.93.094-.376.136-.838.136-1.394zm.709-.094c0 .56-.042 1.083-.13 1.568a3.38 3.38 0 01-.478 1.254c-.231.35-.546.629-.943.828-.396.203-.906.305-1.527.305h-2.136c-.101 0-.166-.013-.192-.04-.029-.03-.042-.075-.042-.137v-7.508c0-.055.01-.101.033-.137.026-.036.078-.056.156-.056h2.181c.614 0 1.118.102 1.514.305.4.203.712.478.946.825.231.35.394.763.485 1.244.091.478.133.995.133 1.549z"/></g><defs><linearGradient id="paint0_linear" x1="25" x2="25.03" y1="58.012" y2="35.16" gradientUnits="userSpaceOnUse"><stop stop-color="#A96849"/><stop offset="1" stop-color="#E89E75"/></linearGradient><linearGradient id="paint1_linear" x1="25" x2="25.03" y1="58.012" y2="35.16" gradientUnits="userSpaceOnUse"><stop stop-color="#A96849"/><stop offset="1" stop-color="#E89E75"/></linearGradient><linearGradient id="paint2_linear" x1="25" x2="25.03" y1="58.012" y2="35.16" gradientUnits="userSpaceOnUse"><stop stop-color="#A96849"/><stop offset="1" stop-color="#E89E75"/></linearGradient><linearGradient id="paint3_linear" x1="25" x2="25.03" y1="58.012" y2="35.16" gradientUnits="userSpaceOnUse"><stop stop-color="#A96849"/><stop offset="1" stop-color="#E89E75"/></linearGradient><linearGradient id="paint4_linear" x1="25" x2="25.03" y1="58.012" y2="35.16" gradientUnits="userSpaceOnUse"><stop stop-color="#A96849"/><stop offset="1" stop-color="#E89E75"/></linearGradient><linearGradient id="paint5_linear" x1="25" x2="25.03" y1="58.012" y2="35.16" gradientUnits="userSpaceOnUse"><stop stop-color="#A96849"/><stop offset="1" stop-color="#E89E75"/></linearGradient><linearGradient id="paint6_linear" x1="25" x2="25.03" y1="58.012" y2="35.16" gradientUnits="userSpaceOnUse"><stop stop-color="#A96849"/><stop offset="1" stop-color="#E89E75"/></linearGradient><linearGradient id="paint7_linear" x1="25" x2="25.03" y1="58.012" y2="35.16" gradientUnits="userSpaceOnUse"><stop stop-color="#A96849"/><stop offset="1" stop-color="#E89E75"/></linearGradient><linearGradient id="paint8_linear" x1="25" x2="25.03" y1="58.012" y2="35.16" gradientUnits="userSpaceOnUse"><stop stop-color="#A96849"/><stop offset="1" stop-color="#E89E75"/></linearGradient><linearGradient id="paint9_linear" x1="25" x2="25.03" y1="58.012" y2="35.16" gradientUnits="userSpaceOnUse"><stop stop-color="#A96849"/><stop offset="1" stop-color="#E89E75"/></linearGradient><linearGradient id="paint10_linear" x1="25" x2="25.03" y1="58.012" y2="35.16" gradientUnits="userSpaceOnUse"><stop stop-color="#A96849"/><stop offset="1" stop-color="#E89E75"/></linearGradient><linearGradient id="paint11_linear" x1="25" x2="25.03" y1="58.012" y2="35.16" gradientUnits="userSpaceOnUse"><stop stop-color="#A96849"/><stop offset="1" stop-color="#E89E75"/></linearGradient><linearGradient id="paint12_linear" x1="25" x2="25.03" y1="58.012" y2="35.16" gradientUnits="userSpaceOnUse"><stop stop-color="#A96849"/><stop offset="1" stop-color="#E89E75"/></linearGradient><linearGradient id="paint13_linear" x1="25" x2="25.03" y1="58.012" y2="35.16" gradientUnits="userSpaceOnUse"><stop stop-color="#A96849"/><stop offset="1" stop-color="#E89E75"/></linearGradient><linearGradient id="paint14_linear" x1="25" x2="25.03" y1="58.012" y2="35.16" gradientUnits="userSpaceOnUse"><stop stop-color="#A96849"/><stop offset="1" stop-color="#E89E75"/></linearGradient><linearGradient id="paint15_linear" x1="25" x2="25.03" y1="58.012" y2="35.16" gradientUnits="userSpaceOnUse"><stop stop-color="#A96849"/><stop offset="1" stop-color="#E89E75"/></linearGradient><linearGradient id="paint16_linear" x1="25" x2="25.03" y1="58.012" y2="35.16" gradientUnits="userSpaceOnUse"><stop stop-color="#A96849"/><stop offset="1" stop-color="#E89E75"/></linearGradient><linearGradient id="paint17_linear" x1="25" x2="25.03" y1="58.012" y2="35.16" gradientUnits="userSpaceOnUse"><stop stop-color="#A96849"/><stop offset="1" stop-color="#E89E75"/></linearGradient><linearGradient id="paint18_linear" x1="25" x2="25.03" y1="58.012" y2="35.16" gradientUnits="userSpaceOnUse"><stop stop-color="#A96849"/><stop offset="1" stop-color="#E89E75"/></linearGradient><linearGradient id="paint19_linear" x1="25" x2="25.03" y1="58.012" y2="35.16" gradientUnits="userSpaceOnUse"><stop stop-color="#A96849"/><stop offset="1" stop-color="#E89E75"/></linearGradient><linearGradient id="paint20_linear" x1="25" x2="25.03" y1="58.012" y2="35.16" gradientUnits="userSpaceOnUse"><stop stop-color="#A96849"/><stop offset="1" stop-color="#E89E75"/></linearGradient><linearGradient id="paint21_linear" x1="25" x2="25.03" y1="58.012" y2="35.16" gradientUnits="userSpaceOnUse"><stop stop-color="#A96849"/><stop offset="1" stop-color="#E89E75"/></linearGradient><linearGradient id="paint22_linear" x1="25" x2="25.03" y1="58.012" y2="35.16" gradientUnits="userSpaceOnUse"><stop stop-color="#A96849"/><stop offset="1" stop-color="#E89E75"/></linearGradient><linearGradient id="paint23_linear" x1="25" x2="25.03" y1="58.012" y2="35.16" gradientUnits="userSpaceOnUse"><stop stop-color="#A96849"/><stop offset="1" stop-color="#E89E75"/></linearGradient><linearGradient id="paint24_linear" x1="25" x2="25.03" y1="58.012" y2="35.16" gradientUnits="userSpaceOnUse"><stop stop-color="#A96849"/><stop offset="1" stop-color="#E89E75"/></linearGradient><linearGradient id="paint25_linear" x1="25" x2="25.03" y1="58.012" y2="35.16" gradientUnits="userSpaceOnUse"><stop stop-color="#A96849"/><stop offset="1" stop-color="#E89E75"/></linearGradient><linearGradient id="paint26_linear" x1="25" x2="25.03" y1="58.012" y2="35.16" gradientUnits="userSpaceOnUse"><stop stop-color="#A96849"/><stop offset="1" stop-color="#E89E75"/></linearGradient><linearGradient id="paint27_linear" x1="25" x2="25.03" y1="58.012" y2="35.16" gradientUnits="userSpaceOnUse"><stop stop-color="#A96849"/><stop offset="1" stop-color="#E89E75"/></linearGradient><linearGradient id="paint28_linear" x1="25" x2="25.03" y1="58.012" y2="35.16" gradientUnits="userSpaceOnUse"><stop stop-color="#A96849"/><stop offset="1" stop-color="#E89E75"/></linearGradient><linearGradient id="paint29_linear" x1="25" x2="25.03" y1="58.012" y2="35.16" gradientUnits="userSpaceOnUse"><stop stop-color="#A96849"/><stop offset="1" stop-color="#E89E75"/></linearGradient><filter id="filter0_i" width="135" height="30" x="25" y="39" color-interpolation-filters="sRGB" filterUnits="userSpaceOnUse"><feFlood flood-opacity="0" result="BackgroundImageFix"/><feBlend in="SourceGraphic" in2="BackgroundImageFix" result="shape"/><feColorMatrix in="SourceAlpha" result="hardAlpha" values="0 0 0 0 0 0 0 0 0 0 0 0 0 0 0 0 0 0 127 0"/><feOffset dy="1"/><feComposite in2="hardAlpha" k2="-1" k3="1" operator="arithmetic"/><feColorMatrix values="0 0 0 0 1 0 0 0 0 1 0 0 0 0 1 0 0 0 1 0"/><feBlend in2="shape" mode="soft-light" result="effect1_innerShadow"/></filter></defs></svg>